<svg id="layer" xmlns="http://www.w3.org/2000/svg" xmlns:xlink="http://www.w3.org/1999/xlink" viewBox="0 0 3240 1088.92"><defs><style>.cls-1{fill:none;}.cls-2{clip-path:url(#clip-path);}.cls-3{fill:url(#linear-gradient);}.cls-4{fill:url(#radial-gradient);}.cls-10,.cls-5,.cls-7{fill:#fbe2cb;}.cls-5{opacity:0.5;}.cls-11,.cls-6{fill:#b64400;}.cls-19,.cls-6{opacity:0.2;}.cls-7,.cls-9{opacity:0.6;}.cls-8{fill:#f4c498;opacity:0.8;}.cls-9{fill:#e9944a;}.cls-10{opacity:0.3;}.cls-12{fill:#dc6b28;}.cls-13{fill:#c35407;}.cls-14{fill:#c6621d;}.cls-15{fill:#b95215;}.cls-16{fill:#cf6d38;}.cls-17{fill:#e97d32;}.cls-18{fill:#f28d56;}.cls-19,.cls-20,.cls-21{fill:#512500;}.cls-20{opacity:0.4;}.cls-22{fill:#7f3905;}</style><clipPath id="clip-path" transform="translate(659.77)"><rect id="Clipping_Mask" data-name="Clipping Mask" class="cls-1" width="1920" height="1080"/></clipPath><linearGradient id="linear-gradient" x1="1619.77" y1="-18.51" x2="1619.77" y2="770.4" gradientUnits="userSpaceOnUse"><stop offset="0" stop-color="#c35407"/><stop offset="0.21" stop-color="#e89245"/><stop offset="0.26" stop-color="#e89448"/><stop offset="0.3" stop-color="#ea9b53"/><stop offset="0.34" stop-color="#eca462"/><stop offset="0.58" stop-color="#f6cca5"/><stop offset="0.78" stop-color="#fdead6"/><stop offset="0.81" stop-color="#fce7d2"/><stop offset="0.83" stop-color="#f9e0c8"/><stop offset="0.85" stop-color="#f4d2b5"/><stop offset="0.88" stop-color="#edc09c"/><stop offset="0.9" stop-color="#e4a87b"/><stop offset="0.92" stop-color="#d88b52"/><stop offset="0.94" stop-color="#cb6923"/><stop offset="0.94" stop-color="#ca661f"/><stop offset="0.97" stop-color="#c35407"/></linearGradient><radialGradient id="radial-gradient" cx="978.88" cy="684" r="567.87" gradientTransform="translate(638.11 -543.93) rotate(45)" gradientUnits="userSpaceOnUse"><stop offset="0" stop-color="#fab52a"/><stop offset="0.47" stop-color="#f9b329"/><stop offset="0.64" stop-color="#f5ac27"/><stop offset="0.76" stop-color="#eea123"/><stop offset="0.86" stop-color="#e5901d"/><stop offset="0.95" stop-color="#d97a15"/><stop offset="1" stop-color="#ce670e"/></radialGradient></defs><g class="cls-2"><g id="Desert"><g id="Sky"><rect id="Sky-2" data-name="Sky" class="cls-3" x="659.77" width="1920" height="1080"/><circle id="Sun" class="cls-4" cx="975.64" cy="498.3" r="375.57" transform="translate(593.18 835.83) rotate(-45)"/><g id="Clouds"><path class="cls-5" d="M435.94,415.82c0,2.77,43.78,5.26,113.27,7-5.67,1.6-8.71,3.28-8.71,5,0,7.27,52.94,13.57,130.31,16.68-6.44,1.34-10,2.81-10,4.34,0,6.29,59.4,11.39,132.66,11.39q4.81,0,9.54,0c5.52,3.19,37.54,5.63,76.23,5.63,42.56,0,77.07-3,77.07-6.61,0-2.54-16.65-4.74-41.09-5.85,7-1.39,10.91-2.92,10.91-4.53,0-.53-.46-1.06-1.3-1.58,79.24-1.08,139.31-6.28,139.31-12.53,0-1.39-3-2.72-8.43-4,111.33-.84,191.66-3.23,191.66-6.05,0-2.51-63.38-4.68-155.57-5.72,12.89-1,19.94-2.05,19.94-3.17s-8.06-2.32-22.71-3.37C1286.75,411,1433,405.81,1433,399.65c0-4.39-74-8.27-187.89-10.67,12.26-1.08,19-2.24,19-3.45,0-3.17-45.83-6-117.33-7.83,2.78-.56,4.3-1.14,4.3-1.74,0-4.27-75.64-7.74-169-7.74S813.09,371.69,813.09,376c0,.2.22.4.54.59-102.57,1.64-173,5.05-173,9,0,1.53,10.69,3,29.79,4.28C576.88,392.23,518,395.74,518,399.65c0,3,34.68,5.76,93.06,8C506.68,409.22,435.94,412.29,435.94,415.82Z" transform="translate(659.77)"/><path class="cls-6" d="M464.8,72c0,1.77,34.39,3.36,89,4.46-4.45,1-6.84,2.09-6.84,3.21,0,4.64,41.57,8.67,102.34,10.66-5,.86-7.86,1.8-7.86,2.78,0,4,46.65,7.28,104.2,7.28l7.49,0c4.33,2,29.48,3.6,59.87,3.6,33.43,0,60.53-1.89,60.53-4.23,0-1.62-13.08-3-32.27-3.74,5.5-.89,8.57-1.86,8.57-2.89,0-.34-.37-.68-1-1,62.24-.7,109.42-4,109.42-8,0-.88-2.35-1.74-6.63-2.53,87.45-.54,150.54-2.07,150.54-3.87,0-1.61-49.79-3-122.19-3.66,10.13-.63,15.66-1.31,15.66-2s-6.33-1.49-17.84-2.16c155.31-.93,270.14-4.24,270.14-8.18,0-2.8-58.12-5.29-147.57-6.82,9.62-.69,14.88-1.43,14.88-2.21,0-2-36-3.83-92.15-5,2.18-.36,3.37-.73,3.37-1.11,0-2.73-59.41-4.95-132.69-4.95S761,43.82,761,46.55c0,.13.17.25.43.38-80.56,1-135.92,3.22-135.92,5.73,0,1,8.4,1.91,23.4,2.74C575.5,57,529.28,59.19,529.28,61.69c0,1.92,27.23,3.69,73.09,5.11C520.37,67.81,464.8,69.77,464.8,72Z" transform="translate(659.77)"/><path class="cls-7" d="M1465.92,327.23c0-3.64-41.9-6.89-107.61-9,4-1.24,6.2-2.55,6.2-3.9,0-5.43-34.67-10.18-86.29-12.75,2.39-.75,3.76-1.58,3.76-2.45,0-3.21-17.73-5.81-39.6-5.81s-39.59,2.6-39.59,5.81a1.06,1.06,0,0,0,.16.46c-4.39,0-8.8-.05-13.27-.05-96.55,0-174.83,6.62-174.83,14.79,0,1,1.19,2,3.41,2.91-85.61,2.05-142.85,5.78-142.85,10,0,4,50.89,7.55,128.46,9.66-23.47,1.52-37.53,3.43-37.53,5.52,0,4.22,57.17,7.74,133.7,8.63,3.22,3.08,61.61,5.54,133.2,5.54,73.65,0,133.35-2.6,133.35-5.8,0-2.2-28-4.11-69.2-5.09,7.83-1,12.19-2.12,12.19-3.28,0-1.6-8.36-3.11-22.89-4.41C1392.07,336.21,1465.92,332.06,1465.92,327.23Z" transform="translate(659.77)"/><path class="cls-8" d="M1496.7,231.24c0-2.81-52.1-5.31-132.71-6.88,52.17-2.4,86.13-6.32,86.13-10.74,0-5-42.75-9.28-106-11.55C1362.76,200.71,1374,199,1374,197c0-4.29-55.54-7.77-124.06-7.77s-124.06,3.48-124.06,7.77c0,1.79,9.61,3.43,25.73,4.74-68.46,2.16-115.57,6.66-115.57,11.87,0,3.57,22.1,6.8,58,9.18-151.34.82-265,4.29-265,8.44,0,2.5,40.93,4.74,106.33,6.32-3.92,1-6,2.08-6,3.17,0,7,84.6,12.7,191.85,13.19-3.15.69-4.88,1.41-4.88,2.16,0,4.29,55.54,7.77,124.06,7.77s124.06-3.48,124.06-7.77c0-3-27.78-5.66-68.26-6.94,29.5-2.28,47.21-5.21,47.21-8.41,0-.74-1-1.47-2.83-2.18C1434.38,237,1496.7,234.32,1496.7,231.24Z" transform="translate(659.77)"/><path class="cls-9" d="M1103.79,466.83c0-2.44-45.24-4.61-115.24-6,45.3-2.09,74.79-5.49,74.79-9.33,0-4.31-37.12-8.06-92-10,16.17-1.18,26-2.71,26-4.39,0-3.72-48.23-6.75-107.72-6.75s-107.72,3-107.72,6.75c0,1.55,8.34,3,22.34,4.12-59.45,1.87-100.35,5.78-100.35,10.3,0,3.1,19.19,5.91,50.37,8-131.42.72-230.11,3.73-230.11,7.33,0,2.17,35.53,4.12,92.33,5.49-3.41.88-5.23,1.8-5.23,2.75,0,6.06,73.46,11,166.58,11.46-2.74.59-4.23,1.22-4.23,1.87,0,3.73,48.22,6.75,107.72,6.75S989,492.13,989,488.4c0-2.63-24.12-4.91-59.27-6,25.61-2,41-4.53,41-7.31,0-.64-.85-1.28-2.45-1.89C1049.67,471.85,1103.79,469.51,1103.79,466.83Z" transform="translate(659.77)"/><path class="cls-10" d="M711.08,252.94c10.69-2.61,17-5.86,17-9.39,0-1.46-1.12-2.88-3.17-4.22,22.25-1.45,36.09-3.48,36.09-5.73,0-2.42-16-4.58-41.3-6a3.47,3.47,0,0,0,.27-1.33c0-5.44-13.42-10.12-32.7-12.23a2.8,2.8,0,0,0,1-2c0-5.74-25.17-10.4-56.23-10.4s-56.23,4.66-56.23,10.4c0,4.43,15,8.22,36.14,9.71-1.95,1.32-3,2.73-3.19,4.2-49.9,1-86.43,4-86.43,7.69,0,2.32,14.79,4.42,38.4,5.88-1.9,1.3-2.94,2.66-2.94,4.07,0,5.93,17.92,11.08,44.33,13.74-1.2.36-1.83.73-1.83,1.12,0,3.09,40.88,5.59,91.3,5.59S783,261.5,783,258.41C783,255.73,752.18,253.49,711.08,252.94Z" transform="translate(659.77)"/><path class="cls-7" d="M896.9,129c-8.71,2.13-13.87,4.77-13.87,7.64,0,1.19.91,2.35,2.58,3.44-18.11,1.19-29.38,2.84-29.38,4.67s13,3.73,33.63,4.92a2.81,2.81,0,0,0-.23,1.09c0,4.43,10.94,8.24,26.64,10a2.32,2.32,0,0,0-.85,1.63c0,4.67,20.5,8.47,45.79,8.47S1007,167,1007,162.31c0-3.61-12.22-6.69-29.42-7.91,1.58-1.08,2.48-2.22,2.6-3.42,40.63-.78,70.38-3.29,70.38-6.26,0-1.9-12-3.6-31.27-4.79,1.55-1.06,2.39-2.17,2.39-3.32,0-4.82-14.59-9-36.1-11.18,1-.3,1.49-.6,1.49-.91,0-2.52-33.28-4.56-74.35-4.56s-74.35,2-74.35,4.56C838.36,126.7,863.44,128.52,896.9,129Z" transform="translate(659.77)"/></g></g><g id="Desert-2" data-name="Desert"><path class="cls-11" d="M1140,627.59V756h360.25V620.33C1442.7,642.4,1261.72,629.35,1140,627.59Z" transform="translate(659.77)"/><path class="cls-12" d="M979.09,633.46c-62.42-6.35-192.35,15.18-375.77,0-62.59-5.18-143.87,10.74-183.09-13.54V681.6h817.71V634.07C1174.38,638.94,1096.94,645.44,979.09,633.46Z" transform="translate(659.77)"/><path class="cls-13" d="M420.23,694.17h724.94L1115.29,677l-71.54-13.78L1014.48,646l-61.79-6-82.92-15.5s-45.53,7.75-53.66,9.47-91.05,11.19-91.05,11.19L658.4,662.35l-91-13.77s-34.15,0-42.28-.86-55.5-10.26-55.5-10.26l-49.34,11.31h0Z" transform="translate(659.77)"/><polygon class="cls-11" points="1703.52 663.21 1674.25 645.99 1618.04 653.21 1578.07 685.99 1532.14 694.17 1601.44 690.76 1703.52 663.21"/><polygon class="cls-11" points="1612.47 639.97 1529.55 624.47 1489.39 662.88 1492.67 677.63 1344.44 694.17 1804.94 694.17 1543.62 684.75 1612.47 639.97"/><polygon class="cls-11" points="1775.06 676.99 1804.94 694.17 1403.24 694.17 1734.31 688.47 1775.06 676.99"/><polygon class="cls-11" points="1227.12 648.58 1318.17 662.35 1245.4 694.17 1125.96 694.17 1176.74 689.29 1205.15 674.45 1227.12 648.58"/><polygon class="cls-11" points="1129.35 637.46 1109.89 671.11 1080 694.17 1130.36 680.79 1184.85 647.72 1129.35 637.46"/><path class="cls-13" d="M1500.23,640.4l-4.44-.43-82.92-15.5s-45.53,7.75-53.66,9.47-91,11.19-91,11.19l-66,17v32h298.08Z" transform="translate(659.77)"/><polygon class="cls-11" points="2160 654.14 2121.16 685.99 2075.24 694.17 2144.54 690.76 2160 686.59 2160 654.14"/><polygon class="cls-11" points="2160 694.17 2160 687.39 2086.72 684.75 2155.56 639.97 2072.64 624.47 2032.49 662.88 2035.77 677.63 1887.54 694.17 2160 694.17"/><polygon class="cls-11" points="2160 690.49 1946.33 694.17 2160 694.17 2160 690.49"/><polygon class="cls-14" points="1080 762.54 1329.43 762.54 1302.25 728.27 1237.16 700.79 1210.53 666.43 1154.32 654.41 1080 623.95 1080 762.54"/><polygon class="cls-13" points="1237.27 703.89 1204.73 667.22 1154.2 658.49 1086.78 630.94 1110.53 657.69 1116.27 691.86 1080.46 701.44 1080 743.87 1237.27 703.89"/><polygon class="cls-15" points="1080 762.54 1329.43 762.54 1080 751.61 1080 762.54"/><polygon class="cls-15" points="1080 758.16 1080 762.54 1325.36 762.54 1301.43 731.13 1260.26 737.8 1256.91 745.02 1295.68 750.03 1080 758.16"/><polygon class="cls-16" points="1236.81 703.89 1295.21 728.9 1259.78 734.46 1269.84 726.68 1246.38 731.13 1225.93 752.66 1160.38 755.13 1212.6 747.3 1228.41 728.91 1216.7 730.57 1146.46 754.52 1203.93 722.32 1219.1 713.9 1236.81 703.89"/><polygon class="cls-16" points="1153.74 658.49 1127.29 674.13 1119.11 695.91 1097.95 710.99 1080 728.47 1080 736.89 1107.09 712.66 1126.81 697.02 1143.77 677.22 1207.61 669.1 1153.74 658.49"/><path class="cls-14" d="M1500.23,624.68c-9.83,3.68-39.49,14.85-45.64,17.71-7.39,3.43-82.84,22.33-82.84,22.33l-60.65,34.35-82.84-27.48s-31.07,0-38.46-1.72-50.5-20.46-50.5-20.46L1094.41,672,1000,762.54h500.19Z" transform="translate(659.77)"/><polygon class="cls-16" points="1667.24 759.48 1754.36 676.1 1799.83 653.87 1765.37 685 1769.67 700 1734.73 745.58 1686.86 757.25 1730.42 740.02 1752.86 700.74 1738.41 704.16 1708.4 736.13 1697.87 738.36 1667.24 759.48"/><polygon class="cls-15" points="2160 751.42 2129.36 750.08 2155.81 744.49 2160 740.51 2160 677.58 2129.64 729.56 2062.63 748.22 2067.66 736.97 2048.27 750.72 1994.78 762.54 2160 762.54 2160 751.42"/><polygon class="cls-15" points="2160 758.33 2048.27 762.54 2160 762.54 2160 758.33"/><polygon class="cls-15" points="1898.11 678.99 1960.29 707.48 1904.66 762.54 1796 762.54 1842.19 752.81 1871.63 745.3 1894.25 700.7 1868.04 723.21 1898.11 678.99"/><polygon class="cls-16" points="2160 627.02 2116.67 644.74 2034.92 666.52 1960.29 707.48 1908.49 759.48 1961.63 711.12 2003.75 693.33 1982.21 730.02 1936.73 755.59 1985.56 736.13 2023.86 685.55 2025.65 694 2013.32 747.8 2074.05 673.58 2080.67 681.6 2050.89 706.41 2083.56 700.21 2108.38 681.24 2098.45 664.46 2126.58 653.15 2115.41 669.93 2146.88 645.53 2160 630.23 2160 627.02"/><polygon class="cls-15" points="1803.42 654.84 1852.32 673.89 1800.15 715.58 1784.51 737.24 1752.97 759.37 1745.74 762.54 1695.72 762.54 1740 751.42 1795.52 696.11 1804.38 665.82 1782.12 682.77 1803.42 654.84"/><polygon class="cls-16" points="1890.62 675.56 1852.32 673.89 1818.81 700.67 1834.54 693.33 1823.05 706.12 1800.15 715.58 1782.91 736.14 1752.76 758.93 1787.22 738.92 1803.98 720.58 1826.4 715.57 1845.31 700.84 1859.14 697.67 1853.92 711.67 1827.91 732.81 1817.38 749.49 1794.88 759.49 1819.27 753.92 1830.47 737.24 1857.75 721.12 1890.62 675.56"/><path class="cls-17" d="M1500.23,747.69l-39-37.29L1368,680.5l-38.14-37.37L1249.37,630,1141.3,596.41S1082,613.23,1071.37,617s-118.67,24.3-118.67,24.3l-86.88,37.37-118.67-29.9s-44.51,0-55.1-1.87-72.33-22.26-72.33-22.26l-64.31,24.55L420.23,747.69Z" transform="translate(659.77)"/><polygon class="cls-18" points="1090.63 744.35 1215.43 653.64 1280.57 629.46 1231.2 663.32 1237.37 679.65 1187.31 729.24 1118.74 741.94 1181.14 723.19 1213.28 680.45 1192.59 684.17 1149.6 718.96 1134.51 721.38 1090.63 744.35"/><polygon class="cls-13" points="2027.31 683.88 1988.23 649.41 1916.4 658.8 1894.23 688.62 1921.95 667.11 1883.69 717.95 1804.46 747.69 1894.78 740.29 2027.31 683.88"/><polygon class="cls-13" points="1908.32 634.48 1808.57 603.14 1748.74 679.77 1802.16 631.4 1804.53 644.83 1753.02 711.81 1657.03 732.11 1664.23 719.86 1636.46 734.83 1521.78 726.76 1638.06 760.2 2160 747.69 1730.46 742.8 1790.51 728.05 1863.42 675.37 1908.32 634.48"/><polygon class="cls-11" points="1908.32 634.48 1866.98 621.49 1874.99 633.67 1855.96 637.67 1770.49 720.59 1608.1 761.08 1681.56 750.28 1790.51 728.05 1863.42 675.37 1908.32 634.48"/><polygon class="cls-12" points="2119.89 713.51 2154.17 747.69 1836.22 766.87 2111.66 734.07 2056.11 728.63 2060.91 720.77 2119.89 713.51"/><polygon class="cls-18" points="2027.31 683.88 2110.97 711.09 2060.23 717.14 2074.63 708.67 2041.03 713.51 2011.74 736.94 1917.83 739.63 1992.63 731.11 2015.29 711.11 1998.51 712.91 1897.89 738.97 1980.22 703.92 2001.94 694.77 2027.31 683.88"/><polygon class="cls-18" points="1985.48 646.03 1908.32 634.48 1870.43 651.5 1858.72 675.19 1828.4 691.6 1785.69 723.19 1757.18 733 1794.39 728.22 1841.49 693.42 1869.74 676.41 1891.1 655.14 1894.05 654.86 1884 685.7 1860 692.95 1819.54 724.4 1861.37 697.79 1886.74 689.93 1908 653.64 1985.48 646.03"/><polygon class="cls-13" points="1421.36 656.79 1510.43 687.78 1430.74 747.69 1232.76 733.95 1302.25 728.27 1393.82 713.37 1415.83 680.4 1378.29 704.9 1421.36 656.79"/><polygon class="cls-11" points="1465.33 680.9 1510.43 687.78 1454.75 730.23 1403.25 741.13 1406.82 733.37 1461.21 708.59 1424.2 715.13 1465.33 680.9"/><polygon class="cls-18" points="1802.58 598.36 1734.44 619.52 1617.34 643.23 1510.43 687.78 1436.23 744.35 1512.34 691.74 1572.68 672.39 1541.83 712.3 1476.69 740.12 1546.63 718.96 1601.48 663.92 1638.51 649.41 1671.37 647.84 1661.14 688.11 1586.4 731.65 1665.06 696.83 1711.88 648.81 1717.59 681.12 1636.46 734.83 1722.82 690.3 1733.83 675.41 1739.31 636.71 1747.4 633.74 1757.83 650.62 1777.71 620.38 1802.58 598.36"/><polygon class="cls-13" points="1285.71 630.51 1355.77 651.24 1281.02 696.6 1258.63 720.16 1213.44 744.24 1203.09 747.69 1131.43 747.69 1194.86 735.59 1274.4 675.41 1287.09 642.46 1255.2 660.9 1285.71 630.51"/><polygon class="cls-11" points="1307.35 636.92 1355.77 651.24 1281.02 696.6 1258.63 720.16 1213.44 744.24 1194.86 735.59 1227.94 728.91 1273.93 696.88 1285.29 680.22 1307.35 636.92"/><polygon class="cls-18" points="1410.62 653.05 1355.77 651.24 1307.75 680.38 1330.29 672.39 1313.83 686.3 1281.02 696.6 1256.34 718.97 1213.14 743.76 1262.51 721.99 1286.51 702.04 1318.63 696.58 1345.71 680.55 1365.54 677.12 1358.06 692.35 1344.44 694.17 1331.73 707.07 1293.06 717.6 1334.46 712.8 1352.26 707.69 1363.54 702.63 1410.62 653.05"/><path class="cls-13" d="M867.46,727.5c-93.21-14.51-372.88,33-447.23-17.22V949H1499.76l.47-232.95C1414.89,677.23,1236.67,785,867.46,727.5Z" transform="translate(659.77)"/><path class="cls-19" d="M1500.22,717.69H1360.39c-105.51,17-261.79,45.8-492.93,9.81-88.08-13.71-342.64,28-433.13-9.81h-14.1l135.18,48.4,64.31,12.06s61.73-10,72.33-10.93,55.1-.92,55.1-.92l118.67-14.69L952.7,770s108.07,10.1,118.67,11.93S1141.3,792,1141.3,792l108.07-16.52,80.53-6.43L1368,750.69,1461.28,736l38.94-18.32Z" transform="translate(659.77)"/><path class="cls-12" d="M867.65,783c288,62.81,477.26,28.75,632.58,3.2v249.09h-1080V781.77C602.28,725.52,715.11,749.74,867.65,783Z" transform="translate(659.77)"/><path class="cls-13" d="M973.25,818.13c294.25,48.4,454,89.42,527,57.49v159.67h-1080V875.62C596.11,803.23,786.6,787.43,973.25,818.13Z" transform="translate(659.77)"/><path class="cls-17" d="M880,814.94C787.31,801.2,479.57,836.35,420.23,866v214h1080V875.62C1425.14,901.16,1260.16,871.28,880,814.94Z" transform="translate(659.77)"/><path class="cls-18" d="M936.23,1045.94s136.31-75.21,351.77-92.62c72.83-5.88,162.51,7.46,162.51,7.46C1313.37,890.52,1072,952.26,936.23,1045.94Z" transform="translate(659.77)"/><path class="cls-12" d="M936.23,1045.94c43.88-34.07,305.14-192.68,514.28-85.16C1235.2,882,936.23,1045.94,936.23,1045.94Z" transform="translate(659.77)"/><path class="cls-12" d="M538,994.09c218.2,87.3,638.61,32.32,331.3-86.5C1034.92,1008.67,691.05,1046.11,538,994.09Z" transform="translate(659.77)"/><path class="cls-18" d="M456.73,981.09c32.92-25.55,192.42-112.88,342.38-65C630.9,898.06,456.73,981.09,456.73,981.09Z" transform="translate(659.77)"/><path class="cls-12" d="M1282.75,778.74c20.32-15.78,118.84-69.71,211.46-40.12C1390.32,727.46,1282.75,778.74,1282.75,778.74Z" transform="translate(659.77)"/><path class="cls-11" d="M1365.84,765.11c-27,17.35-156.75,72.48-273.92,21.2C1224.66,815.54,1365.84,765.11,1365.84,765.11Z" transform="translate(659.77)"/><path class="cls-17" d="M537.7,770.64c60.77-21.76,152.93-21.63,215.77,11.27C661.8,756.81,537.7,770.64,537.7,770.64Z" transform="translate(659.77)"/><path class="cls-12" d="M756.82,733.54c51.91-11,129.52-1.86,181.34,29.91C861.8,734.93,756.82,733.54,756.82,733.54Z" transform="translate(659.77)"/><path class="cls-12" d="M1096.83,937.47c-7.51,0-13.61,1.7-13.61,3.79s6.1,3.8,13.61,3.8,13.61-1.7,13.61-3.8S1104.35,937.47,1096.83,937.47Zm-3.29,3.37c-2.8,0-5.07-.64-5.07-1.43s2.27-1.44,5.07-1.44,5.08.65,5.08,1.44S1096.35,940.84,1093.54,940.84Z" transform="translate(659.77)"/><path class="cls-18" d="M1112.31,1003.52c-5.28,0-9.56,1.19-9.56,2.66s4.28,2.67,9.56,2.67,9.57-1.2,9.57-2.67S1117.6,1003.52,1112.31,1003.52Zm-2.31,2.37c-2,0-3.57-.46-3.57-1s1.6-1,3.57-1,3.57.45,3.57,1S1112,1005.89,1110,1005.89Z" transform="translate(659.77)"/><path class="cls-18" d="M838.86,902.5c-8.26,0-15,1.86-15,4.16s6.69,4.17,15,4.17,14.94-1.87,14.94-4.17S847.11,902.5,838.86,902.5Zm-3.61,3.7c-3.08,0-5.58-.71-5.58-1.58s2.5-1.57,5.58-1.57,5.58.7,5.58,1.57S838.33,906.2,835.25,906.2Z" transform="translate(659.77)"/><path class="cls-12" d="M549.15,1002.26c-8.25,0-14.95,1.86-14.95,4.16s6.7,4.17,14.95,4.17,15-1.87,15-4.17S557.41,1002.26,549.15,1002.26Zm-3.61,3.7c-3.08,0-5.58-.7-5.58-1.57s2.5-1.58,5.58-1.58,5.58.71,5.58,1.58S548.62,1006,545.54,1006Z" transform="translate(659.77)"/><ellipse class="cls-12" cx="1226.74" cy="1014.92" rx="5.58" ry="1.58"/><path class="cls-18" d="M769.53,897.2c-3.08,0-5.58-.7-5.58-1.57s2.5-1.58,5.58-1.58,5.58.71,5.58,1.58S772.61,897.2,769.53,897.2Z" transform="translate(659.77)"/><ellipse class="cls-18" cx="1443.41" cy="903.37" rx="5.58" ry="1.58"/><ellipse class="cls-12" cx="1769.76" cy="947.47" rx="5.58" ry="1.58"/><ellipse class="cls-18" cx="2021.7" cy="974.72" rx="5.58" ry="1.58"/><path class="cls-18" d="M1373.42,980.87c-4.5,0-8.14-1-8.14-2.3s3.64-2.3,8.14-2.3,8.13,1,8.13,2.3S1377.91,980.87,1373.42,980.87Z" transform="translate(659.77)"/><path class="cls-18" d="M902.84,1067.63c-3.08,0-5.57-.71-5.57-1.58s2.49-1.57,5.57-1.57,5.58.7,5.58,1.57S905.93,1067.63,902.84,1067.63Z" transform="translate(659.77)"/><path class="cls-12" d="M915.32,1053.14c-5.26,0-9.53-1.21-9.53-2.69s4.27-2.7,9.53-2.7,9.54,1.21,9.54,2.7S920.59,1053.14,915.32,1053.14Z" transform="translate(659.77)"/><path class="cls-12" d="M502.71,979.25c-3.08,0-5.58-.71-5.58-1.58s2.5-1.58,5.58-1.58,5.58.71,5.58,1.58S505.79,979.25,502.71,979.25Z" transform="translate(659.77)"/><path class="cls-11" d="M60,626.53V754.9H420.23V619.27C362.7,641.33,181.72,628.29,60,626.53Z" transform="translate(659.77)"/><path class="cls-12" d="M-100.91,632.4c-62.42-6.35-192.35,15.17-375.77,0-62.59-5.18-143.87,10.74-183.09-13.55v61.69H157.94V633C94.38,637.88,16.94,644.38-100.91,632.4Z" transform="translate(659.77)"/><path class="cls-13" d="M-659.77,693.1H65.17L35.29,675.92l-71.54-13.77-29.27-17.22-61.79-6-82.92-15.5s-45.53,7.75-53.66,9.47-91.05,11.2-91.05,11.2l-66.66,17.22-91-13.78s-34.15,0-42.28-.86-55.5-10.26-55.5-10.26l-49.34,11.31h0Z" transform="translate(659.77)"/><polygon class="cls-11" points="623.52 662.15 594.25 644.93 538.03 652.15 498.06 684.93 452.14 693.1 521.44 689.69 623.52 662.15"/><polygon class="cls-11" points="532.47 638.9 449.55 623.4 409.39 661.81 412.67 676.57 264.44 693.1 724.94 693.1 463.62 683.69 532.47 638.9"/><polygon class="cls-11" points="695.06 675.92 724.94 693.1 323.24 693.1 654.31 687.41 695.06 675.92"/><polygon class="cls-11" points="147.12 647.51 238.17 661.29 165.4 693.1 45.97 693.1 96.74 688.22 125.15 673.39 147.12 647.51"/><polygon class="cls-11" points="49.35 636.39 29.89 670.04 0 693.1 50.36 679.73 104.84 646.65 49.35 636.39"/><path class="cls-13" d="M420.23,639.33l-4.44-.43-82.92-15.5s-45.53,7.75-53.66,9.47-91,11.2-91,11.2l-66,17v32H420.23Z" transform="translate(659.77)"/><polygon class="cls-11" points="1080 653.08 1041.16 684.93 995.24 693.1 1064.54 689.69 1080 685.52 1080 653.08"/><polygon class="cls-11" points="1080 693.1 1080 686.33 1006.72 683.69 1075.56 638.9 992.64 623.4 952.49 661.81 955.77 676.57 807.54 693.1 1080 693.1"/><polygon class="cls-11" points="1080 689.43 866.33 693.1 1080 693.1 1080 689.43"/><polygon class="cls-14" points="0 761.48 249.43 761.48 222.25 727.21 157.16 699.72 130.53 665.37 74.32 653.35 0 622.89 0 761.48"/><polygon class="cls-13" points="157.27 702.83 124.73 666.15 74.2 657.42 6.78 629.88 30.53 656.63 36.27 690.79 0.46 700.37 0 742.8 157.27 702.83"/><polygon class="cls-15" points="0 761.48 249.43 761.48 0 750.54 0 761.48"/><polygon class="cls-15" points="0 757.1 0 761.48 245.36 761.48 221.43 730.06 180.26 736.73 176.91 743.96 215.68 748.96 0 757.1"/><polygon class="cls-16" points="156.81 702.83 215.21 727.84 179.78 733.4 189.84 725.62 166.38 730.06 145.93 751.59 80.38 754.07 132.6 746.24 148.41 727.85 136.7 729.51 66.46 753.46 123.93 721.25 139.09 712.83 156.81 702.83"/><polygon class="cls-16" points="73.74 657.42 47.29 673.06 39.11 694.84 17.95 709.92 0 727.4 0 735.82 27.09 711.6 46.81 695.96 63.77 676.15 127.61 668.04 73.74 657.42"/><path class="cls-14" d="M420.23,623.62c-9.83,3.68-39.49,14.84-45.64,17.7-7.39,3.44-82.84,22.33-82.84,22.33L231.1,698l-82.84-27.49s-31.07,0-38.46-1.72-50.5-20.46-50.5-20.46L14.41,670.91-80,761.48H420.23Z" transform="translate(659.77)"/><polygon class="cls-16" points="587.24 758.41 674.36 675.04 719.83 652.8 685.37 683.93 689.67 698.94 654.73 744.52 606.86 756.19 650.42 738.96 672.86 699.68 658.41 703.1 628.4 735.07 617.87 737.29 587.24 758.41"/><polygon class="cls-15" points="1080 750.36 1049.36 749.01 1075.81 743.43 1080 739.44 1080 676.51 1049.64 728.5 982.63 747.16 987.65 735.9 968.27 749.66 914.77 761.48 1080 761.48 1080 750.36"/><polygon class="cls-15" points="1080 757.26 968.27 761.48 1080 761.48 1080 757.26"/><polygon class="cls-15" points="818.11 677.93 880.29 706.42 824.66 761.48 716 761.48 762.2 751.74 791.63 744.24 814.25 699.63 788.04 722.14 818.11 677.93"/><polygon class="cls-16" points="1080 625.96 1036.67 643.68 954.92 665.46 880.29 706.42 828.49 758.41 881.63 710.05 923.75 692.27 902.21 728.95 856.74 754.52 905.56 735.07 943.86 684.49 945.65 692.94 933.32 746.74 994.05 672.51 1000.67 680.54 970.89 705.34 1003.56 699.14 1028.38 680.17 1018.45 663.39 1046.58 652.08 1035.41 668.86 1066.88 644.47 1080 629.17 1080 625.96"/><polygon class="cls-15" points="723.42 653.78 772.32 672.83 720.15 714.51 704.51 736.18 672.97 758.31 665.74 761.48 615.72 761.48 660 750.35 715.52 695.05 724.38 664.75 702.12 681.71 723.42 653.78"/><polygon class="cls-16" points="810.62 674.49 772.32 672.83 738.81 699.61 754.54 692.27 743.05 705.05 720.15 714.51 702.91 735.08 672.76 757.87 707.22 737.86 723.98 719.52 746.4 714.5 765.31 699.77 779.14 696.61 773.92 710.61 747.91 731.75 737.38 748.42 714.88 758.42 739.27 752.85 750.47 736.18 777.75 720.06 810.62 674.49"/><path class="cls-17" d="M420.23,746.63l-39-37.29L288,679.44,249.9,642.06,169.37,629,61.3,595.34S2,612.16-8.63,615.9-127.3,640.19-127.3,640.19l-86.88,37.38-118.67-29.9s-44.51,0-55.1-1.87-72.33-22.26-72.33-22.26l-64.31,24.55-135.18,98.54Z" transform="translate(659.77)"/><polygon class="cls-18" points="10.63 743.29 135.43 652.58 200.57 628.39 151.2 662.26 157.37 678.58 107.31 728.17 38.74 740.87 101.14 722.12 133.28 679.39 112.59 683.11 69.6 717.89 54.51 720.31 10.63 743.29"/><polygon class="cls-13" points="947.31 682.82 908.23 648.35 836.4 657.73 814.23 687.55 841.95 666.04 803.7 716.89 724.46 746.63 814.78 739.22 947.31 682.82"/><polygon class="cls-13" points="828.32 633.42 728.57 602.07 668.74 678.71 722.16 630.34 724.53 643.76 673.02 710.74 577.03 731.04 584.23 718.8 556.46 733.76 441.78 725.69 558.06 759.13 1080 746.63 650.46 741.74 710.51 726.99 783.42 674.31 828.32 633.42"/><polygon class="cls-11" points="828.32 633.42 786.99 620.43 795 632.61 775.96 636.61 690.49 719.52 528.1 760.01 601.56 749.22 710.51 726.99 783.42 674.31 828.32 633.42"/><polygon class="cls-12" points="1039.88 712.45 1074.17 746.63 756.22 765.8 1031.66 733.01 976.11 727.57 980.91 719.71 1039.88 712.45"/><polygon class="cls-18" points="947.31 682.82 1030.97 710.03 980.23 716.08 994.63 707.61 961.03 712.45 931.74 735.87 837.83 738.56 912.63 730.04 935.28 710.04 918.51 711.84 817.89 737.9 900.22 702.86 921.94 693.7 947.31 682.82"/><polygon class="cls-18" points="905.48 644.96 828.32 633.42 790.43 650.43 778.72 674.13 748.4 690.53 705.69 722.13 677.18 731.93 714.39 727.15 761.49 692.36 789.74 675.34 811.1 654.08 814.04 653.79 804 684.63 780 691.89 739.54 723.33 781.37 696.73 806.74 688.86 828 652.58 905.48 644.96"/><polygon class="cls-13" points="341.36 655.73 430.43 686.72 350.74 746.63 152.76 732.88 222.25 727.21 313.82 712.31 335.83 679.34 298.29 703.83 341.36 655.73"/><polygon class="cls-11" points="385.33 679.84 430.43 686.72 374.75 729.17 323.25 740.07 326.82 732.3 381.21 707.52 344.2 714.06 385.33 679.84"/><polygon class="cls-18" points="722.58 597.3 654.44 618.46 537.34 642.16 430.43 686.72 356.23 743.29 432.34 690.68 492.69 671.33 461.83 711.24 396.69 739.06 466.63 717.89 521.49 662.86 558.51 648.35 591.37 646.77 581.14 687.05 506.4 730.59 585.06 695.76 631.88 647.74 637.6 680.05 556.46 733.76 642.82 689.24 653.83 674.35 659.31 635.65 667.4 632.68 677.83 649.56 697.71 619.32 722.58 597.3"/><polygon class="cls-13" points="205.71 629.45 275.77 650.17 201.02 695.53 178.63 719.1 133.44 743.18 123.09 746.63 51.43 746.63 114.86 734.52 194.4 674.35 207.09 641.39 175.2 659.84 205.71 629.45"/><polygon class="cls-11" points="227.35 635.85 275.77 650.17 201.02 695.53 178.63 719.1 133.44 743.18 114.86 734.52 147.94 727.85 193.93 695.82 205.29 679.16 227.35 635.85"/><polygon class="cls-18" points="330.62 651.99 275.77 650.17 227.75 679.31 250.29 671.33 233.83 685.24 201.02 695.53 176.34 717.91 133.14 742.7 182.51 720.93 206.51 700.97 238.63 695.52 265.71 679.49 285.54 676.05 278.06 691.28 264.44 693.1 251.73 706 213.06 716.53 254.46 711.74 272.26 706.63 283.54 701.56 330.62 651.99"/><path class="cls-13" d="M-212.54,726.44c-93.21-14.51-372.88,33-447.23-17.23V948H419.76l.47-233C334.89,676.17,156.67,783.92-212.54,726.44Z" transform="translate(659.77)"/><path class="cls-19" d="M420.22,716.63H280.39c-105.51,17-261.79,45.79-492.93,9.81-88.08-13.71-342.64,27.94-433.13-9.81h-14.1L-524.59,765l64.31,12.06s61.73-10,72.33-10.94,55.1-.92,55.1-.92l118.67-14.68,86.88,18.36S-19.23,779-8.63,780.84s69.93,10.1,69.93,10.1l108.07-16.53L249.9,768,288,749.63l93.24-14.69,38.94-18.31Z" transform="translate(659.77)"/><path class="cls-12" d="M-212.35,781.94c288,62.8,477.26,25.38,632.58-.17v252.46h-1080V780.7C-477.72,724.46-364.89,748.67-212.35,781.94Z" transform="translate(659.77)"/><path class="cls-13" d="M-106.75,817.07c294.25,48.4,454,89.42,527,57.48v159.68h-1080V874.55C-483.89,802.17-293.4,786.36-106.75,817.07Z" transform="translate(659.77)"/><path class="cls-17" d="M-200,813.87c-92.69-13.73-400.43,21.42-459.77,51.1v214l1080,1.06V866C345.14,891.58,180.16,870.22-200,813.87Z" transform="translate(659.77)"/><path class="cls-18" d="M-143.77,1044.87S-7.46,969.66,208,952.26c72.83-5.88,162.51,7.45,162.51,7.45C233.37,889.45-8,951.19-143.77,1044.87Z" transform="translate(659.77)"/><path class="cls-12" d="M-143.77,1044.87c43.88-34.06,305.14-192.67,514.28-85.16C155.2,880.94-143.77,1044.87-143.77,1044.87Z" transform="translate(659.77)"/><path class="cls-12" d="M-542,993c218.2,87.29,638.61,32.31,331.3-86.51C-45.08,1007.61-388.95,1045.05-542,993Z" transform="translate(659.77)"/><path class="cls-18" d="M-623.27,980c32.92-25.55,192.42-112.87,342.38-64.95C-449.1,897-623.27,980-623.27,980Z" transform="translate(659.77)"/><path class="cls-12" d="M202.75,777.68C223.08,761.9,321.59,708,414.21,737.56,310.32,726.39,202.75,777.68,202.75,777.68Z" transform="translate(659.77)"/><path class="cls-11" d="M285.84,764c-27,17.35-156.75,72.49-273.92,21.21C144.66,814.48,285.84,764,285.84,764Z" transform="translate(659.77)"/><path class="cls-17" d="M-542.3,769.57c60.77-21.75,152.93-21.62,215.77,11.27C-418.2,755.75-542.3,769.57-542.3,769.57Z" transform="translate(659.77)"/><path class="cls-12" d="M-323.18,732.48c51.91-11,129.52-1.87,181.34,29.9C-218.2,733.86-323.18,732.48-323.18,732.48Z" transform="translate(659.77)"/><path class="cls-12" d="M16.83,936.41c-7.51,0-13.61,1.7-13.61,3.79S9.32,944,16.83,944s13.61-1.7,13.61-3.79S24.35,936.41,16.83,936.41Zm-3.29,3.37c-2.8,0-5.07-.64-5.07-1.44s2.27-1.43,5.07-1.43,5.08.64,5.08,1.43S16.35,939.78,13.54,939.78Z" transform="translate(659.77)"/><path class="cls-18" d="M32.31,1002.45c-5.28,0-9.56,1.19-9.56,2.67s4.28,2.66,9.56,2.66,9.57-1.19,9.57-2.66S37.6,1002.45,32.31,1002.45ZM30,1004.82c-2,0-3.57-.45-3.57-1s1.6-1,3.57-1,3.57.46,3.57,1S32,1004.82,30,1004.82Z" transform="translate(659.77)"/><path class="cls-18" d="M-241.14,901.43c-8.26,0-14.95,1.87-14.95,4.17s6.69,4.16,14.95,4.16,14.94-1.86,14.94-4.16S-232.89,901.43-241.14,901.43Zm-3.61,3.7c-3.08,0-5.58-.7-5.58-1.57s2.5-1.58,5.58-1.58,5.58.71,5.58,1.58S-241.67,905.13-244.75,905.13Z" transform="translate(659.77)"/><path class="cls-12" d="M-530.85,1001.19c-8.25,0-14.95,1.87-14.95,4.17s6.7,4.16,14.95,4.16,15-1.86,15-4.16S-522.59,1001.19-530.85,1001.19Zm-3.61,3.71c-3.08,0-5.58-.71-5.58-1.58s2.5-1.57,5.58-1.57,5.58.7,5.58,1.57S-531.38,1004.9-534.46,1004.9Z" transform="translate(659.77)"/><ellipse class="cls-12" cx="146.74" cy="1013.86" rx="5.58" ry="1.58"/><path class="cls-18" d="M-310.47,896.14c-3.08,0-5.58-.71-5.58-1.58s2.5-1.57,5.58-1.57,5.58.7,5.58,1.57S-307.39,896.14-310.47,896.14Z" transform="translate(659.77)"/><ellipse class="cls-18" cx="363.41" cy="902.31" rx="5.58" ry="1.58"/><ellipse class="cls-12" cx="689.76" cy="946.4" rx="5.58" ry="1.58"/><ellipse class="cls-18" cx="941.7" cy="973.65" rx="5.58" ry="1.58"/><path class="cls-18" d="M293.42,979.8c-4.5,0-8.14-1-8.14-2.3s3.64-2.29,8.14-2.29,8.13,1,8.13,2.29S297.91,979.8,293.42,979.8Z" transform="translate(659.77)"/><path class="cls-18" d="M-177.16,1066.56c-3.08,0-5.57-.7-5.57-1.57s2.49-1.58,5.57-1.58,5.58.71,5.58,1.58S-174.07,1066.56-177.16,1066.56Z" transform="translate(659.77)"/><path class="cls-12" d="M-164.68,1052.07c-5.26,0-9.53-1.2-9.53-2.69s4.27-2.69,9.53-2.69,9.54,1.2,9.54,2.69S-159.41,1052.07-164.68,1052.07Z" transform="translate(659.77)"/><path class="cls-12" d="M-577.29,978.18c-3.08,0-5.58-.7-5.58-1.57s2.5-1.58,5.58-1.58,5.58.71,5.58,1.58S-574.21,978.18-577.29,978.18Z" transform="translate(659.77)"/><path class="cls-11" d="M2220,636.51V764.88h360.24V629.25C2522.7,651.31,2341.72,638.27,2220,636.51Z" transform="translate(659.77)"/><path class="cls-12" d="M2059.08,642.38c-62.42-6.35-192.34,15.18-375.77,0-62.59-5.18-143.86,2.23-183.08-22v70.19h817.72V643C2254.38,647.86,2176.94,654.36,2059.08,642.38Z" transform="translate(659.77)"/><path class="cls-13" d="M1500.22,703.09h724.94l-29.88-17.18-71.54-13.78-29.26-17.22-61.79-6-82.92-15.49s-45.53,7.74-53.66,9.47-91,11.19-91,11.19l-66.67,17.22-91.05-13.78s-34.14,0-42.27-.86-55.5-10.25-55.5-10.25l-49.34,11.31h0Z" transform="translate(659.77)"/><polygon class="cls-11" points="2783.52 672.13 2754.25 654.91 2698.03 662.13 2658.06 694.91 2612.14 703.09 2681.44 699.67 2783.52 672.13"/><polygon class="cls-11" points="2692.46 648.88 2609.54 633.39 2569.39 671.79 2572.67 686.55 2424.44 703.09 2884.94 703.09 2623.62 693.67 2692.46 648.88"/><polygon class="cls-11" points="2855.06 685.91 2884.94 703.09 2483.24 703.09 2814.3 697.39 2855.06 685.91"/><polygon class="cls-11" points="2307.12 657.49 2398.17 671.27 2325.39 703.09 2205.96 703.09 2256.73 698.21 2285.14 683.37 2307.12 657.49"/><polygon class="cls-11" points="2209.34 646.38 2189.89 680.02 2160 703.09 2210.35 689.71 2264.84 656.63 2209.34 646.38"/><path class="cls-13" d="M2580.22,649.32l-4.43-.44-82.93-15.49s-45.52,7.74-53.65,9.47-91.06,11.19-91.06,11.19l-66,17.05v32h298.07Z" transform="translate(659.77)"/><polygon class="cls-11" points="3240 663.06 3201.16 694.91 3155.23 703.09 3224.53 699.67 3240 695.5 3240 663.06"/><polygon class="cls-11" points="3240 703.09 3240 696.31 3166.72 693.67 3235.56 648.88 3152.64 633.39 3112.49 671.79 3115.76 686.55 2967.53 703.09 3240 703.09"/><polygon class="cls-11" points="3240 699.41 3026.33 703.09 3240 703.09 3240 699.41"/><polygon class="cls-14" points="2160 771.46 2409.43 771.46 2382.24 737.19 2317.15 709.71 2290.53 675.35 2234.31 663.33 2160 624.68 2160 771.46"/><polygon class="cls-13" points="2310.44 703.53 2277.9 666.85 2227.37 658.13 2159.94 630.58 2183.7 657.33 2189.43 691.49 2160 717.69 2159.95 743.5 2310.44 703.53"/><polygon class="cls-15" points="2160 771.46 2409.43 771.46 2160 760.53 2160 771.46"/><polygon class="cls-15" points="2160 767.08 2160 771.46 2405.36 771.46 2381.43 740.05 2340.26 746.72 2336.91 753.94 2375.68 758.94 2160 767.08"/><polygon class="cls-16" points="2316.8 712.81 2375.2 737.82 2339.78 743.38 2349.83 735.6 2326.38 740.05 2305.93 761.58 2240.37 764.05 2292.59 756.22 2308.41 737.83 2296.7 739.49 2226.45 763.44 2283.93 731.23 2299.09 722.82 2316.8 712.81"/><polygon class="cls-16" points="2233.74 667.41 2207.28 683.04 2199.11 704.82 2177.95 719.9 2160 737.38 2160 745.81 2187.09 721.58 2206.8 705.94 2223.77 686.13 2287.6 678.02 2233.74 667.41"/><path class="cls-14" d="M2580.22,633.6c-9.82,3.68-39.48,14.85-45.63,17.7-7.4,3.44-82.84,22.33-82.84,22.33L2391.1,708l-82.84-27.49s-31.07,0-38.47-1.71-50.49-20.46-50.49-20.46l-44.89,22.56L2080,771.46h500.18Z" transform="translate(659.77)"/><polygon class="cls-16" points="2747.23 768.39 2834.35 685.02 2879.83 662.79 2845.36 693.91 2849.67 708.92 2814.73 754.5 2766.86 766.17 2810.42 748.94 2832.85 709.66 2818.41 713.08 2788.4 745.05 2777.87 747.27 2747.23 768.39"/><polygon class="cls-15" points="3240 760.34 3209.35 758.99 3235.81 753.41 3240 749.42 3240 686.5 3209.63 738.48 3142.63 757.14 3147.65 745.88 3128.26 759.64 3074.77 771.46 3240 771.46 3240 760.34"/><polygon class="cls-15" points="3240 767.25 3128.26 771.46 3240 771.46 3240 767.25"/><polygon class="cls-15" points="2978.11 687.91 3040.29 716.4 2984.66 771.46 2876 771.46 2922.19 761.72 2951.63 754.22 2974.25 709.62 2948.04 732.13 2978.11 687.91"/><polygon class="cls-16" points="3240 635.94 3196.66 653.66 3114.92 675.44 3040.29 716.4 2988.49 768.39 3041.62 720.03 3083.75 702.25 3062.21 738.93 3016.73 764.5 3065.56 745.05 3103.85 694.47 3105.65 702.92 3093.32 756.72 3154.05 682.49 3160.66 690.52 3130.88 715.32 3163.56 709.12 3188.38 690.15 3178.45 673.37 3206.58 662.07 3195.41 678.85 3226.87 654.45 3240 639.15 3240 635.94"/><polygon class="cls-15" points="2883.42 663.76 2932.32 682.81 2880.14 724.5 2864.51 746.16 2832.97 768.29 2825.74 771.46 2775.71 771.46 2819.99 760.33 2875.52 705.03 2884.38 674.74 2862.12 691.69 2883.42 663.76"/><polygon class="cls-16" points="2970.61 684.48 2932.32 682.81 2898.8 709.59 2914.53 702.25 2903.04 715.03 2880.14 724.5 2862.91 745.06 2832.75 767.85 2867.22 747.84 2883.97 729.5 2906.39 724.48 2925.3 709.75 2939.14 706.59 2933.92 720.59 2907.91 741.73 2897.38 758.4 2874.88 768.41 2899.26 762.84 2910.46 746.16 2937.75 730.04 2970.61 684.48"/><path class="cls-17" d="M2580.22,756.61l-38.94-37.29L2448,689.42,2409.9,652,2329.37,639,2221.3,605.32s-59.34,16.82-69.94,20.56-118.66,24.3-118.66,24.3l-86.89,37.37-118.67-29.9s-44.5,0-55.09-1.87-72.34-22.26-72.34-22.26l-64.3,24.55-135.19,98.54Z" transform="translate(659.77)"/><polygon class="cls-18" points="2170.63 753.27 2295.43 662.56 2360.57 638.37 2311.2 672.24 2317.37 688.57 2267.31 738.15 2198.74 750.85 2261.14 732.11 2293.28 689.37 2272.58 693.09 2229.6 727.87 2214.51 730.29 2170.63 753.27"/><polygon class="cls-13" points="3107.31 692.8 3068.22 658.33 2996.4 667.71 2974.22 697.54 3001.94 676.02 2963.69 726.87 2884.45 756.61 2974.77 749.21 3107.31 692.8"/><polygon class="cls-13" points="2988.32 643.4 2888.57 612.05 2828.74 688.69 2882.16 640.32 2884.53 653.75 2833.01 720.72 2737.03 741.03 2744.22 728.78 2716.45 743.75 2601.78 735.68 2718.05 769.12 3240 756.61 2810.45 751.72 2870.51 736.97 2943.41 684.29 2988.32 643.4"/><polygon class="cls-11" points="2988.32 643.4 2946.98 630.41 2954.99 642.59 2935.96 646.59 2850.48 729.5 2688.1 770 2761.56 759.2 2870.51 736.97 2943.41 684.29 2988.32 643.4"/><polygon class="cls-12" points="3199.88 722.43 3234.17 756.61 2916.22 775.78 3191.65 742.99 3136.11 737.55 3140.91 729.69 3199.88 722.43"/><polygon class="cls-18" points="3107.31 692.8 3190.97 720.01 3140.22 726.06 3154.63 717.59 3121.03 722.43 3091.73 745.86 2997.82 748.55 3072.63 740.03 3095.28 720.02 3078.51 721.83 2977.89 747.88 3060.22 712.84 3081.94 703.68 3107.31 692.8"/><polygon class="cls-18" points="3065.48 654.95 2988.32 643.4 2950.43 660.41 2938.71 684.11 2908.4 700.51 2865.68 732.11 2837.18 741.92 2874.39 737.14 2921.49 702.34 2949.74 685.33 2971.09 664.06 2974.04 663.77 2964 694.61 2940 701.87 2899.54 733.32 2941.37 706.71 2966.74 698.85 2988 662.56 3065.48 654.95"/><polygon class="cls-13" points="2501.36 665.71 2590.43 696.7 2510.74 756.61 2312.76 742.87 2382.24 737.19 2473.81 722.29 2495.82 689.32 2458.28 713.81 2501.36 665.71"/><polygon class="cls-11" points="2545.33 689.82 2590.43 696.7 2534.75 739.15 2483.25 750.05 2486.82 742.28 2541.21 717.5 2504.2 724.04 2545.33 689.82"/><polygon class="cls-18" points="2882.58 607.28 2814.43 628.44 2697.34 652.14 2590.43 696.7 2516.22 753.27 2592.34 700.66 2652.68 681.31 2621.82 721.22 2556.68 749.04 2626.63 727.87 2681.48 672.84 2718.51 658.33 2751.36 656.76 2741.14 697.03 2666.4 740.57 2745.05 705.74 2791.88 657.72 2797.59 690.04 2716.45 743.75 2802.82 699.22 2813.82 684.33 2819.31 645.63 2827.39 642.66 2837.82 659.54 2857.71 629.3 2882.58 607.28"/><polygon class="cls-13" points="2365.71 639.43 2435.76 660.16 2361.02 705.51 2338.63 729.08 2293.44 753.16 2283.08 756.61 2211.43 756.61 2274.85 744.5 2354.4 684.33 2367.08 651.38 2335.2 669.82 2365.71 639.43"/><polygon class="cls-11" points="2387.35 645.83 2435.76 660.16 2361.02 705.51 2338.63 729.08 2293.44 753.16 2274.85 744.5 2307.94 737.83 2353.93 705.8 2365.29 689.14 2387.35 645.83"/><polygon class="cls-18" points="2490.62 661.97 2435.76 660.16 2387.75 689.29 2410.28 681.31 2393.82 695.22 2361.02 705.51 2336.33 727.89 2293.13 752.68 2342.51 730.91 2366.51 710.96 2398.63 705.5 2425.71 689.47 2445.53 686.03 2438.05 701.26 2424.44 703.09 2411.73 715.99 2373.05 726.52 2414.45 721.72 2432.25 716.61 2443.54 711.54 2490.62 661.97"/><path class="cls-13" d="M1947.46,736.42c-93.22-14.51-372.89,33-447.24-17.22V958H2579.76l.46-233C2494.89,686.15,2316.67,793.9,1947.46,736.42Z" transform="translate(659.77)"/><path class="cls-19" d="M2580.22,726.61H2440.38c-105.5,17-261.78,45.8-492.92,9.81-88.09-13.71-342.64,28-433.13-9.81h-14.11L1635.41,775l64.3,12.06s61.74-10,72.34-10.94,55.09-.91,55.09-.91l118.67-14.69,86.89,18.36s108.07,10.09,118.67,11.93,69.93,10.1,69.93,10.1l108.07-16.52L2409.9,778,2448,759.61l93.24-14.69,38.94-18.31Z" transform="translate(659.77)"/><path class="cls-12" d="M1947.65,791.92c288,62.81,477.26,28.74,632.57,3.19v249.1h-1080v-258C1682.28,730,1795.11,758.66,1947.65,791.92Z" transform="translate(659.77)"/><path class="cls-13" d="M2053.25,827.05c294.24,48.4,453.94,89.42,527,57.48v159.68h-1080V884.53C1676.11,812.15,1866.6,796.35,2053.25,827.05Z" transform="translate(659.77)"/><path class="cls-17" d="M1960,823.86c-92.69-13.74-400.42,21.41-459.77,51.09v214h1080V884.53C2505.14,910.08,2340.15,880.2,1960,823.86Z" transform="translate(659.77)"/><path class="cls-18" d="M2016.22,1054.85s136.32-75.2,351.77-92.61c72.84-5.88,162.52,7.45,162.52,7.45C2393.37,899.44,2152,961.18,2016.22,1054.85Z" transform="translate(659.77)"/><path class="cls-12" d="M2016.22,1054.85c43.89-34.06,305.15-192.67,514.29-85.16C2315.19,890.92,2016.22,1054.85,2016.22,1054.85Z" transform="translate(659.77)"/><path class="cls-12" d="M1618,1003c218.2,87.29,638.61,32.32,331.3-86.51C2114.91,1017.59,1771.05,1055,1618,1003Z" transform="translate(659.77)"/><path class="cls-18" d="M1536.73,990c32.91-25.54,192.42-112.87,342.38-65C1710.9,907,1536.73,990,1536.73,990Z" transform="translate(659.77)"/><path class="cls-12" d="M2362.74,787.66c20.33-15.78,118.85-69.72,211.47-40.12C2470.32,736.38,2362.74,787.66,2362.74,787.66Z" transform="translate(659.77)"/><path class="cls-11" d="M2445.84,774c-27,17.34-156.75,72.48-273.92,21.2C2304.66,824.46,2445.84,774,2445.84,774Z" transform="translate(659.77)"/><path class="cls-17" d="M1617.69,779.55c60.78-21.75,152.93-21.62,215.78,11.27C1741.79,765.73,1617.69,779.55,1617.69,779.55Z" transform="translate(659.77)"/><path class="cls-12" d="M1836.81,742.46c51.92-11,129.53-1.87,181.34,29.91C1941.79,743.85,1836.81,742.46,1836.81,742.46Z" transform="translate(659.77)"/><path class="cls-12" d="M2176.83,946.39c-7.52,0-13.61,1.7-13.61,3.79s6.09,3.79,13.61,3.79,13.61-1.69,13.61-3.79S2184.34,946.39,2176.83,946.39Zm-3.29,3.37c-2.8,0-5.08-.64-5.08-1.43s2.28-1.44,5.08-1.44,5.08.64,5.08,1.44S2176.35,949.76,2173.54,949.76Z" transform="translate(659.77)"/><path class="cls-18" d="M2192.31,1012.43c-5.28,0-9.57,1.2-9.57,2.67s4.29,2.66,9.57,2.66,9.56-1.19,9.56-2.66S2197.59,1012.43,2192.31,1012.43Zm-2.31,2.37c-2,0-3.57-.45-3.57-1s1.6-1,3.57-1,3.57.45,3.57,1S2192,1014.8,2190,1014.8Z" transform="translate(659.77)"/><path class="cls-18" d="M1918.85,911.41c-8.25,0-14.94,1.87-14.94,4.17s6.69,4.16,14.94,4.16,15-1.86,15-4.16S1927.11,911.41,1918.85,911.41Zm-3.61,3.71c-3.08,0-5.57-.71-5.57-1.58s2.49-1.57,5.57-1.57,5.58.7,5.58,1.57S1918.32,915.12,1915.24,915.12Z" transform="translate(659.77)"/><path class="cls-12" d="M1629.15,1011.18c-8.26,0-15,1.86-15,4.16s6.69,4.17,15,4.17,14.95-1.87,14.95-4.17S1637.4,1011.18,1629.15,1011.18Zm-3.61,3.7c-3.08,0-5.58-.71-5.58-1.58s2.5-1.57,5.58-1.57,5.58.7,5.58,1.57S1628.62,1014.88,1625.54,1014.88Z" transform="translate(659.77)"/><ellipse class="cls-12" cx="2306.73" cy="1023.84" rx="5.58" ry="1.58"/><path class="cls-18" d="M1849.53,906.12c-3.08,0-5.58-.7-5.58-1.57s2.5-1.58,5.58-1.58,5.58.71,5.58,1.58S1852.61,906.12,1849.53,906.12Z" transform="translate(659.77)"/><ellipse class="cls-18" cx="2523.41" cy="912.29" rx="5.58" ry="1.58"/><ellipse class="cls-12" cx="2849.75" cy="956.39" rx="5.58" ry="1.58"/><ellipse class="cls-18" cx="3101.7" cy="983.63" rx="5.58" ry="1.58"/><path class="cls-18" d="M2453.41,989.78c-4.49,0-8.14-1-8.14-2.29s3.65-2.3,8.14-2.3,8.14,1,8.14,2.3S2457.91,989.78,2453.41,989.78Z" transform="translate(659.77)"/><path class="cls-18" d="M1982.84,1076.54c-3.08,0-5.58-.7-5.58-1.57s2.5-1.58,5.58-1.58,5.58.71,5.58,1.58S1985.92,1076.54,1982.84,1076.54Z" transform="translate(659.77)"/><path class="cls-12" d="M1995.32,1062.06c-5.27,0-9.53-1.21-9.53-2.7s4.26-2.69,9.53-2.69,9.54,1.21,9.54,2.69S2000.59,1062.06,1995.32,1062.06Z" transform="translate(659.77)"/><path class="cls-12" d="M1582.71,988.16c-3.08,0-5.58-.7-5.58-1.57s2.5-1.58,5.58-1.58,5.57.71,5.57,1.58S1585.79,988.16,1582.71,988.16Z" transform="translate(659.77)"/><g id="Cover"><path class="cls-17" d="M408,1076.21l-6.59-34.81S406.5,879.08,408,877.24s5.46-9.09,5.46-9.09l14.82-5.6s6.84,55.24,7.2,55.67-3.66,102.29-3.66,102.29,5.18,28.22,3.69,31.15S424.08,1080,424.08,1080H408.33Z" transform="translate(659.77)"/><path class="cls-12" d="M418.9,782s-1.78,12.08-1.78,14.28-.18,32.06,0,32.79.59,18,.85,19.05.93,18,.93,18l5.21-2-1.49-46.23-.78-36.62Z" transform="translate(659.77)"/><path class="cls-13" d="M418,716.63l-2.93,9.84-.71,20.16S416.59,765.85,417,767s1.86,15,1.86,15l5.21-1.41S425.92,745,425.92,743s-3.12-14.29-3.3-15-2.2-9.34-2.2-9.34l-.2-2Z" transform="translate(659.77)"/><path class="cls-14" d="M419.19,624s-3.67,11.58-3.53,13.23.91,35.55.91,37.38.78,20,.85,22.17.12,5.86,0,9,0,8,0,8l3.92,1.12s1.32-10.68,2.13-14.23,1.35-51.54,1-53.92-2.75-15-2.93-16.12S419.19,624,419.19,624Z" transform="translate(659.77)"/><path class="cls-12" d="M420.23,619.27s.84.92.81,1.14a10.45,10.45,0,0,0,0,1.77,6.29,6.29,0,0,1,.11,1.51,5.65,5.65,0,0,1-.16.82c0,.16-.57.6-.57.6s-.5-1.63-.5-1.7-.19-2.95-.12-3.32a3.12,3.12,0,0,1,.31-.78" transform="translate(659.77)"/></g><g id="Cover-2" data-name="Cover"><path class="cls-17" d="M1488.21,1077.25l-6.6-34.81s5.13-162.32,6.6-164.15,5.46-9.1,5.46-9.1l14.82-5.59s6.83,55.23,7.2,55.66-3.66,102.3-3.66,102.3,5.17,28.21,3.68,31.14-11.38,28.34-11.38,28.34h-15.75Z" transform="translate(659.77)"/><path class="cls-12" d="M1499.14,783s-1.77,12.08-1.77,14.28-.18,32.06,0,32.8.59,17.95.85,19,.92,18,.92,18l5.22-2-1.49-46.23-.78-36.61Z" transform="translate(659.77)"/><path class="cls-13" d="M1498.29,717.67l-2.94,9.84-.7,20.16s2.19,19.23,2.64,20.33,1.85,15,1.85,15l5.22-1.41s1.8-35.61,1.8-37.62-3.11-14.29-3.29-15-2.2-9.35-2.2-9.35l-.2-2Z" transform="translate(659.77)"/><path class="cls-14" d="M1499.44,625.05s-3.67,11.58-3.54,13.24.92,35.54.92,37.37.78,20,.85,22.17.11,5.86,0,9,0,8,0,8l3.91,1.12s1.33-10.69,2.13-14.23,1.35-51.54,1-53.92-2.75-15-2.93-16.13S1499.44,625.05,1499.44,625.05Z" transform="translate(659.77)"/><path class="cls-12" d="M1500.47,620.31s.85.92.82,1.15a8.62,8.62,0,0,0,0,1.76,6.89,6.89,0,0,1,.11,1.51,7.72,7.72,0,0,1-.16.83c0,.16-.57.59-.57.59s-.51-1.62-.51-1.69-.18-3-.11-3.32a3.08,3.08,0,0,1,.31-.79" transform="translate(659.77)"/></g></g><g id="Caravan"><path class="cls-20" d="M1740.82,956.35c2.48-12.21-1.59-13.91-3.69-20s-11.74-30.39-10.46-40.09c.56-4.26-8.54-2-9.73.54s.18,8.68,3.1,9.36,5.12,5.77,6.83,10.85,5.84,28.51,6.05,33.94-18-41-18.64-46.22c-1.56-13.23-1.34-14.34-5.65-14s-7.17,1.15-3.6,9.11c1.28,2.85,8.17,18.53,11.57,28.71s7.08,28.16,7.16,32.57-5.22,24.43-1.18,33.6c-15-10.52-17.37-14.93-43.77-12.9-2.56-11.53-3.23-16.62-3.23-22.39s-2.6-42-4.06-49.12.79-17.61-1.06-20-6.57,4.72-7.39,4.38c.93-2.72-16.38-.27-10,5.5a28.06,28.06,0,0,1,6.46,10c1.56,4.07,7.15,21,6.52,27.82a46.92,46.92,0,0,0,1,15.27c.89,4.75.76,28.84-.64,29.86s-3.8,6.11-4.18,7.12c-8.66-3.39-34.37-13.57-38.12,31.56-5,2.57-6.86,6.3-9.76,5.83-11.79-12-21-16.31-29-16.31a22.46,22.46,0,0,0-5.41.68c.77-16.41,8.7-49.86,10.88-53.36,2.3-3.68-2.57-57.33-.41-69.08.85-4.64-10.53,1.59-10,2.69,4.09,5.79,4.69,19,6,36.91s-7.18,32.11-13.81,46.85c-3.2-3.68-3.43-36.85-7.81-41.58s-16.5-37.61-14.85-40.5c2.82-5-16-2.65-9.13,1.64,3.34,2.07,18,37.8,19.27,44.65s4.88,21.58.65,29-1.91,18.95-2.7,33.16c-4.62-7.89-42.88-19.47-44.35-19.47s1.61-23.17,4.08-29.48-2.16-19.48-2.09-28.43.63-31.18-1-31.56c-4.64-1-12.46-.87-9.75,1.24,3.45,2.68,7.13,40.32,4.73,47.69s-1.18,8.95-5.77,36.33c-5.81-4.22-22.32-34.22-26.06-45.28s-7.62-36.16-6.51-37.45c4.66-5.42-14.06-2.86-9.41,1.16,6.9,6,11.9,41.56,11.78,50s17.71,36.32,17.71,36.32.58,7.9-3.48,12.64-6.8-2.57-17.4-2c-26,1.29-23.58,20.87-35.65,37-1.06,1.42-4.83,1.47-8.37,1.61-14.57-24.53-31.19-37.21-49.47-37.64h-.95c-9.91,0-19.44,3.63-28.13,9,2.74-9,4.87-18.4,8-27,4.38-12.06,13.3-20.17,17.11-32,1.53-4.76.62-8.86,1.46-13.75.66-3.77,9.16-33.75,6.92-36.5-1.86-2.28-6.12,3.53-10,5.93-2.41,1.5,4,2.52,3.89,2.18,1,3.45-.68,10.34-1.55,14.18-2.18,9.54-6,21.26-10.93,29.32-5.87,9.54-9.3,14.76-16,22.86-5,6-7,15.93-9.64,15.13-1-.3-5.25-15.45-4.11-23.68.64-4.59.27-17.45,1.53-22,1-3.78-4.77-15.12-7.46-19.85-10.93-19.24,2.46-23.47-14.81-20.58-2.12.36,6.25,6.07,8.57,16.24,2.16,9.53,6.39,20.13,5.61,31.24-1.54,22.26-4.72,36.5-9.27,35.82-2.17-3.47-9.52-5.28-15.83-5.37-5.22-.07-15.29,7.43-19.61,5.22-3.39-1.74,9.28-33.86,10-43.74,2-28,5.55-38.83,3.88-38.82-16.11,0-2.65-1.45-6.18,16.53-1.89,9.59-3.61,20.52-7,29.3-4.44,11.56-9.92,33.41-12.27,33.37-3.55-2.2-3.22-10.31-5.83-14.14-7.57-11.08-5.27-16.34.41-33,9-26.39,24.91-37.33,5.66-32.52-.88,14.93-1.26,10.89-4.91,21.39-3.35,9.62-12.28,22.36-14.33,31.78-1,4.84,7.31,22.7,8,35,.37,6.42-4.27,9.88-5.16,9.18-5.59-4.41-12.32-5.23-19.3-4.07-13.29,2.22-21,11.81-31.51,25.19-3.13,4-6.6,5.78-10.08,6.34-15.87-9.8-38-18-53.91-23.24,3.64-5,6.85-10.25,6.83-16.19,0-5.48-5.09-9.41-5.64-14.88-.81-8.14,3.74-17.71,5.85-25.54.37-1.36,9.12-34.9,9.12-34.9-2.07-3.75-8.92,1.36-14.62,1-7.71-.51-15.13,3.55-19.88,3.85-.51,8.67-5.38,19.88-5.72,29.64-.14,4.35,1.63,15.33-.67,19.16-2.69,4.48-6.86,2.43-11.59,5.75,6.69,8.48,18.89,35.75,16.61,46.9-.91,4.48-4.72,8.21-1,12.31,4.18,4.65,10.73.92,12.5-4.63.91-2.86-2-5.53-1-8.22,1.66-4.46,5.29-8.83,8.69-13.41,15.54,5.08,37.18,13.08,52.9,22.59a24.85,24.85,0,0,1-10.84-2.36c.14,5.94-2.19,5.53-3.76,9.24-2,4.71-3.67,4.8-.25,8.95,2,2.48,6.27,3,8.84,4.51,4.14,2.37,9,3.31,11.48,10,3.05,1.62,5.05-3.22,6.19-4.68,8.15-10.33,15.66-26.43,26.71-29.31,8.39-2.19,13.38,5.36,17.34,13.95,4.05,8.77,3.43,19.8,12,22.27,5.87,1.7,15.45-.21,20,4,6.33,5.93,5.9,15.13,15.81,11.91,13.92-4.51,18.46-22.76,30.29-32.44,6.33-5.17,14-14.08,17.94-22.72a91,91,0,0,0,3.63-9.45c9-5.83,18.85-9.85,29.15-9.85l.93,0c17.42.41,33.34,12.3,47.36,35.35-2.45.18-4.45.57-4.78,1.77-.87,3.16-4.06,5.06-2.93,8.58,1.84,10,12.71,6,24.12,18.35,3.32,3.58,6-.58,8.76-8.48s2.48-4.22,10-19c7.82-15.35,24.25-9.48,36,6.32s27.24,16.32,31.94,15.26,8,14.74,12.51,10.53,10.29-4.74,15.19-17.9c20.08-6.31,24.69-18.42,24.67-33.69,0-.28,0-.59,0-.89,8.44-2.33,18.14.08,31.3,12.72-1.83-1.12-3.15-2-3.88.62-1,3.73.75,9.5,5.85,11.2a50.52,50.52,0,0,1,12.14,6.44c3.09,2,6.29,1,8,2.38s2.13-1.36,2.43-6.79,3.77-29.52,14.54-29.52,20.39,24.09,30.84,27.49,10.25,21.15,25.42,19.56,17-11.08,22.56-15.49,20.09-13.57,17.65-31.56S1738.34,968.57,1740.82,956.35Z" transform="translate(659.77)"/><path class="cls-20" d="M1823.17,941.66c.68-4.3,8.38-33.15,2.41-40.94-3.23-4.21-6.62,4.18-12,2.64-7-2-15.76,7.13-21.08,9.58,2.81,5,2.87,9.58,1.88,14.9-1.07,5.82-5.66,12.41-3.51,18.91,3.9,11.76,11.18,23.18,15.27,35.11,1.14,3.31,1.62,6.51,3.23,9.68,1.8,3.54,4.68,6.08,4.87,10s-2.7,7.31,2,11c5.33,4.13,11,.82,11.35-4.12.21-2.55-3.39-4.93-3.07-7.32.62-4.47,6-4.88,5.52-10.52-1-12.42-4.9-24.52-7-36.9A37.38,37.38,0,0,1,1823.17,941.66Z" transform="translate(659.77)"/><path class="cls-20" d="M1885.36,990.56c-1.22-15.67-5-29.91-9.63-45.48-2-6.52-4.78-30.38-7.43-35-2.28-4-30.15-1.09-34-1.2,0,0-2.18,7.81,3,20,4.26,10.09,11.49,19.3,16.61,29.08,5.69,10.88,8.61,21.9,12.72,33.06,1.39,3.8,2.44,5.48,2.82,9.35.42,4.21-3.11,8.08,2.07,12.11s11,.82,11.35-4.12c.2-2.55-3.39-4.93-3.07-7.32C1880.46,996.61,1885.8,996.2,1885.36,990.56Z" transform="translate(659.77)"/><path class="cls-21" d="M1652.52,895.78c2-1.82,4.62-1.5,5.65-5.09s4.36-18.55,2.82-24.53a36.6,36.6,0,0,1-1-13.47c.26-4.18-3.08-25.43-4.62-26.32s-4.61-5.39-5.12-6.29c-8.21,3-32.57,12-42.32-27.82-5.64-2.39-7.94-6-11-5.09s-4.88,3.89-6.41.6a7.11,7.11,0,0,1,4.36-9.87,44.79,44.79,0,0,0,11.28-5.68c2.82-1.8,6.15-.9,7.69-2.1s2.31,1.2,3.34,6,7.69,26,18.46,26,17.18-21.24,27.18-24.23,7.44-18.65,22.82-17.25,18.47,9.77,24.62,13.66,21.9,12,21.85,27.82-2.87,37.1,1.23,47.87.26,12.27-1,17.65-5.39,23.77-5.39,27.53-7.44,6-9,3.75-1.54-4,1.28-4.65,4.36-5.09,5.38-9.57,2.05-25.13,1.54-29.92-11.28,30-12,34.44-2,6.25-6.41,5.95-5.39-5.09-2.57-6,5.65-5.68,7.7-14.66,3.33-24.83,2.82-28.72-8.47-21.54-5.64-29.62c-13.6,9.28-15.39,13.17-42.06,11.37-1,10.18-1,14.66-.26,19.75s1.29,27.82.77,34.1,3.34,8.68,1.8,10.78-5.39,2.69-6.16,3C1665.35,897.57,1646.88,900.86,1652.52,895.78Z" transform="translate(659.77)"/><path class="cls-21" d="M1590.47,889.73c-.37-9-1.47-37.23-4-40.22s-13.94-33-15-45.36-6.6-22.26-27.14-27.39c-5.87-10.7-11.74-11.13-16.51-14.55s-7,9.41-11.73,8.56-20.18-.43-30.82,12.41-26.63,17.61-35.58,5.13c-8.58-12-8.07-9-11.37-15.4s-6.32-9.81-9.38-6.89c-10.51,10-21.67,6.78-22.77,14.91-.87,2.86,2.45,4.41,3.55,7s13.27.58,15.54,2.83c13.25,13.08,12.31,29,38.36,30,10.64.43,12.85-5.51,17.25-1.66s4.4,10.28,4.4,10.28-15.77,22.68-15,29.52-1.47,32.1-7,34.24-2.2,6.42,5.13,5.56,4-19.68,7-28.67,17.24-33.38,22.74-36.8c6.61,22.25,5.51,23.53,8.44,29.52s5.13,29.1-.37,30,2.94,4.71,7,3,1.47-11.56.74-18.83,2.93-18,0-23.11-7.71-24-6.24-24,38.88-9.41,42.92-15.83c1.83,11.55.36,21,5.13,27s2.2,18,1.47,23.54-8.44,24.82-15.77,27.38,2.2,6.85,7,4.28,9.9-23.1,13.93-27,1.84-30.81,4.77-33.8c7.71,12,17.24,23.53,17.24,38.08s.37,12.41-3.3,17.12S1590.63,893.56,1590.47,889.73Z" transform="translate(659.77)"/><path class="cls-21" d="M1371.55,860.05c3.62,6.27,5.5,15.39,6.1,22.83.25,3,.84,8.35-.78,11,.16-.26-8.15,6.54-5.36,6.7s7.27.64,10.11-.39c1.31-.48-.87-25.48-.9-28.42,0-3.81,1.54-7,.79-10.71-1.85-9.23-9.44-15.54-11.84-24.93-2.54-9.94-2.55-21.37-6.11-30.89-2.51-6.72-8.73-13.66-14.2-17.68-10.24-7.54-11.78-21.75-24.95-25.27-9.38-2.51-10.47,4.66-17.77,9.28-5.24,3.31-14.51,1.82-20.66,3.15-9,1.93-10.14,10.52-15.63,17.34s-11.61,12.57-19.64,10.87c-10.58-2.25-15.43-14.79-21.88-22.83-.91-1.13-2.11-4.91-5.43-3.64-3.62,5.19-8.59,5.92-13.12,7.77-2.82,1.15-7.14,1.58-9.58,3.51-4.1,3.23-2.44,3.3-1.22,7,1,2.89,3.35,2.57,2.24,7.2,7.24-2.27,16.3-3.69,21.85,3.23,8.35,10.42,14.44,17.89,27.37,19.61,6.78.91,13.66.27,20-3.17,1-.55,5.08,2.15,3.64,7.15-2.75,9.58-14,23.49-13.79,27.26.5,7.33,7.33,17.25,9.09,24.75,1.93,8.17,2.24,3.31.67,14.93,18.48-9,5.07-3.05.42-23.6-2.94-13-4.37-17.07,5-25.7,3.24-3,4.25-9.3,8.16-11,2.36,0,4.24,17,6.77,26,1.93,6.83,1.85,15.34,2.16,22.81.58,14-13.55,17.18,1,15.52,4.63-.53,2.31-11.09,5-32.87.94-7.7-6.44-32.71-2.77-34.06,4.68-1.73,13.52,4.11,18.76,4.06,6.32-.07,14-1.48,16.7-4.18,4.66-.53,5.5,10.55,3.38,27.89-1,8.65-7,16.9-10.75,24.32-4,7.92-14,13-11.95,13.28,16.8,2.25,4.8-1.67,18.91-16.66,3.46-3.68,11.14-12.5,10.72-15.45-.51-3.56,2-13.58,2.09-17.15.22-6.41,6.94-18.21,8-18.44,2.8-.62,3.15,7.12,7.15,11.78C1364.68,848.55,1367.25,852.62,1371.55,860.05Z" transform="translate(659.77)"/><path class="cls-21" d="M1812.35,913.64c-6.57,2.48-14,2.37-19.86-.7,1.8-6.2,1.49-5.78-.58-12.41-2.25-7.26-8.18-15.47-7.34-23.58,1.51-14.66,6.48-28.88,8.15-43.75.47-4.13.3-8.12,1.27-12.07,1.08-4.41,3.45-7.58,2.84-12.49s-4.18-9.11-.22-13.65c4.49-5.16,10.79-1,12.19,5.13.72,3.17-2.4,6.14-1.6,9.12,1.53,5.57,7,6.09,7.66,13.11,1.55,15.49.07,30.56.46,46a60.46,60.46,0,0,0,2.59,14.95c1.55,5.36,10.42,14,6.88,20.09A24.06,24.06,0,0,1,1812.35,913.64Z" transform="translate(659.77)"/><path class="cls-21" d="M1142.38,914.53c-7.74.57-16.63-1-21.36-1.35.07-9.62-4.15-18.94-3.83-29.77.14-4.83,2.64-17,.6-21.26-2.39-5-6.7-2.69-11.21-6.38,7.26-9.41,21.28-39.66,19.75-52-.62-5-4.18-9.1-.22-13.65,4.49-5.15,10.79-1,12.19,5.13.72,3.18-2.4,6.14-1.59,9.13,2.9,10.58,14.91,20.7,14.09,33.75-.39,6.07-5.72,10.44-6.63,16.5-1.35,9,2.55,19.65,4.14,28.34.28,1.51,6.18,27.26,7.21,25.42C1153.2,912.51,1148.1,914.11,1142.38,914.53Z" transform="translate(659.77)"/><path class="cls-21" d="M1867,912.73c-2.76,3.83-13.85,2.76-17.63,2.9-11.35.41-17.39-1.22-14.71-16.45,2.22-12.58,7.59-24.06,10.72-36.25,3.49-13.56,4.18-27.29,6-41.2.63-4.74,1.33-6.83.93-11.65-.44-5.25-4.75-10.08-.38-15.09s10.79-1,12.18,5.13c.72,3.17-2.39,6.14-1.59,9.12,1.53,5.57,7,6.09,7.66,13.11,2,19.53,1.1,37.28-.42,56.68C1869.13,887.17,1871.7,906.11,1867,912.73Z" transform="translate(659.77)"/><path class="cls-22" d="M1712.23,819.8a9.22,9.22,0,0,0-.41,2.09,12.51,12.51,0,0,1,.41-4.9l1.12-3.19,1.29-.88Zm-51.76,74.36c.71-2.47,3.62-14.72,3.27-22.47a104.08,104.08,0,0,1-3.27,19.66,7.19,7.19,0,0,1-3.22,4.42,22.91,22.91,0,0,0,2.86-.66A9.44,9.44,0,0,0,1660.47,894.16ZM1121,868.73c-.09,2.7-.41,5.8-.82,9.24-.26,2.16-.51,4.21-.55,5.51,0,.69,0,1.36.05,2,.09-1.27.28-2.94.5-4.73A78,78,0,0,0,1121,868.73Zm155.91-36.48a9.23,9.23,0,0,0,.28-4.09,10.82,10.82,0,0,1-.28,1.27c-1.53,5.34-5.35,11.6-8.73,17.14-2.08,3.4-4.92,8.06-5,9.3a13.25,13.25,0,0,0,.28,1.87,77.63,77.63,0,0,1,4.69-8.36C1271.51,843.85,1275.33,837.58,1276.86,832.25ZM1146,883.36c-.42-2.32-1-4.79-1.65-7.4-1.22-5.07-2.56-10.63-2.77-16-.27,6.22,1.33,12.87,2.77,18.83.63,2.61,1.23,5.07,1.65,7.39.15.84,1.61,7.28,3.19,13.47,1.12,4.42,1.95,7.43,2.63,9.5a6.69,6.69,0,0,0,.77-.73,91.9,91.9,0,0,1-3.4-11.59C1147.56,890.63,1146.1,884.2,1146,883.36Zm-17.19-76.08c-.79,13.87-12,37.79-18.75,47.81a12.29,12.29,0,0,0,1.47.52C1118.76,843.74,1129.56,819.6,1128.76,807.28Zm-.84-12.81a3.75,3.75,0,0,1,2.79-1.51c2,0,4.08,2.06,5,4.74a3.91,3.91,0,0,0,.26-2c-.7-3.09-3.06-5.6-5.25-5.6a3.73,3.73,0,0,0-2.79,1.5,4.66,4.66,0,0,0-1.05,4.63A5,5,0,0,1,1127.92,794.47ZM1837,902.41c1.28-7.2,3.67-14.23,6-21,1.66-4.88,3.38-9.92,4.7-15,2.53-9.83,3.62-19.88,4.68-29.61.44-3.94.87-7.9,1.39-11.87.15-1.14.31-2.12.45-3a34.18,34.18,0,0,0,.58-7.76,42.68,42.68,0,0,1-.58,4.94c-.14.91-.3,1.89-.45,3-.52,4-1,7.93-1.39,11.88-1.06,9.72-2.15,19.77-4.68,29.61-1.32,5.12-3,10.16-4.7,15-2.32,6.8-4.71,13.83-6,21a30,30,0,0,0-.54,7.25A39.44,39.44,0,0,1,1837,902.41Zm-570.24-35.62c.33.73.66,1.45,1,2.18a54.35,54.35,0,0,1-1.37-8.08A24.79,24.79,0,0,0,1266.77,866.79Zm538.07-57.3a6.9,6.9,0,0,0,.05,3.19,14.33,14.33,0,0,0,4.18,6.5c1.73,1.76,3.1,3.16,3.4,6.22.46,4.61.64,9.23.69,13.82a162.49,162.49,0,0,0-.69-16.63c-.3-3.07-1.67-4.46-3.4-6.23a14.29,14.29,0,0,1-4.18-6.49A2.47,2.47,0,0,1,1804.84,809.49Zm48.91-10.11a3.75,3.75,0,0,1,2.78-1.51c2,0,4.09,2.06,5,4.74a3.82,3.82,0,0,0,.25-2c-.7-3.09-3-5.6-5.25-5.6a3.75,3.75,0,0,0-2.78,1.51,5.11,5.11,0,0,0-1.17,4.91A5.2,5.2,0,0,1,1853.75,799.38Zm6.42,10.11a6.9,6.9,0,0,0,0,3.19,14.33,14.33,0,0,0,4.18,6.5c1.73,1.76,3.09,3.16,3.4,6.22.69,6.89,1,13.52,1.11,20.21,0-7.65-.33-15.17-1.11-23-.31-3.07-1.67-4.46-3.4-6.23a14.29,14.29,0,0,1-4.18-6.49A2.47,2.47,0,0,1,1860.17,809.49Zm-142.08,40.34a155.32,155.32,0,0,1-3,25.24c-2.2,9.62-5.33,15.15-9.21,16.28a.94.94,0,0,0,.21.63,2.12,2.12,0,0,0,1.69.8l.47,0a15.3,15.3,0,0,0,3.69-5.25c.66-2.75,2.25-8.13,3.89-13.39C1717.31,866,1718.26,854.83,1718.09,849.83Zm-125.46-64.36a4.42,4.42,0,0,1,2.9-2.46,44.48,44.48,0,0,0,11.37-5.63l.5-.32a8.18,8.18,0,0,1,3.66-.95,12.39,12.39,0,0,0,2.78-.51c.27.83.58,2.11,1,3.82.06.28,6.63,27.93,20.81,27.93,7,0,12-6.79,16.82-13.35,3.55-4.84,7.22-9.84,11-11,5.09-1.52,7.46-5.65,9.56-9.29,2.56-4.44,4.57-8,10.71-8,.52,0,1.07,0,1.65.08,10.18.93,14.32,5,18.32,8.87a32.14,32.14,0,0,0,5.23,4.43c.54.35,1.16.72,1.84,1.13,6.47,4,18.38,11.23,18.85,23.84,0-.65,0-1.35,0-2,0-13.13-12.28-20.63-18.89-24.66l-1.84-1.13a33.17,33.17,0,0,1-5.23-4.43c-4-3.91-8.14-7.95-18.32-8.87a16,16,0,0,0-1.65-.08c-6.14,0-8.15,3.5-10.71,7.94-2.1,3.65-4.47,7.78-9.56,9.3-3.83,1.14-7.5,6.15-11,11-4.81,6.57-9.79,13.35-16.82,13.35-14.18,0-20.75-27.64-20.81-27.92-.37-1.72-.68-3-1-3.83a12.39,12.39,0,0,1-2.78.51,8.18,8.18,0,0,0-3.66,1l-.5.32a44.79,44.79,0,0,1-11.37,5.64,4.42,4.42,0,0,0-2.9,2.46,5.17,5.17,0,0,0-.2,3.45A4.34,4.34,0,0,1,1592.63,785.47ZM1791,858.16a201.28,201.28,0,0,0,4.11-21.88c.17-1.5.26-3,.34-4.46a40.84,40.84,0,0,1,.87-7.3,33.53,33.53,0,0,1,1.23-3.75c1-2.69,2-5.48,1.7-9.13a24.14,24.14,0,0,1-1.7,6.32,33.37,33.37,0,0,0-1.23,3.74,40.84,40.84,0,0,0-.87,7.31c-.08,1.47-.17,3-.34,4.45a200.83,200.83,0,0,1-4.11,21.88,187.15,187.15,0,0,0-4,21.86,13.91,13.91,0,0,0,0,2.66A190.43,190.43,0,0,1,1791,858.16Zm7.42-58.78a3.75,3.75,0,0,1,2.79-1.51c2,0,4.08,2.06,5,4.74a3.82,3.82,0,0,0,.25-2c-.69-3.09-3-5.6-5.24-5.6a3.75,3.75,0,0,0-2.79,1.51,4.66,4.66,0,0,0-1.05,4.63A4.94,4.94,0,0,1,1798.42,799.38Zm-664.08,5.21a6.86,6.86,0,0,0,.05,3.18c1.23,4.49,3.81,8.65,6.54,13.05,3.42,5.49,6.93,11.14,7.44,17.29a1,1,0,0,0,0-.17c.46-7.19-3.57-13.67-7.47-19.94-2.73-4.4-5.31-8.55-6.54-13A2.52,2.52,0,0,1,1134.34,804.59Zm338.3,58.71c-.18,9.79-2.17,29.6-8.58,32.1a4.36,4.36,0,0,0-.86.41,7.11,7.11,0,0,0,3.12.62c2.57-3.15,4.18-9.5,5.14-16a61.83,61.83,0,0,1,.92-8.57C1472.62,868.38,1472.69,865.34,1472.64,863.3Zm69.5,30.83a8.35,8.35,0,0,0,2.59.42,6.36,6.36,0,0,0,1.35-.14,28.18,28.18,0,0,0,4.07-4.85c1.36-2.79,2.77-6.33,3.87-9.09.45-1.12.88-2.21,1.31-3.25C1552.11,884.48,1547.34,892.28,1542.14,894.13Zm-30.25-13.26c.06,4.57-.41,8.79-1.72,11.29a6.64,6.64,0,0,1-1,1.47,8.69,8.69,0,0,0,1.45.13h.09a30.7,30.7,0,0,0,1.2-10.06l.18,1.24c.25,1.75.63,4.43.77,6.76.23-2.53-.41-7-.77-9.57Zm-39.35-22.2c0,.39.07.93.09,1.57.91-5.27,8.72-18.3,14.54-26.66l.43-.62v-.75a15.71,15.71,0,0,0-.15-1.85l-.28.41C1480.83,839.88,1472.1,854.56,1472.54,858.67ZM1666,883.93s0,.08,0,.11a15.77,15.77,0,0,0,1.23,7.52,3.5,3.5,0,0,0,.89-.63,12.19,12.19,0,0,0-.5-1.27A17.49,17.49,0,0,1,1666,883.93Zm-81.43-32.86c-3.06-3.57-14.47-33.85-15.61-46.71-.89-10.06-4.58-20.08-25.33-25.27l-1-.26-.51-.92c-4-7.3-7.87-9.33-11.62-11.3a33.31,33.31,0,0,1-4.17-2.45l-.18-.12c-.65.27-1.94,2.26-2.63,3.33-1.77,2.74-3.77,5.84-7.08,5.84a5.43,5.43,0,0,1-.88-.08,18,18,0,0,0-3.21-.24c-3.65,0-16.24.86-25.33,11.82-6.89,8.32-15.83,13.28-23.9,13.28-6.24,0-11.59-2.86-15.48-8.28a108.42,108.42,0,0,0-7.31-9.37,24.1,24.1,0,0,1-4.24-6.34c-3.38-6.56-4.92-6.64-5-6.64s-.29.08-.61.39c-5.39,5.13-10.82,7-15.18,8.49-4.91,1.68-6.52,2.44-6.87,5l0,.2-.06.19c-.09.29,0,.59.45,1.16.73-1.61,2.53-2.38,6.51-3.74,4.36-1.5,9.79-3.36,15.18-8.49.32-.31.53-.39.61-.39s1.6.07,5,6.64a24.45,24.45,0,0,0,4.24,6.34,108.42,108.42,0,0,1,7.31,9.37c3.89,5.41,9.24,8.28,15.48,8.28,8.07,0,17-5,23.9-13.29,9.09-11,21.68-11.81,25.33-11.81a19.5,19.5,0,0,1,3.21.23,4.5,4.5,0,0,0,.88.08c3.31,0,5.31-3.1,7.08-5.83.69-1.08,2-3.07,2.63-3.34a1.64,1.64,0,0,0,.18.12,34.68,34.68,0,0,0,4.17,2.46c3.75,2,7.62,4,11.62,11.3l.51.92,1,.25c20.75,5.19,24.44,15.21,25.33,25.27,1.14,12.86,12.55,43.14,15.61,46.72.69,1.13,2.11,7.43,3.34,35.77,0,0,.09,0,.11-.08l0-.45C1586.8,858.83,1585.32,852.23,1584.61,851.07Zm231,32.89a62.19,62.19,0,0,1-2.68-15.55c-.06-2.28-.05-4.55,0-6.82,0,3.19,0,6.41,0,9.64a62.12,62.12,0,0,0,2.68,15.54,30.24,30.24,0,0,0,3.46,6.74c1.61,2.62,3.34,5.46,3.92,7.92.88-2.87-1.64-7-3.92-10.74A30.19,30.19,0,0,1,1815.6,884Zm-86.9-51.14c-.1,8.09.34,15.55,2.36,20.85a24.32,24.32,0,0,1,1.56,5.74c.29-1.94,0-4.41-1.56-8.55C1729.28,846.18,1728.74,839.81,1728.7,832.82Zm-9,63.81-.29.07a4.07,4.07,0,0,0,.37.69,2.16,2.16,0,0,0,.48.05,6.14,6.14,0,0,0,3.84-1.53c.14-.23.27-.48.4-.72h0a25.82,25.82,0,0,1,.36-3.46C1723.69,894.18,1722.07,896.12,1719.69,896.63Zm-159.9-31.21a67.38,67.38,0,0,0,1-12.26,83.89,83.89,0,0,1-1,9.45c-.13.8-.24,1.54-.32,2.19a49,49,0,0,1-2.93,9.52,35.43,35.43,0,0,1,2.6-5,16.92,16.92,0,0,0,.33-1.69C1559.55,867,1559.66,866.23,1559.79,865.42Zm-221.21-18.76a138.54,138.54,0,0,1-1.1,14.19c-.8,6.5-4.14,12.73-7.27,18.31,1.35-1.46,2.59-2.88,3.7-4.22a37.66,37.66,0,0,0,3.57-11.27A123.17,123.17,0,0,0,1338.58,846.66Zm-19.83,49.69a4.07,4.07,0,0,0,1.55-.17,8.62,8.62,0,0,0,.61-1.76c.14-.49.29-1,.48-1.61-1.32,1.34-2.66,2.51-3.85,3.5C1318,896.33,1318.4,896.35,1318.75,896.35Zm-25.89-58.64c-.26,3.26.58,8.39,1.91,15.94.78,4.46,1.64,9.37,1.88,12.81.33-3-.84-9.71-1.88-15.63A128.79,128.79,0,0,1,1292.86,837.71ZM1273,883.78a32.79,32.79,0,0,1,.46,3.52,34,34,0,0,0,2.3,3.09,17,17,0,0,0,1.58-1c-.23-.28-.52-.62-.78-.91A35.18,35.18,0,0,1,1273,883.78Zm20.22,13.63a21.73,21.73,0,0,0,1.51-4c.11-1.12.2-2.39.27-3.71a22.91,22.91,0,0,1-3.54,7.87Zm218.54-39.62a7.69,7.69,0,0,1,.79,3.25c.13-2.49,0-4.68-.79-6.06-1.78-3.13-6-16-6.64-22.67C1504.21,837.05,1509.63,854.13,1511.72,857.79Zm74.92,22.61c0,6.4-.35,7.39-2.83,10.43l-.15.19a10.13,10.13,0,0,0,2.15-.4C1586.63,888.71,1586.65,886.32,1586.64,880.4Zm-213.1-30.79c-2.43-3.9-4.94-7.94-6.19-12.85a122,122,0,0,1-2.36-13.25c-.83-6-1.7-12.09-3.67-17.39-2.41-6.43-8.46-13-13.38-16.59-4.58-3.37-7.47-7.83-10.25-12.15-3.79-5.85-7-10.91-13.9-12.73a11.44,11.44,0,0,0-2.92-.44c-2.72,0-4.19,1.41-6.78,4.1a32.63,32.63,0,0,1-6.16,5.32c-3.85,2.44-9,2.63-14.08,2.83a44.84,44.84,0,0,0-7.36.65c-5.08,1.09-7.15,4.78-9.77,9.46a49.05,49.05,0,0,1-4.5,7c-4.79,6-10.76,12.06-18.73,12.06a16,16,0,0,1-3.28-.34c-8.73-1.86-13.88-9.77-18.43-16.75-1.64-2.51-3.18-4.88-4.82-6.93a9.3,9.3,0,0,1-.79-1.22c-.34-.57-.94-1.61-1.38-1.76-3.23,4.14-7.28,5.57-10.88,6.83-.91.32-1.83.64-2.72,1a30.55,30.55,0,0,1-3.76,1.17c-2,.53-4.07,1.08-5.25,2a12.1,12.1,0,0,0-1.62,1.45c.07.18.18.41.28.62.18.39.38.86.58,1.37.22-.18.45-.38.76-.62,1.18-.93,3.25-1.48,5.25-2a32.36,32.36,0,0,0,3.76-1.16c.89-.37,1.81-.69,2.72-1,3.6-1.26,7.65-2.68,10.88-6.83.44.16,1,1.19,1.38,1.77a10,10,0,0,0,.79,1.22c1.64,2,3.18,4.42,4.82,6.92,4.55,7,9.7,14.9,18.43,16.75a16,16,0,0,0,3.28.35c8,0,13.94-6.1,18.73-12.06a49.13,49.13,0,0,0,4.5-7c2.62-4.67,4.69-8.37,9.77-9.46a44.84,44.84,0,0,1,7.36-.65c5-.19,10.23-.39,14.08-2.82a32.65,32.65,0,0,0,6.16-5.33c2.59-2.69,4.06-4.09,6.78-4.09a11.39,11.39,0,0,1,2.92.43c6.85,1.83,10.11,6.88,13.9,12.74,2.78,4.31,5.67,8.77,10.25,12.14,4.92,3.63,11,10.16,13.38,16.6,2,5.29,2.84,11.44,3.67,17.38a122.59,122.59,0,0,0,2.36,13.26c1.25,4.91,3.76,8.94,6.19,12.84s4.75,7.64,5.62,12c0,.11,0,.22,0,.33a9.79,9.79,0,0,0,0-3.15C1378.29,857.25,1376,853.54,1373.54,849.61Z" transform="translate(659.77)"/><path class="cls-21" d="M1124.4,854.7l-.37-1.29c.74-.28,73.09-27.9,89.4-61.19l1,.67C1197.91,826.64,1125.13,854.42,1124.4,854.7Z" transform="translate(659.77)"/><path class="cls-21" d="M1382.47,807.42c-26.66,0-49.45-30.48-49.68-30.8l.88-.89c.22.31,22.68,30.34,48.8,30.34h.65c13-.25,24.77-7.92,35-22.8l.91.85c-10.49,15.21-22.58,23-35.93,23.3Z" transform="translate(659.77)"/><path class="cls-21" d="M1570.58,801.5c-9.47,0-17.85-5.38-26.46-10.91l-2.4-1.53.56-1.2,2.39,1.54c18.29,11.73,34.07,21.85,61.22-14.34l.88.89C1592.34,795.19,1580.82,801.5,1570.58,801.5Z" transform="translate(659.77)"/></g></g></g></svg>