<svg xmlns="http://www.w3.org/2000/svg" width="782.416" height="312.044" viewBox="0 0 782.416 312.044">
  <defs>
    <style>
      .cls-1, .cls-2 {
        fill: #512500;
      }

      .cls-1 {
        opacity: 0.4;
      }

      .cls-3 {
        fill: #7f3905;
      }
    </style>
  </defs>
  <g id="Caravan" transform="translate(-1762.739 -760.552)">
    <path id="Tracé_221" data-name="Tracé 221" class="cls-1" d="M1740.82,956.35c2.48-12.21-1.59-13.91-3.69-20s-11.74-30.39-10.46-40.09c.56-4.26-8.54-2-9.73.54s.18,8.68,3.1,9.36,5.12,5.77,6.83,10.85,5.84,28.51,6.05,33.94-18-41-18.64-46.22c-1.56-13.23-1.34-14.34-5.65-14s-7.17,1.15-3.6,9.11c1.28,2.85,8.17,18.53,11.57,28.71s7.08,28.16,7.16,32.57-5.22,24.43-1.18,33.6c-15-10.52-17.37-14.93-43.77-12.9-2.56-11.53-3.23-16.62-3.23-22.39s-2.6-42-4.06-49.12.79-17.61-1.06-20-6.57,4.72-7.39,4.38c.93-2.72-16.38-.27-10,5.5a28.061,28.061,0,0,1,6.46,10c1.56,4.07,7.15,21,6.52,27.82a46.92,46.92,0,0,0,1,15.27c.89,4.75.76,28.84-.64,29.86s-3.8,6.11-4.18,7.12c-8.66-3.39-34.37-13.57-38.12,31.56-5,2.57-6.86,6.3-9.76,5.83-11.79-12-21-16.31-29-16.31a22.462,22.462,0,0,0-5.41.68c.77-16.41,8.7-49.86,10.88-53.36,2.3-3.68-2.57-57.33-.41-69.08.85-4.64-10.53,1.59-10,2.69,4.09,5.79,4.69,19,6,36.91s-7.18,32.11-13.81,46.85c-3.2-3.68-3.43-36.85-7.81-41.58s-16.5-37.61-14.85-40.5c2.82-5-16-2.65-9.13,1.64,3.34,2.07,18,37.8,19.27,44.65s4.88,21.58.65,29-1.91,18.95-2.7,33.16c-4.62-7.89-42.88-19.47-44.35-19.47s1.61-23.17,4.08-29.48-2.16-19.48-2.09-28.43.63-31.18-1-31.56c-4.64-1-12.46-.87-9.75,1.24,3.45,2.68,7.13,40.32,4.73,47.69s-1.18,8.95-5.77,36.33c-5.81-4.22-22.32-34.22-26.06-45.28s-7.62-36.16-6.51-37.45c4.66-5.42-14.06-2.86-9.41,1.16,6.9,6,11.9,41.56,11.78,50s17.71,36.32,17.71,36.32.58,7.9-3.48,12.64-6.8-2.57-17.4-2c-26,1.29-23.58,20.87-35.65,37-1.06,1.42-4.83,1.47-8.37,1.61-14.57-24.53-31.19-37.21-49.47-37.64h-.95c-9.91,0-19.44,3.63-28.13,9,2.74-9,4.87-18.4,8-27,4.38-12.06,13.3-20.17,17.11-32,1.53-4.76.62-8.86,1.46-13.75.66-3.77,9.16-33.75,6.92-36.5-1.86-2.28-6.12,3.53-10,5.93-2.41,1.5,4,2.52,3.89,2.18,1,3.45-.68,10.34-1.55,14.18-2.18,9.54-6,21.26-10.93,29.32-5.87,9.54-9.3,14.76-16,22.86-5,6-7,15.93-9.64,15.13-1-.3-5.25-15.45-4.11-23.68.64-4.59.27-17.45,1.53-22,1-3.78-4.77-15.12-7.46-19.85-10.93-19.24,2.46-23.47-14.81-20.58-2.12.36,6.25,6.07,8.57,16.24,2.16,9.53,6.39,20.13,5.61,31.24-1.54,22.26-4.72,36.5-9.27,35.82-2.17-3.47-9.52-5.28-15.83-5.37-5.22-.07-15.29,7.43-19.61,5.22-3.39-1.74,9.28-33.86,10-43.74,2-28,5.55-38.83,3.88-38.82-16.11,0-2.65-1.45-6.18,16.53-1.89,9.59-3.61,20.52-7,29.3-4.44,11.56-9.92,33.41-12.27,33.37-3.55-2.2-3.22-10.31-5.83-14.14-7.57-11.08-5.27-16.34.41-33,9-26.39,24.91-37.33,5.66-32.52-.88,14.93-1.26,10.89-4.91,21.39-3.35,9.62-12.28,22.36-14.33,31.78-1,4.84,7.31,22.7,8,35,.37,6.42-4.27,9.88-5.16,9.18-5.59-4.41-12.32-5.23-19.3-4.07-13.29,2.22-21,11.81-31.51,25.19-3.13,4-6.6,5.78-10.08,6.34-15.87-9.8-38-18-53.91-23.24,3.64-5,6.85-10.25,6.83-16.19,0-5.48-5.09-9.41-5.64-14.88-.81-8.14,3.74-17.71,5.85-25.54.37-1.36,9.12-34.9,9.12-34.9-2.07-3.75-8.92,1.36-14.62,1-7.71-.51-15.13,3.55-19.88,3.85-.51,8.67-5.38,19.88-5.72,29.64-.14,4.35,1.63,15.33-.67,19.16-2.69,4.48-6.86,2.43-11.59,5.75,6.69,8.48,18.89,35.75,16.61,46.9-.91,4.48-4.72,8.21-1,12.31,4.18,4.65,10.73.92,12.5-4.63.91-2.86-2-5.53-1-8.22,1.66-4.46,5.29-8.83,8.69-13.41,15.54,5.08,37.18,13.08,52.9,22.59a24.85,24.85,0,0,1-10.84-2.36c.14,5.94-2.19,5.53-3.76,9.24-2,4.71-3.67,4.8-.25,8.95,2,2.48,6.27,3,8.84,4.51,4.14,2.37,9,3.31,11.48,10,3.05,1.62,5.05-3.22,6.19-4.68,8.15-10.33,15.66-26.43,26.71-29.31,8.39-2.19,13.38,5.36,17.34,13.95,4.05,8.77,3.43,19.8,12,22.27,5.87,1.7,15.45-.21,20,4,6.33,5.93,5.9,15.13,15.81,11.91,13.92-4.51,18.46-22.76,30.29-32.44,6.33-5.17,14-14.08,17.94-22.72a90.969,90.969,0,0,0,3.63-9.45c9-5.83,18.85-9.85,29.15-9.85h.93c17.42.41,33.34,12.3,47.36,35.35-2.45.18-4.45.57-4.78,1.77-.87,3.16-4.06,5.06-2.93,8.58,1.84,10,12.71,6,24.12,18.35,3.32,3.58,6-.58,8.76-8.48s2.48-4.22,10-19c7.82-15.35,24.25-9.48,36,6.32s27.24,16.32,31.94,15.26,8,14.74,12.51,10.53,10.29-4.74,15.19-17.9c20.08-6.31,24.69-18.42,24.67-33.69v-.89c8.44-2.33,18.14.08,31.3,12.72-1.83-1.12-3.15-2-3.88.62-1,3.73.75,9.5,5.85,11.2a50.517,50.517,0,0,1,12.14,6.44c3.09,2,6.29,1,8,2.38s2.13-1.36,2.43-6.79,3.77-29.52,14.54-29.52,20.39,24.09,30.84,27.49,10.25,21.15,25.42,19.56,17-11.08,22.56-15.49,20.09-13.57,17.65-31.56S1738.34,968.57,1740.82,956.35Z" transform="translate(659.77)"/>
    <path id="Tracé_222" data-name="Tracé 222" class="cls-1" d="M1823.17,941.66c.68-4.3,8.38-33.15,2.41-40.94-3.23-4.21-6.62,4.18-12,2.64-7-2-15.76,7.13-21.08,9.58,2.81,5,2.87,9.58,1.88,14.9-1.07,5.82-5.66,12.41-3.51,18.91,3.9,11.76,11.18,23.18,15.27,35.11,1.14,3.31,1.62,6.51,3.23,9.68,1.8,3.54,4.68,6.08,4.87,10s-2.7,7.31,2,11c5.33,4.13,11,.82,11.35-4.12.21-2.55-3.39-4.93-3.07-7.32.62-4.47,6-4.88,5.52-10.52-1-12.42-4.9-24.52-7-36.9a37.377,37.377,0,0,1,.13-12.02Z" transform="translate(659.77)"/>
    <path id="Tracé_223" data-name="Tracé 223" class="cls-1" d="M1885.36,990.56c-1.22-15.67-5-29.91-9.63-45.48-2-6.52-4.78-30.38-7.43-35-2.28-4-30.15-1.09-34-1.2,0,0-2.18,7.81,3,20,4.26,10.09,11.49,19.3,16.61,29.08,5.69,10.88,8.61,21.9,12.72,33.06,1.39,3.8,2.44,5.48,2.82,9.35.42,4.21-3.11,8.08,2.07,12.11s11,.82,11.35-4.12c.2-2.55-3.39-4.93-3.07-7.32C1880.46,996.61,1885.8,996.2,1885.36,990.56Z" transform="translate(659.77)"/>
    <path id="Tracé_224" data-name="Tracé 224" class="cls-2" d="M1652.52,895.78c2-1.82,4.62-1.5,5.65-5.09s4.36-18.55,2.82-24.53a36.6,36.6,0,0,1-1-13.47c.26-4.18-3.08-25.43-4.62-26.32s-4.61-5.39-5.12-6.29c-8.21,3-32.57,12-42.32-27.82-5.64-2.39-7.94-6-11-5.09s-4.88,3.89-6.41.6a7.11,7.11,0,0,1,4.36-9.87,44.789,44.789,0,0,0,11.28-5.68c2.82-1.8,6.15-.9,7.69-2.1s2.31,1.2,3.34,6,7.69,26,18.46,26,17.18-21.24,27.18-24.23,7.44-18.65,22.82-17.25,18.47,9.77,24.62,13.66,21.9,12,21.85,27.82-2.87,37.1,1.23,47.87.26,12.27-1,17.65-5.39,23.77-5.39,27.53-7.44,6-9,3.75-1.54-4,1.28-4.65,4.36-5.09,5.38-9.57,2.05-25.13,1.54-29.92-11.28,30-12,34.44-2,6.25-6.41,5.95-5.39-5.09-2.57-6,5.65-5.68,7.7-14.66,3.33-24.83,2.82-28.72-8.47-21.54-5.64-29.62c-13.6,9.28-15.39,13.17-42.06,11.37-1,10.18-1,14.66-.26,19.75s1.29,27.82.77,34.1,3.34,8.68,1.8,10.78-5.39,2.69-6.16,3C1665.35,897.57,1646.88,900.86,1652.52,895.78Z" transform="translate(659.77)"/>
    <path id="Tracé_225" data-name="Tracé 225" class="cls-2" d="M1590.47,889.73c-.37-9-1.47-37.23-4-40.22s-13.94-33-15-45.36-6.6-22.26-27.14-27.39c-5.87-10.7-11.74-11.13-16.51-14.55s-7,9.41-11.73,8.56-20.18-.43-30.82,12.41-26.63,17.61-35.58,5.13c-8.58-12-8.07-9-11.37-15.4s-6.32-9.81-9.38-6.89c-10.51,10-21.67,6.78-22.77,14.91-.87,2.86,2.45,4.41,3.55,7s13.27.58,15.54,2.83c13.25,13.08,12.31,29,38.36,30,10.64.43,12.85-5.51,17.25-1.66s4.4,10.28,4.4,10.28-15.77,22.68-15,29.52-1.47,32.1-7,34.24-2.2,6.42,5.13,5.56,4-19.68,7-28.67,17.24-33.38,22.74-36.8c6.61,22.25,5.51,23.53,8.44,29.52s5.13,29.1-.37,30,2.94,4.71,7,3,1.47-11.56.74-18.83,2.93-18,0-23.11-7.71-24-6.24-24,38.88-9.41,42.92-15.83c1.83,11.55.36,21,5.13,27s2.2,18,1.47,23.54-8.44,24.82-15.77,27.38,2.2,6.85,7,4.28,9.9-23.1,13.93-27,1.84-30.81,4.77-33.8c7.71,12,17.24,23.53,17.24,38.08s.37,12.41-3.3,17.12S1590.63,893.56,1590.47,889.73Z" transform="translate(659.77)"/>
    <path id="Tracé_226" data-name="Tracé 226" class="cls-2" d="M1371.55,860.05c3.62,6.27,5.5,15.39,6.1,22.83.25,3,.84,8.35-.78,11,.16-.26-8.15,6.54-5.36,6.7s7.27.64,10.11-.39c1.31-.48-.87-25.48-.9-28.42,0-3.81,1.54-7,.79-10.71-1.85-9.23-9.44-15.54-11.84-24.93-2.54-9.94-2.55-21.37-6.11-30.89-2.51-6.72-8.73-13.66-14.2-17.68-10.24-7.54-11.78-21.75-24.95-25.27-9.38-2.51-10.47,4.66-17.77,9.28-5.24,3.31-14.51,1.82-20.66,3.15-9,1.93-10.14,10.52-15.63,17.34s-11.61,12.57-19.64,10.87c-10.58-2.25-15.43-14.79-21.88-22.83-.91-1.13-2.11-4.91-5.43-3.64-3.62,5.19-8.59,5.92-13.12,7.77-2.82,1.15-7.14,1.58-9.58,3.51-4.1,3.23-2.44,3.3-1.22,7,1,2.89,3.35,2.57,2.24,7.2,7.24-2.27,16.3-3.69,21.85,3.23,8.35,10.42,14.44,17.89,27.37,19.61,6.78.91,13.66.27,20-3.17,1-.55,5.08,2.15,3.64,7.15-2.75,9.58-14,23.49-13.79,27.26.5,7.33,7.33,17.25,9.09,24.75,1.93,8.17,2.24,3.31.67,14.93,18.48-9,5.07-3.05.42-23.6-2.94-13-4.37-17.07,5-25.7,3.24-3,4.25-9.3,8.16-11,2.36,0,4.24,17,6.77,26,1.93,6.83,1.85,15.34,2.16,22.81.58,14-13.55,17.18,1,15.52,4.63-.53,2.31-11.09,5-32.87.94-7.7-6.44-32.71-2.77-34.06,4.68-1.73,13.52,4.11,18.76,4.06,6.32-.07,14-1.48,16.7-4.18,4.66-.53,5.5,10.55,3.38,27.89-1,8.65-7,16.9-10.75,24.32-4,7.92-14,13-11.95,13.28,16.8,2.25,4.8-1.67,18.91-16.66,3.46-3.68,11.14-12.5,10.72-15.45-.51-3.56,2-13.58,2.09-17.15.22-6.41,6.94-18.21,8-18.44,2.8-.62,3.15,7.12,7.15,11.78C1364.68,848.55,1367.25,852.62,1371.55,860.05Z" transform="translate(659.77)"/>
    <path id="Tracé_227" data-name="Tracé 227" class="cls-2" d="M1812.35,913.64c-6.57,2.48-14,2.37-19.86-.7,1.8-6.2,1.49-5.78-.58-12.41-2.25-7.26-8.18-15.47-7.34-23.58,1.51-14.66,6.48-28.88,8.15-43.75.47-4.13.3-8.12,1.27-12.07,1.08-4.41,3.45-7.58,2.84-12.49s-4.18-9.11-.22-13.65c4.49-5.16,10.79-1,12.19,5.13.72,3.17-2.4,6.14-1.6,9.12,1.53,5.57,7,6.09,7.66,13.11,1.55,15.49.07,30.56.46,46a60.451,60.451,0,0,0,2.59,14.95c1.55,5.36,10.42,14,6.88,20.09a24.059,24.059,0,0,1-12.44,10.25Z" transform="translate(659.77)"/>
    <path id="Tracé_228" data-name="Tracé 228" class="cls-2" d="M1142.38,914.53c-7.74.57-16.63-1-21.36-1.35.07-9.62-4.15-18.94-3.83-29.77.14-4.83,2.64-17,.6-21.26-2.39-5-6.7-2.69-11.21-6.38,7.26-9.41,21.28-39.66,19.75-52-.62-5-4.18-9.1-.22-13.65,4.49-5.15,10.79-1,12.19,5.13.72,3.18-2.4,6.14-1.59,9.13,2.9,10.58,14.91,20.7,14.09,33.75-.39,6.07-5.72,10.44-6.63,16.5-1.35,9,2.55,19.65,4.14,28.34.28,1.51,6.18,27.26,7.21,25.42C1153.2,912.51,1148.1,914.11,1142.38,914.53Z" transform="translate(659.77)"/>
    <path id="Tracé_229" data-name="Tracé 229" class="cls-2" d="M1867,912.73c-2.76,3.83-13.85,2.76-17.63,2.9-11.35.41-17.39-1.22-14.71-16.45,2.22-12.58,7.59-24.06,10.72-36.25,3.49-13.56,4.18-27.29,6-41.2.63-4.74,1.33-6.83.93-11.65-.44-5.25-4.75-10.08-.38-15.09s10.79-1,12.18,5.13c.72,3.17-2.39,6.14-1.59,9.12,1.53,5.57,7,6.09,7.66,13.11,2,19.53,1.1,37.28-.42,56.68C1869.13,887.17,1871.7,906.11,1867,912.73Z" transform="translate(659.77)"/>
    <path id="Tracé_230" data-name="Tracé 230" class="cls-3" d="M1712.23,819.8a9.218,9.218,0,0,0-.41,2.09,12.51,12.51,0,0,1,.41-4.9l1.12-3.19,1.29-.88Zm-51.76,74.36c.71-2.47,3.62-14.72,3.27-22.47a104.067,104.067,0,0,1-3.27,19.66,7.189,7.189,0,0,1-3.22,4.42,22.921,22.921,0,0,0,2.86-.66,9.48,9.48,0,0,0,.36-.95ZM1121,868.73c-.09,2.7-.41,5.8-.82,9.24-.26,2.16-.51,4.21-.55,5.51,0,.69,0,1.36.05,2,.09-1.27.28-2.94.5-4.73A77.99,77.99,0,0,0,1121,868.73Zm155.91-36.48a9.234,9.234,0,0,0,.28-4.09,10.8,10.8,0,0,1-.28,1.27c-1.53,5.34-5.35,11.6-8.73,17.14-2.08,3.4-4.92,8.06-5,9.3a13.225,13.225,0,0,0,.28,1.87,77.618,77.618,0,0,1,4.69-8.36c3.36-5.53,7.18-11.8,8.71-17.13ZM1146,883.36c-.42-2.32-1-4.79-1.65-7.4-1.22-5.07-2.56-10.63-2.77-16-.27,6.22,1.33,12.87,2.77,18.83.63,2.61,1.23,5.07,1.65,7.39.15.84,1.61,7.28,3.19,13.47,1.12,4.42,1.95,7.43,2.63,9.5a6.692,6.692,0,0,0,.77-.73,91.906,91.906,0,0,1-3.4-11.59C1147.56,890.63,1146.1,884.2,1146,883.36Zm-17.19-76.08c-.79,13.87-12,37.79-18.75,47.81a12.3,12.3,0,0,0,1.47.52c7.23-11.87,18.03-36.01,17.23-48.33Zm-.84-12.81a3.751,3.751,0,0,1,2.79-1.51c2,0,4.08,2.06,5,4.74a3.911,3.911,0,0,0,.26-2c-.7-3.09-3.06-5.6-5.25-5.6a3.73,3.73,0,0,0-2.79,1.5,4.66,4.66,0,0,0-1.05,4.63,5,5,0,0,1,.99-1.76ZM1837,902.41c1.28-7.2,3.67-14.23,6-21,1.66-4.88,3.38-9.92,4.7-15,2.53-9.83,3.62-19.88,4.68-29.61.44-3.94.87-7.9,1.39-11.87.15-1.14.31-2.12.45-3a34.181,34.181,0,0,0,.58-7.76,42.692,42.692,0,0,1-.58,4.94c-.14.91-.3,1.89-.45,3-.52,4-1,7.93-1.39,11.88-1.06,9.72-2.15,19.77-4.68,29.61-1.32,5.12-3,10.16-4.7,15-2.32,6.8-4.71,13.83-6,21a30,30,0,0,0-.54,7.25,39.446,39.446,0,0,1,.54-4.44Zm-570.24-35.62c.33.73.66,1.45,1,2.18a54.361,54.361,0,0,1-1.37-8.08,24.79,24.79,0,0,0,.38,5.9Zm538.07-57.3a6.9,6.9,0,0,0,.05,3.19,14.331,14.331,0,0,0,4.18,6.5c1.73,1.76,3.1,3.16,3.4,6.22.46,4.61.64,9.23.69,13.82a162.511,162.511,0,0,0-.69-16.63c-.3-3.07-1.67-4.46-3.4-6.23a14.289,14.289,0,0,1-4.18-6.49,2.451,2.451,0,0,1-.04-.38Zm48.91-10.11a3.75,3.75,0,0,1,2.78-1.51c2,0,4.09,2.06,5,4.74a3.819,3.819,0,0,0,.25-2c-.7-3.09-3-5.6-5.25-5.6a3.75,3.75,0,0,0-2.78,1.51,5.11,5.11,0,0,0-1.17,4.91,5.2,5.2,0,0,1,1.18-2.05Zm6.42,10.11a6.9,6.9,0,0,0,0,3.19,14.331,14.331,0,0,0,4.18,6.5c1.73,1.76,3.09,3.16,3.4,6.22.69,6.89,1,13.52,1.11,20.21a229.538,229.538,0,0,0-1.11-23c-.31-3.07-1.67-4.46-3.4-6.23a14.29,14.29,0,0,1-4.18-6.49,2.474,2.474,0,0,1,.01-.4Zm-142.08,40.34a155.318,155.318,0,0,1-3,25.24c-2.2,9.62-5.33,15.15-9.21,16.28a.94.94,0,0,0,.21.63,2.119,2.119,0,0,0,1.69.8h.47a15.3,15.3,0,0,0,3.69-5.25c.66-2.75,2.25-8.13,3.89-13.39,1.49-8.14,2.44-19.31,2.27-24.31Zm-125.46-64.36a4.42,4.42,0,0,1,2.9-2.46,44.483,44.483,0,0,0,11.37-5.63l.5-.32a8.181,8.181,0,0,1,3.66-.95,12.393,12.393,0,0,0,2.78-.51c.27.83.58,2.11,1,3.82.06.28,6.63,27.93,20.81,27.93,7,0,12-6.79,16.82-13.35,3.55-4.84,7.22-9.84,11-11,5.09-1.52,7.46-5.65,9.56-9.29,2.56-4.44,4.57-8,10.71-8a11.816,11.816,0,0,1,1.65.08c10.18.93,14.32,5,18.32,8.87a32.142,32.142,0,0,0,5.23,4.43c.54.35,1.16.72,1.84,1.13,6.47,4,18.38,11.23,18.85,23.84v-2c0-13.13-12.28-20.63-18.89-24.66l-1.84-1.13a33.168,33.168,0,0,1-5.23-4.43c-4-3.91-8.14-7.95-18.32-8.87a16,16,0,0,0-1.65-.08c-6.14,0-8.15,3.5-10.71,7.94-2.1,3.65-4.47,7.78-9.56,9.3-3.83,1.14-7.5,6.15-11,11-4.81,6.57-9.79,13.35-16.82,13.35-14.18,0-20.75-27.64-20.81-27.92a28.832,28.832,0,0,0-1-3.83,12.387,12.387,0,0,1-2.78.51,8.181,8.181,0,0,0-3.66,1l-.5.32a44.792,44.792,0,0,1-11.37,5.64,4.42,4.42,0,0,0-2.9,2.46,5.171,5.171,0,0,0-.2,3.45,4.338,4.338,0,0,1,.25-.64ZM1791,858.16a201.32,201.32,0,0,0,4.11-21.88c.17-1.5.26-3,.34-4.46a40.857,40.857,0,0,1,.87-7.3,33.535,33.535,0,0,1,1.23-3.75,19.983,19.983,0,0,0,1.7-9.13,24.147,24.147,0,0,1-1.7,6.32,33.366,33.366,0,0,0-1.23,3.74,40.846,40.846,0,0,0-.87,7.31c-.08,1.47-.17,3-.34,4.45a200.835,200.835,0,0,1-4.11,21.88,187.162,187.162,0,0,0-4,21.86,13.922,13.922,0,0,0,0,2.66,190.449,190.449,0,0,1,4-21.7Zm7.42-58.78a3.75,3.75,0,0,1,2.79-1.51c2,0,4.08,2.06,5,4.74a3.819,3.819,0,0,0,.25-2c-.69-3.09-3-5.6-5.24-5.6a3.75,3.75,0,0,0-2.79,1.51,4.66,4.66,0,0,0-1.05,4.63,4.941,4.941,0,0,1,1.04-1.77Zm-664.08,5.21a6.861,6.861,0,0,0,.05,3.18c1.23,4.49,3.81,8.65,6.54,13.05,3.42,5.49,6.93,11.14,7.44,17.29a.988.988,0,0,0,0-.17c.46-7.19-3.57-13.67-7.47-19.94-2.73-4.4-5.31-8.55-6.54-13a2.528,2.528,0,0,1-.02-.41Zm338.3,58.71c-.18,9.79-2.17,29.6-8.58,32.1a4.365,4.365,0,0,0-.86.41,7.109,7.109,0,0,0,3.12.62c2.57-3.15,4.18-9.5,5.14-16a61.816,61.816,0,0,1,.92-8.57c.24-3.48.31-6.52.26-8.56Zm69.5,30.83a8.348,8.348,0,0,0,2.59.42,6.363,6.363,0,0,0,1.35-.14,28.165,28.165,0,0,0,4.07-4.85c1.36-2.79,2.77-6.33,3.87-9.09.45-1.12.88-2.21,1.31-3.25-3.22,7.26-7.99,15.06-13.19,16.91Zm-30.25-13.26c.06,4.57-.41,8.79-1.72,11.29a6.643,6.643,0,0,1-1,1.47,8.7,8.7,0,0,0,1.45.13h.09a30.7,30.7,0,0,0,1.2-10.06l.18,1.24c.25,1.75.63,4.43.77,6.76.23-2.53-.41-7-.77-9.57Zm-39.35-22.2c0,.39.07.93.09,1.57.91-5.27,8.72-18.3,14.54-26.66l.43-.62v-.75a15.72,15.72,0,0,0-.15-1.85l-.28.41c-6.34,9.11-15.07,23.79-14.63,27.9ZM1666,883.93v.11a15.772,15.772,0,0,0,1.23,7.52,3.5,3.5,0,0,0,.89-.63,12.166,12.166,0,0,0-.5-1.27A17.487,17.487,0,0,1,1666,883.93Zm-81.43-32.86c-3.06-3.57-14.47-33.85-15.61-46.71-.89-10.06-4.58-20.08-25.33-25.27l-1-.26-.51-.92c-4-7.3-7.87-9.33-11.62-11.3a33.324,33.324,0,0,1-4.17-2.45l-.18-.12c-.65.27-1.94,2.26-2.63,3.33-1.77,2.74-3.77,5.84-7.08,5.84a5.442,5.442,0,0,1-.88-.08,18,18,0,0,0-3.21-.24c-3.65,0-16.24.86-25.33,11.82-6.89,8.32-15.83,13.28-23.9,13.28-6.24,0-11.59-2.86-15.48-8.28a108.442,108.442,0,0,0-7.31-9.37,24.1,24.1,0,0,1-4.24-6.34c-3.38-6.56-4.92-6.64-5-6.64s-.29.08-.61.39c-5.39,5.13-10.82,7-15.18,8.49-4.91,1.68-6.52,2.44-6.87,5v.2l-.06.19c-.09.29,0,.59.45,1.16.73-1.61,2.53-2.38,6.51-3.74,4.36-1.5,9.79-3.36,15.18-8.49.32-.31.53-.39.61-.39s1.6.07,5,6.64a24.45,24.45,0,0,0,4.24,6.34,108.406,108.406,0,0,1,7.31,9.37c3.89,5.41,9.24,8.28,15.48,8.28,8.07,0,17-5,23.9-13.29,9.09-11,21.68-11.81,25.33-11.81a19.506,19.506,0,0,1,3.21.23,4.5,4.5,0,0,0,.88.08c3.31,0,5.31-3.1,7.08-5.83.69-1.08,2-3.07,2.63-3.34a1.631,1.631,0,0,0,.18.12,34.691,34.691,0,0,0,4.17,2.46c3.75,2,7.62,4,11.62,11.3l.51.92,1,.25c20.75,5.19,24.44,15.21,25.33,25.27,1.14,12.86,12.55,43.14,15.61,46.72.69,1.13,2.11,7.43,3.34,35.77a.115.115,0,0,0,.11-.08v-.45c-1.25-30.29-2.73-36.89-3.44-38.05Zm231,32.89a62.187,62.187,0,0,1-2.68-15.55c-.06-2.28-.05-4.55,0-6.82v9.64a62.12,62.12,0,0,0,2.68,15.54,30.241,30.241,0,0,0,3.46,6.74c1.61,2.62,3.34,5.46,3.92,7.92.88-2.87-1.64-7-3.92-10.74a30.192,30.192,0,0,1-3.43-6.69Zm-86.9-51.14c-.1,8.09.34,15.55,2.36,20.85a24.321,24.321,0,0,1,1.56,5.74c.29-1.94,0-4.41-1.56-8.55-1.75-4.68-2.29-11.05-2.33-18.04Zm-9,63.81-.29.07a4.072,4.072,0,0,0,.37.69,2.159,2.159,0,0,0,.48.05,6.14,6.14,0,0,0,3.84-1.53c.14-.23.27-.48.4-.72h0a25.827,25.827,0,0,1,.36-3.46c-1.14,2.45-2.76,4.39-5.14,4.9Zm-159.9-31.21a67.374,67.374,0,0,0,1-12.26,83.9,83.9,0,0,1-1,9.45c-.13.8-.24,1.54-.32,2.19a49.009,49.009,0,0,1-2.93,9.52,35.433,35.433,0,0,1,2.6-5,16.848,16.848,0,0,0,.33-1.69c.1-.63.21-1.4.34-2.21Zm-221.21-18.76a138.587,138.587,0,0,1-1.1,14.19c-.8,6.5-4.14,12.73-7.27,18.31,1.35-1.46,2.59-2.88,3.7-4.22a37.66,37.66,0,0,0,3.57-11.27,123.136,123.136,0,0,0,1.12-17.01Zm-19.83,49.69a4.069,4.069,0,0,0,1.55-.17,8.624,8.624,0,0,0,.61-1.76c.14-.49.29-1,.48-1.61-1.32,1.34-2.66,2.51-3.85,3.5.48.02.88.04,1.23.04Zm-25.89-58.64c-.26,3.26.58,8.39,1.91,15.94.78,4.46,1.64,9.37,1.88,12.81.33-3-.84-9.71-1.88-15.63a128.785,128.785,0,0,1-1.89-13.12ZM1273,883.78a32.741,32.741,0,0,1,.46,3.52,34.019,34.019,0,0,0,2.3,3.09,17,17,0,0,0,1.58-1c-.23-.28-.52-.62-.78-.91a35.182,35.182,0,0,1-3.56-4.7Zm20.22,13.63a21.723,21.723,0,0,0,1.51-4c.11-1.12.2-2.39.27-3.71a22.909,22.909,0,0,1-3.54,7.87Zm218.54-39.62a7.691,7.691,0,0,1,.79,3.25c.13-2.49,0-4.68-.79-6.06-1.78-3.13-6-16-6.64-22.67-.91,4.74,4.51,21.82,6.6,25.48Zm74.92,22.61c0,6.4-.35,7.39-2.83,10.43l-.15.19a10.129,10.129,0,0,0,2.15-.4c.78-1.91.8-4.3.79-10.22Zm-213.1-30.79c-2.43-3.9-4.94-7.94-6.19-12.85a121.957,121.957,0,0,1-2.36-13.25c-.83-6-1.7-12.09-3.67-17.39-2.41-6.43-8.46-13-13.38-16.59-4.58-3.37-7.47-7.83-10.25-12.15-3.79-5.85-7-10.91-13.9-12.73a11.436,11.436,0,0,0-2.92-.44c-2.72,0-4.19,1.41-6.78,4.1a32.631,32.631,0,0,1-6.16,5.32c-3.85,2.44-9,2.63-14.08,2.83a44.824,44.824,0,0,0-7.36.65c-5.08,1.09-7.15,4.78-9.77,9.46a49.061,49.061,0,0,1-4.5,7c-4.79,6-10.76,12.06-18.73,12.06a15.992,15.992,0,0,1-3.279-.34c-8.731-1.86-13.881-9.77-18.431-16.75-1.64-2.51-3.18-4.88-4.82-6.93a9.293,9.293,0,0,1-.79-1.22c-.34-.57-.94-1.61-1.38-1.76-3.23,4.14-7.28,5.57-10.88,6.83-.91.32-1.83.64-2.72,1a30.549,30.549,0,0,1-3.76,1.17c-2,.53-4.07,1.08-5.25,2a12.1,12.1,0,0,0-1.62,1.45c.07.18.18.41.28.62.18.39.38.86.58,1.37.22-.18.45-.38.76-.62,1.18-.93,3.25-1.48,5.25-2a32.348,32.348,0,0,0,3.76-1.16c.89-.37,1.81-.69,2.72-1,3.6-1.26,7.65-2.68,10.88-6.83.44.16,1,1.19,1.38,1.77a9.993,9.993,0,0,0,.79,1.22,82.857,82.857,0,0,1,4.82,6.92c4.55,7,9.7,14.9,18.43,16.75a16,16,0,0,0,3.28.35c8,0,13.94-6.1,18.73-12.06a49.108,49.108,0,0,0,4.5-7c2.62-4.67,4.69-8.37,9.77-9.46a44.831,44.831,0,0,1,7.36-.65c5-.19,10.23-.39,14.08-2.82a32.652,32.652,0,0,0,6.16-5.33c2.59-2.69,4.06-4.09,6.78-4.09a11.392,11.392,0,0,1,2.92.43c6.85,1.83,10.11,6.88,13.9,12.74,2.78,4.31,5.67,8.77,10.25,12.14,4.92,3.63,11,10.16,13.38,16.6,2,5.29,2.84,11.44,3.67,17.38a122.591,122.591,0,0,0,2.36,13.26c1.25,4.91,3.76,8.94,6.19,12.84s4.75,7.64,5.62,12v.33a9.789,9.789,0,0,0,0-3.15c-.91-4.38-3.2-8.09-5.66-12.02Z" transform="translate(659.77)"/>
    <path id="Tracé_231" data-name="Tracé 231" class="cls-2" d="M1124.4,854.7l-.37-1.29c.74-.28,73.09-27.9,89.4-61.19l1,.67C1197.91,826.64,1125.13,854.42,1124.4,854.7Z" transform="translate(659.77)"/>
    <path id="Tracé_232" data-name="Tracé 232" class="cls-2" d="M1382.47,807.42c-26.66,0-49.45-30.48-49.68-30.8l.88-.89c.22.31,22.68,30.34,48.8,30.34h.65c13-.25,24.77-7.92,35-22.8l.91.85c-10.49,15.21-22.58,23-35.93,23.3Z" transform="translate(659.77)"/>
    <path id="Tracé_233" data-name="Tracé 233" class="cls-2" d="M1570.58,801.5c-9.47,0-17.85-5.38-26.46-10.91l-2.4-1.53.56-1.2,2.39,1.54c18.29,11.73,34.07,21.85,61.22-14.34l.88.89C1592.34,795.19,1580.82,801.5,1570.58,801.5Z" transform="translate(659.77)"/>
  </g>
</svg>
