<svg xmlns="http://www.w3.org/2000/svg" width="1060.76" height="453.54" viewBox="0 0 1060.76 453.54">
  <defs>
    <style>
      .cls-1, .cls-3, .cls-6 {
        fill: #fbe2cb;
      }

      .cls-1 {
        opacity: 0.5;
      }

      .cls-2 {
        fill: #b64400;
        opacity: 0.2;
      }

      .cls-3, .cls-5 {
        opacity: 0.6;
      }

      .cls-4 {
        fill: #f4c498;
        opacity: 0.8;
      }

      .cls-5 {
        fill: #e9944a;
      }

      .cls-6 {
        opacity: 0.3;
      }
    </style>
  </defs>
  <g id="Clouds" transform="translate(-1095.71 -41.64)">
    <path id="Tracé_18" data-name="Tracé 18" class="cls-1" d="M435.94,415.82c0,2.77,43.78,5.26,113.27,7-5.67,1.6-8.71,3.28-8.71,5,0,7.27,52.94,13.57,130.31,16.68-6.44,1.34-10,2.81-10,4.34,0,6.29,59.4,11.39,132.66,11.39h9.54c5.52,3.19,37.54,5.63,76.23,5.63,42.56,0,77.07-3,77.07-6.61,0-2.54-16.65-4.74-41.09-5.85,7-1.39,10.91-2.92,10.91-4.53,0-.53-.46-1.06-1.3-1.58,79.24-1.08,139.31-6.28,139.31-12.53,0-1.39-3-2.72-8.43-4,111.33-.84,191.66-3.23,191.66-6.05,0-2.51-63.38-4.68-155.57-5.72,12.89-1,19.94-2.05,19.94-3.17s-8.06-2.32-22.71-3.37C1286.75,411,1433,405.81,1433,399.65c0-4.39-74-8.27-187.89-10.67,12.26-1.08,19-2.24,19-3.45,0-3.17-45.83-6-117.33-7.83,2.78-.56,4.3-1.14,4.3-1.74,0-4.27-75.64-7.74-169-7.74S813.09,371.69,813.09,376c0,.2.22.4.54.59-102.57,1.64-173,5.05-173,9,0,1.53,10.69,3,29.79,4.28C576.88,392.23,518,395.74,518,399.65c0,3,34.68,5.76,93.06,8C506.68,409.22,435.94,412.29,435.94,415.82Z" transform="translate(659.77)"/>
    <path id="Tracé_19" data-name="Tracé 19" class="cls-2" d="M464.8,72c0,1.77,34.39,3.36,89,4.46-4.45,1-6.84,2.09-6.84,3.21,0,4.64,41.57,8.67,102.34,10.66-5,.86-7.86,1.8-7.86,2.78,0,4,46.65,7.28,104.2,7.28h7.49c4.33,2,29.48,3.6,59.87,3.6,33.43,0,60.53-1.89,60.53-4.23,0-1.62-13.08-3-32.27-3.74,5.5-.89,8.57-1.86,8.57-2.89,0-.34-.37-.68-1-1,62.24-.7,109.42-4,109.42-8,0-.88-2.35-1.74-6.63-2.53,87.45-.54,150.54-2.07,150.54-3.87,0-1.61-49.79-3-122.19-3.66,10.13-.63,15.66-1.31,15.66-2s-6.33-1.49-17.84-2.16c155.31-.93,270.14-4.24,270.14-8.18,0-2.8-58.12-5.29-147.57-6.82,9.62-.69,14.88-1.43,14.88-2.21,0-2-36-3.83-92.15-5,2.18-.36,3.37-.73,3.37-1.11,0-2.73-59.41-4.95-132.69-4.95S761,43.82,761,46.55c0,.13.17.25.43.38-80.56,1-135.92,3.22-135.92,5.73,0,1,8.4,1.91,23.4,2.74C575.5,57,529.28,59.19,529.28,61.69c0,1.92,27.23,3.69,73.09,5.11C520.37,67.81,464.8,69.77,464.8,72Z" transform="translate(659.77)"/>
    <path id="Tracé_20" data-name="Tracé 20" class="cls-3" d="M1465.92,327.23c0-3.64-41.9-6.89-107.61-9,4-1.24,6.2-2.55,6.2-3.9,0-5.43-34.67-10.18-86.29-12.75,2.39-.75,3.76-1.58,3.76-2.45,0-3.21-17.73-5.81-39.6-5.81s-39.59,2.6-39.59,5.81a1.06,1.06,0,0,0,.16.46c-4.39,0-8.8-.05-13.27-.05-96.55,0-174.83,6.62-174.83,14.79,0,1,1.19,2,3.41,2.91-85.61,2.05-142.85,5.78-142.85,10,0,4,50.89,7.55,128.46,9.66-23.47,1.52-37.53,3.43-37.53,5.52,0,4.22,57.17,7.74,133.7,8.63,3.22,3.08,61.61,5.54,133.2,5.54,73.65,0,133.35-2.6,133.35-5.8,0-2.2-28-4.11-69.2-5.09,7.83-1,12.19-2.12,12.19-3.28,0-1.6-8.36-3.11-22.89-4.41C1392.07,336.21,1465.92,332.06,1465.92,327.23Z" transform="translate(659.77)"/>
    <path id="Tracé_21" data-name="Tracé 21" class="cls-4" d="M1496.7,231.24c0-2.81-52.1-5.31-132.71-6.88,52.17-2.4,86.13-6.32,86.13-10.74,0-5-42.75-9.28-106-11.55C1362.76,200.71,1374,199,1374,197c0-4.29-55.54-7.77-124.06-7.77s-124.06,3.48-124.06,7.77c0,1.79,9.61,3.43,25.73,4.74-68.46,2.16-115.57,6.66-115.57,11.87,0,3.57,22.1,6.8,58,9.18-151.34.82-265,4.29-265,8.44,0,2.5,40.93,4.74,106.33,6.32-3.92,1-6,2.08-6,3.17,0,7,84.6,12.7,191.85,13.19-3.15.69-4.88,1.41-4.88,2.16,0,4.29,55.54,7.77,124.06,7.77s124.06-3.48,124.06-7.77c0-3-27.78-5.66-68.26-6.94,29.5-2.28,47.21-5.21,47.21-8.41,0-.74-1-1.47-2.83-2.18C1434.38,237,1496.7,234.32,1496.7,231.24Z" transform="translate(659.77)"/>
    <path id="Tracé_22" data-name="Tracé 22" class="cls-5" d="M1103.79,466.83c0-2.44-45.24-4.61-115.24-6,45.3-2.09,74.79-5.49,74.79-9.33,0-4.31-37.12-8.06-92-10,16.17-1.18,26-2.71,26-4.39,0-3.72-48.23-6.75-107.72-6.75s-107.72,3-107.72,6.75c0,1.55,8.34,3,22.34,4.12-59.45,1.87-100.35,5.78-100.35,10.3,0,3.1,19.19,5.91,50.37,8-131.42.72-230.11,3.73-230.11,7.33,0,2.17,35.53,4.12,92.33,5.49-3.41.88-5.23,1.8-5.23,2.75,0,6.06,73.46,11,166.58,11.46-2.74.59-4.23,1.22-4.23,1.87,0,3.73,48.22,6.75,107.72,6.75S989,492.13,989,488.4c0-2.63-24.12-4.91-59.27-6,25.61-2,41-4.53,41-7.31,0-.64-.85-1.28-2.45-1.89C1049.67,471.85,1103.79,469.51,1103.79,466.83Z" transform="translate(659.77)"/>
    <path id="Tracé_23" data-name="Tracé 23" class="cls-6" d="M711.08,252.94c10.69-2.61,17-5.86,17-9.39,0-1.46-1.12-2.88-3.17-4.22,22.25-1.45,36.09-3.48,36.09-5.73,0-2.42-16-4.58-41.3-6a3.469,3.469,0,0,0,.27-1.33c0-5.44-13.42-10.12-32.7-12.23a2.8,2.8,0,0,0,1-2c0-5.74-25.17-10.4-56.23-10.4s-56.23,4.66-56.23,10.4c0,4.43,15,8.22,36.14,9.71-1.95,1.32-3,2.73-3.19,4.2-49.9,1-86.43,4-86.43,7.69,0,2.32,14.79,4.42,38.4,5.88-1.9,1.3-2.94,2.66-2.94,4.07,0,5.93,17.92,11.08,44.33,13.74-1.2.36-1.83.73-1.83,1.12,0,3.09,40.88,5.59,91.3,5.59S783,261.5,783,258.41C783,255.73,752.18,253.49,711.08,252.94Z" transform="translate(659.77)"/>
    <path id="Tracé_24" data-name="Tracé 24" class="cls-3" d="M896.9,129c-8.71,2.13-13.87,4.77-13.87,7.64,0,1.19.91,2.35,2.58,3.44-18.11,1.19-29.38,2.84-29.38,4.67s13,3.73,33.63,4.92a2.808,2.808,0,0,0-.23,1.09c0,4.43,10.94,8.24,26.64,10a2.32,2.32,0,0,0-.85,1.63c0,4.67,20.5,8.47,45.79,8.47S1007,167,1007,162.31c0-3.61-12.22-6.69-29.42-7.91,1.58-1.08,2.48-2.22,2.6-3.42,40.63-.78,70.38-3.29,70.38-6.26,0-1.9-12-3.6-31.27-4.79,1.55-1.06,2.39-2.17,2.39-3.32,0-4.82-14.59-9-36.1-11.18,1-.3,1.49-.6,1.49-.91,0-2.52-33.28-4.56-74.35-4.56s-74.35,2-74.35,4.56C838.36,126.7,863.44,128.52,896.9,129Z" transform="translate(659.77)"/>
  </g>
</svg>
