<svg xmlns="http://www.w3.org/2000/svg" width="3240.02" height="493.61" viewBox="0 0 3240.02 493.61">
  <defs>
    <style>
      .cls-1 {
        fill: #b64400;
      }

      .cls-2 {
        fill: #dc6b28;
      }

      .cls-3 {
        fill: #c35407;
      }

      .cls-4 {
        fill: #c6621d;
      }

      .cls-5 {
        fill: #b95215;
      }

      .cls-6 {
        fill: #cf6d38;
      }

      .cls-7 {
        fill: #e97d32;
      }

      .cls-8 {
        fill: #f28d56;
      }

      .cls-9 {
        fill: #512500;
        opacity: 0.2;
      }
    </style>
  </defs>
  <g id="Desert" transform="translate(0 -595.34)">
    <path id="Tracé_25" data-name="Tracé 25" class="cls-1" d="M1140,627.59V756h360.25V620.33C1442.7,642.4,1261.72,629.35,1140,627.59Z" transform="translate(659.77)"/>
    <path id="Tracé_26" data-name="Tracé 26" class="cls-2" d="M979.09,633.46c-62.42-6.35-192.35,15.18-375.77,0-62.59-5.18-143.87,10.74-183.09-13.54V681.6h817.71V634.07C1174.38,638.94,1096.94,645.44,979.09,633.46Z" transform="translate(659.77)"/>
    <path id="Tracé_27" data-name="Tracé 27" class="cls-3" d="M420.23,694.17h724.94L1115.29,677l-71.54-13.78L1014.48,646l-61.79-6-82.92-15.5s-45.53,7.75-53.66,9.47-91.05,11.19-91.05,11.19L658.4,662.35l-91-13.77s-34.15,0-42.28-.86-55.5-10.26-55.5-10.26l-49.34,11.31h0Z" transform="translate(659.77)"/>
    <path id="Tracé_28" data-name="Tracé 28" class="cls-1" d="M1703.52,663.21l-29.27-17.22-56.21,7.22-39.97,32.78-45.93,8.18,69.3-3.41Z"/>
    <path id="Tracé_29" data-name="Tracé 29" class="cls-1" d="M1612.47,639.97l-82.92-15.5-40.16,38.41,3.28,14.75-148.23,16.54h460.5l-261.32-9.42Z"/>
    <path id="Tracé_30" data-name="Tracé 30" class="cls-1" d="M1775.06,676.99l29.88,17.18h-401.7l331.07-5.7Z"/>
    <path id="Tracé_31" data-name="Tracé 31" class="cls-1" d="M1227.12,648.58l91.05,13.77-72.77,31.82H1125.96l50.78-4.88,28.41-14.84Z"/>
    <path id="Tracé_32" data-name="Tracé 32" class="cls-1" d="M1129.35,637.46l-19.46,33.65L1080,694.17l50.36-13.38,54.49-33.07Z"/>
    <path id="Tracé_33" data-name="Tracé 33" class="cls-3" d="M1500.23,640.4l-4.44-.43-82.92-15.5s-45.53,7.75-53.66,9.47-91,11.19-91,11.19l-66,17v32h298.08Z" transform="translate(659.77)"/>
    <path id="Tracé_34" data-name="Tracé 34" class="cls-1" d="M2160,654.14l-38.84,31.85-45.92,8.18,69.3-3.41,15.46-4.17Z"/>
    <path id="Tracé_35" data-name="Tracé 35" class="cls-1" d="M2160,694.17v-6.78l-73.28-2.64,68.84-44.78-82.92-15.5-40.15,38.41,3.28,14.75-148.23,16.54Z"/>
    <path id="Tracé_36" data-name="Tracé 36" class="cls-1" d="M2160,690.49l-213.67,3.68H2160Z"/>
    <path id="Tracé_37" data-name="Tracé 37" class="cls-4" d="M1080,762.54h249.43l-27.18-34.27-65.09-27.48-26.63-34.36-56.21-12.02L1080,623.95Z"/>
    <path id="Tracé_38" data-name="Tracé 38" class="cls-3" d="M1237.27,703.89l-32.54-36.67-50.53-8.73-67.42-27.55,23.75,26.75,5.74,34.17-35.81,9.58-.46,42.43Z"/>
    <path id="Tracé_39" data-name="Tracé 39" class="cls-5" d="M1080,762.54h249.43L1080,751.61Z"/>
    <path id="Tracé_40" data-name="Tracé 40" class="cls-5" d="M1080,758.16v4.38h245.36l-23.93-31.41-41.17,6.67-3.35,7.22,38.77,5.01Z"/>
    <path id="Tracé_41" data-name="Tracé 41" class="cls-6" d="M1236.81,703.89l58.4,25.01-35.43,5.56,10.06-7.78-23.46,4.45-20.45,21.53-65.55,2.47,52.22-7.83,15.81-18.39-11.71,1.66-70.24,23.95,57.47-32.2,15.17-8.42Z"/>
    <path id="Tracé_42" data-name="Tracé 42" class="cls-6" d="M1153.74,658.49l-26.45,15.64-8.18,21.78-21.16,15.08L1080,728.47v8.42l27.09-24.23,19.72-15.64,16.96-19.8,63.84-8.12Z"/>
    <path id="Tracé_43" data-name="Tracé 43" class="cls-4" d="M1500.23,624.68c-9.83,3.68-39.49,14.85-45.64,17.71-7.39,3.43-82.84,22.33-82.84,22.33l-60.65,34.35-82.84-27.48s-31.07,0-38.46-1.72-50.5-20.46-50.5-20.46L1094.41,672,1000,762.54h500.19Z" transform="translate(659.77)"/>
    <path id="Tracé_44" data-name="Tracé 44" class="cls-6" d="M1667.24,759.48l87.12-83.38,45.47-22.23L1765.37,685l4.3,15-34.94,45.58-47.87,11.67,43.56-17.23,22.44-39.28-14.45,3.42-30.01,31.97-10.53,2.23Z"/>
    <path id="Tracé_45" data-name="Tracé 45" class="cls-5" d="M2160,751.42l-30.64-1.34,26.45-5.59,4.19-3.98V677.58l-30.36,51.98-67.01,18.66,5.03-11.25-19.39,13.75-53.49,11.82H2160Z"/>
    <path id="Tracé_46" data-name="Tracé 46" class="cls-5" d="M2160,758.33l-111.73,4.21H2160Z"/>
    <path id="Tracé_47" data-name="Tracé 47" class="cls-5" d="M1898.11,678.99l62.18,28.49-55.63,55.06H1796l46.19-9.73,29.44-7.51,22.62-44.6-26.21,22.51Z"/>
    <path id="Tracé_48" data-name="Tracé 48" class="cls-6" d="M2160,627.02l-43.33,17.72-81.75,21.78-74.63,40.96-51.8,52,53.14-48.36,42.12-17.79-21.54,36.69-45.48,25.57,48.83-19.46,38.3-50.58,1.79,8.45-12.33,53.8,60.73-74.22,6.62,8.02-29.78,24.81,32.67-6.2,24.82-18.97-9.93-16.78,28.13-11.31-11.17,16.78,31.47-24.4,13.12-15.3Z"/>
    <path id="Tracé_49" data-name="Tracé 49" class="cls-5" d="M1803.42,654.84l48.9,19.05-52.17,41.69-15.64,21.66-31.54,22.13-7.23,3.17h-50.02L1740,751.42l55.52-55.31,8.86-30.29-22.26,16.95Z"/>
    <path id="Tracé_50" data-name="Tracé 50" class="cls-6" d="M1890.62,675.56l-38.3-1.67-33.51,26.78,15.73-7.34-11.49,12.79-22.9,9.46-17.24,20.56-30.15,22.79,34.46-20.01,16.76-18.34,22.42-5.01,18.91-14.73,13.83-3.17-5.22,14-26.01,21.14-10.53,16.68-22.5,10,24.39-5.57,11.2-16.68,27.28-16.12Z"/>
    <path id="Tracé_51" data-name="Tracé 51" class="cls-7" d="M1500.23,747.69l-39-37.29L1368,680.5l-38.14-37.37L1249.37,630,1141.3,596.41S1082,613.23,1071.37,617,952.7,641.3,952.7,641.3l-86.88,37.37-118.67-29.9s-44.51,0-55.1-1.87-72.33-22.26-72.33-22.26l-64.31,24.55-135.18,98.5Z" transform="translate(659.77)"/>
    <path id="Tracé_52" data-name="Tracé 52" class="cls-8" d="M1090.63,744.35l124.8-90.71,65.14-24.18-49.37,33.86,6.17,16.33-50.06,49.59-68.57,12.7,62.4-18.75,32.14-42.74-20.69,3.72-42.99,34.79-15.09,2.42Z"/>
    <path id="Tracé_53" data-name="Tracé 53" class="cls-3" d="M2027.31,683.88l-39.08-34.47-71.83,9.39-22.17,29.82,27.72-21.51-38.26,50.84-79.23,29.74,90.32-7.4Z"/>
    <path id="Tracé_54" data-name="Tracé 54" class="cls-3" d="M1908.32,634.48l-99.75-31.34-59.83,76.63,53.42-48.37,2.37,13.43-51.51,66.98-95.99,20.3,7.2-12.25-27.77,14.97-114.68-8.07,116.28,33.44L2160,747.69l-429.54-4.89,60.05-14.75,72.91-52.68Z"/>
    <path id="Tracé_55" data-name="Tracé 55" class="cls-1" d="M1908.32,634.48l-41.34-12.99,8.01,12.18-19.03,4-85.47,82.92L1608.1,761.08l73.46-10.8,108.95-22.23,72.91-52.68Z"/>
    <path id="Tracé_56" data-name="Tracé 56" class="cls-2" d="M2119.89,713.51l34.28,34.18-317.95,19.18,275.44-32.8-55.55-5.44,4.8-7.86Z"/>
    <path id="Tracé_57" data-name="Tracé 57" class="cls-8" d="M2027.31,683.88l83.66,27.21-50.74,6.05,14.4-8.47-33.6,4.84-29.29,23.43-93.91,2.69,74.8-8.52,22.66-20-16.78,1.8-100.62,26.06,82.33-35.05,21.72-9.15Z"/>
    <path id="Tracé_58" data-name="Tracé 58" class="cls-8" d="M1985.48,646.03l-77.16-11.55-37.89,17.02-11.71,23.69L1828.4,691.6l-42.71,31.59L1757.18,733l37.21-4.78,47.1-34.8,28.25-17.01,21.36-21.27,2.95-.28L1884,685.7l-24,7.25-40.46,31.45,41.83-26.61,25.37-7.86L1908,653.64Z"/>
    <path id="Tracé_59" data-name="Tracé 59" class="cls-3" d="M1421.36,656.79l89.07,30.99-79.69,59.91-197.98-13.74,69.49-5.68,91.57-14.9,22.01-32.97-37.54,24.5Z"/>
    <path id="Tracé_60" data-name="Tracé 60" class="cls-1" d="M1465.33,680.9l45.1,6.88-55.68,42.45-51.5,10.9,3.57-7.76,54.39-24.78-37.01,6.54Z"/>
    <path id="Tracé_61" data-name="Tracé 61" class="cls-8" d="M1802.58,598.36l-68.14,21.16-117.1,23.71-106.91,44.55-74.2,56.57,76.11-52.61,60.34-19.35-30.85,39.91-65.14,27.82,69.94-21.16,54.85-55.04,37.03-14.51,32.86-1.57-10.23,40.27-74.74,43.54,78.66-34.82,46.82-48.02,5.71,32.31-81.13,53.71,86.36-44.53,11.01-14.89,5.48-38.7,8.09-2.97,10.43,16.88,19.88-30.24Z"/>
    <path id="Tracé_62" data-name="Tracé 62" class="cls-3" d="M1285.71,630.51l70.06,20.73-74.75,45.36-22.39,23.56-45.19,24.08-10.35,3.45h-71.66l63.43-12.1,79.54-60.18,12.69-32.95L1255.2,660.9Z"/>
    <path id="Tracé_63" data-name="Tracé 63" class="cls-1" d="M1307.35,636.92l48.42,14.32-74.75,45.36-22.39,23.56-45.19,24.08-18.58-8.65,33.08-6.68,45.99-32.03,11.36-16.66Z"/>
    <path id="Tracé_64" data-name="Tracé 64" class="cls-8" d="M1410.62,653.05l-54.85-1.81-48.02,29.14,22.54-7.99-16.46,13.91-32.81,10.3-24.68,22.37-43.2,24.79,49.37-21.77,24-19.95,32.12-5.46,27.08-16.03,19.83-3.43-7.48,15.23-13.62,1.82-12.71,12.9-38.67,10.53,41.4-4.8,17.8-5.11,11.28-5.06Z"/>
    <path id="Tracé_65" data-name="Tracé 65" class="cls-3" d="M867.46,727.5c-93.21-14.51-372.88,33-447.23-17.22V949H1499.76l.47-232.95C1414.89,677.23,1236.67,785,867.46,727.5Z" transform="translate(659.77)"/>
    <path id="Tracé_66" data-name="Tracé 66" class="cls-9" d="M1500.22,717.69H1360.39c-105.51,17-261.79,45.8-492.93,9.81-88.08-13.71-342.64,28-433.13-9.81h-14.1l135.18,48.4,64.31,12.06s61.73-10,72.33-10.93,55.1-.92,55.1-.92l118.67-14.69L952.7,770s108.07,10.1,118.67,11.93S1141.3,792,1141.3,792l108.07-16.52,80.53-6.43,38.1-18.36L1461.28,736l38.94-18.32Z" transform="translate(659.77)"/>
    <path id="Tracé_67" data-name="Tracé 67" class="cls-2" d="M867.65,783c288,62.81,477.26,28.75,632.58,3.2v249.09h-1080V781.77C602.28,725.52,715.11,749.74,867.65,783Z" transform="translate(659.77)"/>
    <path id="Tracé_68" data-name="Tracé 68" class="cls-3" d="M973.25,818.13c294.25,48.4,454,89.42,527,57.49v159.67h-1080V875.62C596.11,803.23,786.6,787.43,973.25,818.13Z" transform="translate(659.77)"/>
    <path id="Tracé_69" data-name="Tracé 69" class="cls-7" d="M880,814.94C787.31,801.2,479.57,836.35,420.23,866v214h1080V875.62C1425.14,901.16,1260.16,871.28,880,814.94Z" transform="translate(659.77)"/>
    <path id="Tracé_70" data-name="Tracé 70" class="cls-8" d="M936.23,1045.94s136.31-75.21,351.77-92.62c72.83-5.88,162.51,7.46,162.51,7.46C1313.37,890.52,1072,952.26,936.23,1045.94Z" transform="translate(659.77)"/>
    <path id="Tracé_71" data-name="Tracé 71" class="cls-2" d="M936.23,1045.94c43.88-34.07,305.14-192.68,514.28-85.16C1235.2,882,936.23,1045.94,936.23,1045.94Z" transform="translate(659.77)"/>
    <path id="Tracé_72" data-name="Tracé 72" class="cls-2" d="M538,994.09c218.2,87.3,638.61,32.32,331.3-86.5C1034.92,1008.67,691.05,1046.11,538,994.09Z" transform="translate(659.77)"/>
    <path id="Tracé_73" data-name="Tracé 73" class="cls-8" d="M456.73,981.09c32.92-25.55,192.42-112.88,342.38-65C630.9,898.06,456.73,981.09,456.73,981.09Z" transform="translate(659.77)"/>
    <path id="Tracé_74" data-name="Tracé 74" class="cls-2" d="M1282.75,778.74c20.32-15.78,118.84-69.71,211.46-40.12C1390.32,727.46,1282.75,778.74,1282.75,778.74Z" transform="translate(659.77)"/>
    <path id="Tracé_75" data-name="Tracé 75" class="cls-1" d="M1365.84,765.11c-27,17.35-156.75,72.48-273.92,21.2C1224.66,815.54,1365.84,765.11,1365.84,765.11Z" transform="translate(659.77)"/>
    <path id="Tracé_76" data-name="Tracé 76" class="cls-7" d="M537.7,770.64c60.77-21.76,152.93-21.63,215.77,11.27C661.8,756.81,537.7,770.64,537.7,770.64Z" transform="translate(659.77)"/>
    <path id="Tracé_77" data-name="Tracé 77" class="cls-2" d="M756.82,733.54c51.91-11,129.52-1.86,181.34,29.91C861.8,734.93,756.82,733.54,756.82,733.54Z" transform="translate(659.77)"/>
    <path id="Tracé_78" data-name="Tracé 78" class="cls-2" d="M1096.83,937.47c-7.51,0-13.61,1.7-13.61,3.79s6.1,3.8,13.61,3.8,13.61-1.7,13.61-3.8S1104.35,937.47,1096.83,937.47Zm-3.29,3.37c-2.8,0-5.07-.64-5.07-1.43s2.27-1.44,5.07-1.44,5.08.65,5.08,1.44-2.27,1.43-5.08,1.43Z" transform="translate(659.77)"/>
    <path id="Tracé_79" data-name="Tracé 79" class="cls-8" d="M1112.31,1003.52c-5.28,0-9.56,1.19-9.56,2.66s4.28,2.67,9.56,2.67,9.57-1.2,9.57-2.67S1117.6,1003.52,1112.31,1003.52Zm-2.31,2.37c-2,0-3.57-.46-3.57-1s1.6-1,3.57-1,3.57.45,3.57,1S1112,1005.89,1110,1005.89Z" transform="translate(659.77)"/>
    <path id="Tracé_80" data-name="Tracé 80" class="cls-8" d="M838.86,902.5c-8.26,0-15,1.86-15,4.16s6.69,4.17,15,4.17,14.94-1.87,14.94-4.17S847.11,902.5,838.86,902.5Zm-3.61,3.7c-3.08,0-5.58-.71-5.58-1.58s2.5-1.57,5.58-1.57,5.58.7,5.58,1.57S838.33,906.2,835.25,906.2Z" transform="translate(659.77)"/>
    <path id="Tracé_81" data-name="Tracé 81" class="cls-2" d="M549.15,1002.26c-8.25,0-14.95,1.86-14.95,4.16s6.7,4.17,14.95,4.17,15-1.87,15-4.17S557.41,1002.26,549.15,1002.26Zm-3.61,3.7c-3.08,0-5.58-.7-5.58-1.57s2.5-1.58,5.58-1.58,5.58.71,5.58,1.58-2.5,1.61-5.58,1.61Z" transform="translate(659.77)"/>
    <ellipse id="Ellipse_3" data-name="Ellipse 3" class="cls-2" cx="5.58" cy="1.58" rx="5.58" ry="1.58" transform="translate(1221.16 1013.34)"/>
    <path id="Tracé_82" data-name="Tracé 82" class="cls-8" d="M769.53,897.2c-3.08,0-5.58-.7-5.58-1.57s2.5-1.58,5.58-1.58,5.58.71,5.58,1.58S772.61,897.2,769.53,897.2Z" transform="translate(659.77)"/>
    <ellipse id="Ellipse_4" data-name="Ellipse 4" class="cls-8" cx="5.58" cy="1.58" rx="5.58" ry="1.58" transform="translate(1437.83 901.79)"/>
    <ellipse id="Ellipse_5" data-name="Ellipse 5" class="cls-2" cx="5.58" cy="1.58" rx="5.58" ry="1.58" transform="translate(1764.18 945.89)"/>
    <ellipse id="Ellipse_6" data-name="Ellipse 6" class="cls-8" cx="5.58" cy="1.58" rx="5.58" ry="1.58" transform="translate(2016.12 973.14)"/>
    <path id="Tracé_83" data-name="Tracé 83" class="cls-8" d="M1373.42,980.87c-4.5,0-8.14-1-8.14-2.3s3.64-2.3,8.14-2.3,8.13,1,8.13,2.3S1377.91,980.87,1373.42,980.87Z" transform="translate(659.77)"/>
    <path id="Tracé_84" data-name="Tracé 84" class="cls-8" d="M902.84,1067.63c-3.08,0-5.57-.71-5.57-1.58s2.49-1.57,5.57-1.57,5.58.7,5.58,1.57S905.93,1067.63,902.84,1067.63Z" transform="translate(659.77)"/>
    <path id="Tracé_85" data-name="Tracé 85" class="cls-2" d="M915.32,1053.14c-5.26,0-9.53-1.21-9.53-2.69s4.27-2.7,9.53-2.7,9.54,1.21,9.54,2.7S920.59,1053.14,915.32,1053.14Z" transform="translate(659.77)"/>
    <path id="Tracé_86" data-name="Tracé 86" class="cls-2" d="M502.71,979.25c-3.08,0-5.58-.71-5.58-1.58s2.5-1.58,5.58-1.58,5.58.71,5.58,1.58S505.79,979.25,502.71,979.25Z" transform="translate(659.77)"/>
    <path id="Tracé_87" data-name="Tracé 87" class="cls-1" d="M60,626.53V754.9H420.23V619.27C362.7,641.33,181.72,628.29,60,626.53Z" transform="translate(659.77)"/>
    <path id="Tracé_88" data-name="Tracé 88" class="cls-2" d="M-100.91,632.4c-62.42-6.35-192.35,15.17-375.77,0-62.59-5.18-143.87,10.74-183.09-13.55v61.69H157.94V633C94.38,637.88,16.94,644.38-100.91,632.4Z" transform="translate(659.77)"/>
    <path id="Tracé_89" data-name="Tracé 89" class="cls-3" d="M-659.77,693.1H65.17L35.29,675.92l-71.54-13.77-29.27-17.22-61.79-6-82.92-15.5s-45.53,7.75-53.66,9.47-91.05,11.2-91.05,11.2l-66.66,17.22-91-13.78s-34.15,0-42.28-.86-55.5-10.26-55.5-10.26l-49.34,11.31h0Z" transform="translate(659.77)"/>
    <path id="Tracé_90" data-name="Tracé 90" class="cls-1" d="M623.52,662.15l-29.27-17.22-56.22,7.22-39.97,32.78-45.92,8.17,69.3-3.41Z"/>
    <path id="Tracé_91" data-name="Tracé 91" class="cls-1" d="M532.47,638.9l-82.92-15.5-40.16,38.41,3.28,14.76L264.44,693.1h460.5l-261.32-9.41Z"/>
    <path id="Tracé_92" data-name="Tracé 92" class="cls-1" d="M695.06,675.92l29.88,17.18H323.24l331.07-5.69Z"/>
    <path id="Tracé_93" data-name="Tracé 93" class="cls-1" d="M147.12,647.51l91.05,13.78L165.4,693.1H45.97l50.77-4.88,28.41-14.83Z"/>
    <path id="Tracé_94" data-name="Tracé 94" class="cls-1" d="M49.35,636.39,29.89,670.04,0,693.1l50.36-13.37,54.48-33.08Z"/>
    <path id="Tracé_95" data-name="Tracé 95" class="cls-3" d="M420.23,639.33l-4.44-.43-82.92-15.5s-45.53,7.75-53.66,9.47-91,11.2-91,11.2l-66,17v32H420.23Z" transform="translate(659.77)"/>
    <path id="Tracé_96" data-name="Tracé 96" class="cls-1" d="M1080,653.08l-38.84,31.85-45.92,8.17,69.3-3.41,15.46-4.17Z"/>
    <path id="Tracé_97" data-name="Tracé 97" class="cls-1" d="M1080,693.1v-6.77l-73.28-2.64,68.84-44.79-82.92-15.5-40.15,38.41,3.28,14.76L807.54,693.1Z"/>
    <path id="Tracé_98" data-name="Tracé 98" class="cls-1" d="M1080,689.43,866.33,693.1H1080Z"/>
    <path id="Tracé_99" data-name="Tracé 99" class="cls-4" d="M0,761.48H249.43l-27.18-34.27-65.09-27.49-26.63-34.35L74.32,653.35,0,622.89Z"/>
    <path id="Tracé_100" data-name="Tracé 100" class="cls-3" d="M157.27,702.83l-32.54-36.68L74.2,657.42,6.78,629.88l23.75,26.75,5.74,34.16L.46,700.37,0,742.8Z"/>
    <path id="Tracé_101" data-name="Tracé 101" class="cls-5" d="M0,761.48H249.43L0,750.54Z"/>
    <path id="Tracé_102" data-name="Tracé 102" class="cls-5" d="M0,757.1v4.38H245.36l-23.93-31.42-41.17,6.67-3.35,7.23,38.77,5Z"/>
    <path id="Tracé_103" data-name="Tracé 103" class="cls-6" d="M156.81,702.83l58.4,25.01-35.43,5.56,10.06-7.78-23.46,4.44-20.45,21.53-65.55,2.48,52.22-7.83,15.81-18.39-11.71,1.66L66.46,753.46l57.47-32.21,15.16-8.42Z"/>
    <path id="Tracé_104" data-name="Tracé 104" class="cls-6" d="M73.74,657.42,47.29,673.06l-8.18,21.78L17.95,709.92,0,727.4v8.42L27.09,711.6l19.72-15.64,16.96-19.81,63.84-8.11Z"/>
    <path id="Tracé_105" data-name="Tracé 105" class="cls-4" d="M420.23,623.62c-9.83,3.68-39.49,14.84-45.64,17.7-7.39,3.44-82.84,22.33-82.84,22.33L231.1,698l-82.84-27.49s-31.07,0-38.46-1.72-50.5-20.46-50.5-20.46L14.41,670.91-80,761.48H420.23Z" transform="translate(659.77)"/>
    <path id="Tracé_106" data-name="Tracé 106" class="cls-6" d="M587.24,758.41l87.12-83.37,45.47-22.24-34.46,31.13,4.3,15.01-34.94,45.58-47.87,11.67,43.56-17.23,22.44-39.28-14.45,3.42L628.4,735.07l-10.53,2.22Z"/>
    <path id="Tracé_107" data-name="Tracé 107" class="cls-5" d="M1080,750.36l-30.64-1.35,26.45-5.58,4.19-3.99V676.51l-30.36,51.99-67.01,18.66,5.02-11.26-19.38,13.76-53.5,11.82H1080Z"/>
    <path id="Tracé_108" data-name="Tracé 108" class="cls-5" d="M1080,757.26l-111.73,4.22H1080Z"/>
    <path id="Tracé_109" data-name="Tracé 109" class="cls-5" d="M818.11,677.93l62.18,28.49-55.63,55.06H716l46.2-9.74,29.43-7.5,22.62-44.61-26.21,22.51Z"/>
    <path id="Tracé_110" data-name="Tracé 110" class="cls-6" d="M1080,625.96l-43.33,17.72-81.75,21.78-74.63,40.96-51.8,51.99,53.14-48.36,42.12-17.78-21.54,36.68-45.47,25.57,48.82-19.45,38.3-50.58,1.79,8.45-12.33,53.8,60.73-74.23,6.62,8.03-29.78,24.8,32.67-6.2,24.82-18.97-9.93-16.78,28.13-11.31-11.17,16.78,31.47-24.39,13.12-15.3Z"/>
    <path id="Tracé_111" data-name="Tracé 111" class="cls-5" d="M723.42,653.78l48.9,19.05-52.17,41.68-15.64,21.67-31.54,22.13-7.23,3.17H615.72L660,750.35l55.52-55.3,8.86-30.3-22.26,16.96Z"/>
    <path id="Tracé_112" data-name="Tracé 112" class="cls-6" d="M810.62,674.49l-38.3-1.66-33.51,26.78,15.73-7.34-11.49,12.78-22.9,9.46-17.24,20.57-30.15,22.79,34.46-20.01,16.76-18.34,22.42-5.02,18.91-14.73,13.83-3.16-5.22,14-26.01,21.14-10.53,16.67-22.5,10,24.39-5.57,11.2-16.67,27.28-16.12Z"/>
    <path id="Tracé_113" data-name="Tracé 113" class="cls-7" d="M420.23,746.63l-39-37.29L288,679.44l-38.1-37.38L169.37,629,61.3,595.34S2,612.16-8.63,615.9-127.3,640.19-127.3,640.19l-86.88,37.38-118.67-29.9s-44.51,0-55.1-1.87-72.33-22.26-72.33-22.26l-64.31,24.55-135.18,98.54Z" transform="translate(659.77)"/>
    <path id="Tracé_114" data-name="Tracé 114" class="cls-8" d="M10.63,743.29l124.8-90.71,65.14-24.19L151.2,662.26l6.17,16.32-50.06,49.59-68.57,12.7,62.4-18.75,32.14-42.73-20.69,3.72L69.6,717.89l-15.09,2.42Z"/>
    <path id="Tracé_115" data-name="Tracé 115" class="cls-3" d="M947.31,682.82l-39.08-34.47-71.83,9.38-22.17,29.82,27.72-21.51L803.7,716.89l-79.24,29.74,90.32-7.41Z"/>
    <path id="Tracé_116" data-name="Tracé 116" class="cls-3" d="M828.32,633.42l-99.75-31.35-59.83,76.64,53.42-48.37,2.37,13.42-51.51,66.98-95.99,20.3,7.2-12.24-27.77,14.96-114.68-8.07,116.28,33.44L1080,746.63l-429.54-4.89,60.05-14.75,72.91-52.68Z"/>
    <path id="Tracé_117" data-name="Tracé 117" class="cls-1" d="M828.32,633.42l-41.33-12.99L795,632.61l-19.04,4-85.47,82.91L528.1,760.01l73.46-10.79,108.95-22.23,72.91-52.68Z"/>
    <path id="Tracé_118" data-name="Tracé 118" class="cls-2" d="M1039.88,712.45l34.29,34.18L756.22,765.8l275.44-32.79-55.55-5.44,4.8-7.86Z"/>
    <path id="Tracé_119" data-name="Tracé 119" class="cls-8" d="M947.31,682.82l83.66,27.21-50.74,6.05,14.4-8.47-33.6,4.84-29.29,23.42-93.91,2.69,74.8-8.52,22.65-20-16.77,1.8L817.89,737.9l82.33-35.04,21.72-9.16Z"/>
    <path id="Tracé_120" data-name="Tracé 120" class="cls-8" d="M905.48,644.96l-77.16-11.54-37.89,17.01-11.71,23.7-30.32,16.4-42.71,31.6-28.51,9.8,37.21-4.78,47.1-34.79,28.25-17.02,21.36-21.26,2.94-.29L804,684.63l-24,7.26-40.46,31.44,41.83-26.6,25.37-7.87L828,652.58Z"/>
    <path id="Tracé_121" data-name="Tracé 121" class="cls-3" d="M341.36,655.73l89.07,30.99-79.69,59.91L152.76,732.88l69.49-5.67,91.57-14.9,22.01-32.97-37.54,24.49Z"/>
    <path id="Tracé_122" data-name="Tracé 122" class="cls-1" d="M385.33,679.84l45.1,6.88-55.68,42.45-51.5,10.9,3.57-7.77,54.39-24.78-37.01,6.54Z"/>
    <path id="Tracé_123" data-name="Tracé 123" class="cls-8" d="M722.58,597.3l-68.14,21.16-117.1,23.7L430.43,686.72l-74.2,56.57,76.11-52.61,60.35-19.35-30.86,39.91-65.14,27.82,69.94-21.17,54.86-55.03,37.02-14.51,32.86-1.58-10.23,40.28L506.4,730.59l78.66-34.83,46.82-48.02,5.72,32.31-81.14,53.71,86.36-44.52,11.01-14.89,5.48-38.7,8.09-2.97,10.43,16.88,19.88-30.24Z"/>
    <path id="Tracé_124" data-name="Tracé 124" class="cls-3" d="M205.71,629.45l70.06,20.72-74.75,45.36L178.63,719.1l-45.19,24.08-10.35,3.45H51.43l63.43-12.11,79.54-60.17,12.69-32.96L175.2,659.84Z"/>
    <path id="Tracé_125" data-name="Tracé 125" class="cls-1" d="M227.35,635.85l48.42,14.32-74.75,45.36L178.63,719.1l-45.19,24.08-18.58-8.66,33.08-6.67,45.99-32.03,11.36-16.66Z"/>
    <path id="Tracé_126" data-name="Tracé 126" class="cls-8" d="M330.62,651.99l-54.85-1.82-48.02,29.14,22.54-7.98-16.46,13.91-32.81,10.29-24.68,22.38-43.2,24.79,49.37-21.77,24-19.96,32.12-5.45,27.08-16.03,19.83-3.44-7.48,15.23-13.62,1.82L251.73,706l-38.67,10.53,41.4-4.79,17.8-5.11,11.28-5.07Z"/>
    <path id="Tracé_127" data-name="Tracé 127" class="cls-3" d="M-212.54,726.44c-93.21-14.51-372.88,33-447.23-17.23V948H419.76l.47-233C334.89,676.17,156.67,783.92-212.54,726.44Z" transform="translate(659.77)"/>
    <path id="Tracé_128" data-name="Tracé 128" class="cls-9" d="M420.22,716.63H280.39c-105.51,17-261.79,45.79-492.93,9.81-88.08-13.71-342.64,27.94-433.13-9.81h-14.1L-524.59,765l64.31,12.06s61.73-10,72.33-10.94,55.1-.92,55.1-.92l118.67-14.68,86.88,18.36S-19.23,779-8.63,780.84s69.93,10.1,69.93,10.1l108.07-16.53L249.9,768,288,749.63l93.24-14.69,38.94-18.31Z" transform="translate(659.77)"/>
    <path id="Tracé_129" data-name="Tracé 129" class="cls-2" d="M-212.35,781.94c288,62.8,477.26,25.38,632.58-.17v252.46h-1080V780.7C-477.72,724.46-364.89,748.67-212.35,781.94Z" transform="translate(659.77)"/>
    <path id="Tracé_130" data-name="Tracé 130" class="cls-3" d="M-106.75,817.07c294.25,48.4,454,89.42,527,57.48v159.68h-1080V874.55C-483.89,802.17-293.4,786.36-106.75,817.07Z" transform="translate(659.77)"/>
    <path id="Tracé_131" data-name="Tracé 131" class="cls-7" d="M-200,813.87c-92.69-13.73-400.43,21.42-459.77,51.1v214l1080,1.06V866C345.14,891.58,180.16,870.22-200,813.87Z" transform="translate(659.77)"/>
    <path id="Tracé_132" data-name="Tracé 132" class="cls-8" d="M-143.77,1044.87S-7.46,969.66,208,952.26c72.83-5.88,162.51,7.45,162.51,7.45C233.37,889.45-8,951.19-143.77,1044.87Z" transform="translate(659.77)"/>
    <path id="Tracé_133" data-name="Tracé 133" class="cls-2" d="M-143.77,1044.87c43.88-34.06,305.14-192.67,514.28-85.16C155.2,880.94-143.77,1044.87-143.77,1044.87Z" transform="translate(659.77)"/>
    <path id="Tracé_134" data-name="Tracé 134" class="cls-2" d="M-542,993c218.2,87.29,638.61,32.31,331.3-86.51C-45.08,1007.61-388.95,1045.05-542,993Z" transform="translate(659.77)"/>
    <path id="Tracé_135" data-name="Tracé 135" class="cls-8" d="M-623.27,980c32.92-25.55,192.42-112.87,342.38-64.95C-449.1,897-623.27,980-623.27,980Z" transform="translate(659.77)"/>
    <path id="Tracé_136" data-name="Tracé 136" class="cls-2" d="M202.75,777.68C223.08,761.9,321.59,708,414.21,737.56,310.32,726.39,202.75,777.68,202.75,777.68Z" transform="translate(659.77)"/>
    <path id="Tracé_137" data-name="Tracé 137" class="cls-1" d="M285.84,764c-27,17.35-156.75,72.49-273.92,21.21C144.66,814.48,285.84,764,285.84,764Z" transform="translate(659.77)"/>
    <path id="Tracé_138" data-name="Tracé 138" class="cls-7" d="M-542.3,769.57c60.77-21.75,152.93-21.62,215.77,11.27C-418.2,755.75-542.3,769.57-542.3,769.57Z" transform="translate(659.77)"/>
    <path id="Tracé_139" data-name="Tracé 139" class="cls-2" d="M-323.18,732.48c51.91-11,129.52-1.87,181.34,29.9C-218.2,733.86-323.18,732.48-323.18,732.48Z" transform="translate(659.77)"/>
    <path id="Tracé_140" data-name="Tracé 140" class="cls-2" d="M16.83,936.41c-7.51,0-13.61,1.7-13.61,3.79s6.1,3.8,13.61,3.8,13.61-1.7,13.61-3.79S24.35,936.41,16.83,936.41Zm-3.29,3.37c-2.8,0-5.07-.64-5.07-1.44s2.27-1.43,5.07-1.43,5.08.64,5.08,1.43-2.27,1.44-5.08,1.44Z" transform="translate(659.77)"/>
    <path id="Tracé_141" data-name="Tracé 141" class="cls-8" d="M32.31,1002.45c-5.28,0-9.56,1.19-9.56,2.67s4.28,2.66,9.56,2.66,9.57-1.19,9.57-2.66S37.6,1002.45,32.31,1002.45ZM30,1004.82c-2,0-3.57-.45-3.57-1s1.6-1,3.57-1,3.57.46,3.57,1S32,1004.82,30,1004.82Z" transform="translate(659.77)"/>
    <path id="Tracé_142" data-name="Tracé 142" class="cls-8" d="M-241.14,901.43c-8.26,0-14.95,1.87-14.95,4.17s6.69,4.16,14.95,4.16,14.94-1.86,14.94-4.16S-232.89,901.43-241.14,901.43Zm-3.61,3.7c-3.08,0-5.58-.7-5.58-1.57s2.5-1.58,5.58-1.58,5.58.71,5.58,1.58S-241.67,905.13-244.75,905.13Z" transform="translate(659.77)"/>
    <path id="Tracé_143" data-name="Tracé 143" class="cls-2" d="M-530.85,1001.19c-8.25,0-14.95,1.87-14.95,4.17s6.7,4.16,14.95,4.16,15-1.86,15-4.16S-522.59,1001.19-530.85,1001.19Zm-3.61,3.71c-3.08,0-5.58-.71-5.58-1.58s2.5-1.57,5.58-1.57,5.58.7,5.58,1.57-2.5,1.58-5.58,1.58Z" transform="translate(659.77)"/>
    <ellipse id="Ellipse_7" data-name="Ellipse 7" class="cls-2" cx="5.58" cy="1.58" rx="5.58" ry="1.58" transform="translate(141.16 1012.28)"/>
    <path id="Tracé_144" data-name="Tracé 144" class="cls-8" d="M-310.47,896.14c-3.08,0-5.58-.71-5.58-1.58s2.5-1.57,5.58-1.57,5.58.7,5.58,1.57S-307.39,896.14-310.47,896.14Z" transform="translate(659.77)"/>
    <ellipse id="Ellipse_8" data-name="Ellipse 8" class="cls-8" cx="5.58" cy="1.58" rx="5.58" ry="1.58" transform="translate(357.83 900.73)"/>
    <ellipse id="Ellipse_9" data-name="Ellipse 9" class="cls-2" cx="5.58" cy="1.58" rx="5.58" ry="1.58" transform="translate(684.18 944.82)"/>
    <ellipse id="Ellipse_10" data-name="Ellipse 10" class="cls-8" cx="5.58" cy="1.58" rx="5.58" ry="1.58" transform="translate(936.12 972.07)"/>
    <path id="Tracé_145" data-name="Tracé 145" class="cls-8" d="M293.42,979.8c-4.5,0-8.14-1-8.14-2.3s3.64-2.29,8.14-2.29,8.13,1,8.13,2.29S297.91,979.8,293.42,979.8Z" transform="translate(659.77)"/>
    <path id="Tracé_146" data-name="Tracé 146" class="cls-8" d="M-177.16,1066.56c-3.08,0-5.57-.7-5.57-1.57s2.49-1.58,5.57-1.58,5.58.71,5.58,1.58S-174.07,1066.56-177.16,1066.56Z" transform="translate(659.77)"/>
    <path id="Tracé_147" data-name="Tracé 147" class="cls-2" d="M-164.68,1052.07c-5.26,0-9.53-1.2-9.53-2.69s4.27-2.69,9.53-2.69,9.54,1.2,9.54,2.69S-159.41,1052.07-164.68,1052.07Z" transform="translate(659.77)"/>
    <path id="Tracé_148" data-name="Tracé 148" class="cls-2" d="M-577.29,978.18c-3.08,0-5.58-.7-5.58-1.57s2.5-1.58,5.58-1.58,5.58.71,5.58,1.58S-574.21,978.18-577.29,978.18Z" transform="translate(659.77)"/>
    <path id="Tracé_149" data-name="Tracé 149" class="cls-1" d="M2220,636.51V764.88h360.24V629.25C2522.7,651.31,2341.72,638.27,2220,636.51Z" transform="translate(659.77)"/>
    <path id="Tracé_150" data-name="Tracé 150" class="cls-2" d="M2059.08,642.38c-62.42-6.35-192.34,15.18-375.77,0-62.59-5.18-143.86,2.23-183.08-22v70.19h817.72V643C2254.38,647.86,2176.94,654.36,2059.08,642.38Z" transform="translate(659.77)"/>
    <path id="Tracé_151" data-name="Tracé 151" class="cls-3" d="M1500.22,703.09h724.94l-29.88-17.18-71.54-13.78-29.26-17.22-61.79-6-82.92-15.49s-45.53,7.74-53.66,9.47-91,11.19-91,11.19l-66.67,17.22-91.05-13.78s-34.14,0-42.27-.86-55.5-10.25-55.5-10.25l-49.34,11.31h0Z" transform="translate(659.77)"/>
    <path id="Tracé_152" data-name="Tracé 152" class="cls-1" d="M2783.52,672.13l-29.27-17.22-56.22,7.22-39.97,32.78-45.92,8.18,69.3-3.42Z"/>
    <path id="Tracé_153" data-name="Tracé 153" class="cls-1" d="M2692.46,648.88l-82.92-15.49-40.15,38.4,3.28,14.76-148.23,16.54h460.5l-261.32-9.42Z"/>
    <path id="Tracé_154" data-name="Tracé 154" class="cls-1" d="M2855.06,685.91l29.88,17.18h-401.7l331.06-5.7Z"/>
    <path id="Tracé_155" data-name="Tracé 155" class="cls-1" d="M2307.12,657.49l91.05,13.78-72.78,31.82H2205.96l50.77-4.88,28.41-14.84Z"/>
    <path id="Tracé_156" data-name="Tracé 156" class="cls-1" d="M2209.34,646.38l-19.45,33.64L2160,703.09l50.35-13.38,54.49-33.08Z"/>
    <path id="Tracé_157" data-name="Tracé 157" class="cls-3" d="M2580.22,649.32l-4.43-.44-82.93-15.49s-45.52,7.74-53.65,9.47-91.06,11.19-91.06,11.19l-66,17.05v32h298.07Z" transform="translate(659.77)"/>
    <path id="Tracé_158" data-name="Tracé 158" class="cls-1" d="M3240,663.06l-38.84,31.85-45.93,8.18,69.3-3.42L3240,695.5Z"/>
    <path id="Tracé_159" data-name="Tracé 159" class="cls-1" d="M3240,703.09v-6.78l-73.28-2.64,68.84-44.79-82.92-15.49-40.15,38.4,3.27,14.76-148.23,16.54Z"/>
    <path id="Tracé_160" data-name="Tracé 160" class="cls-1" d="M3240,699.41l-213.67,3.68H3240Z"/>
    <path id="Tracé_161" data-name="Tracé 161" class="cls-4" d="M2160,771.46h249.43l-27.19-34.27-65.09-27.48-26.62-34.36-56.22-12.02L2160,624.68Z"/>
    <path id="Tracé_162" data-name="Tracé 162" class="cls-3" d="M2310.44,703.53l-32.54-36.68-50.53-8.72-67.43-27.55,23.76,26.75,5.73,34.16L2160,717.69l-.05,25.81Z"/>
    <path id="Tracé_163" data-name="Tracé 163" class="cls-5" d="M2160,771.46h249.43L2160,760.53Z"/>
    <path id="Tracé_164" data-name="Tracé 164" class="cls-5" d="M2160,767.08v4.38h245.36l-23.93-31.41-41.17,6.67-3.35,7.22,38.77,5Z"/>
    <path id="Tracé_165" data-name="Tracé 165" class="cls-6" d="M2316.8,712.81l58.4,25.01-35.42,5.56,10.05-7.78-23.45,4.45-20.45,21.53-65.56,2.47,52.22-7.83,15.82-18.39-11.71,1.66-70.25,23.95,57.48-32.21,15.16-8.41Z"/>
    <path id="Tracé_166" data-name="Tracé 166" class="cls-6" d="M2233.74,667.41l-26.46,15.63-8.17,21.78-21.16,15.08L2160,737.38v8.43l27.09-24.23,19.71-15.64,16.97-19.81,63.83-8.11Z"/>
    <path id="Tracé_167" data-name="Tracé 167" class="cls-4" d="M2580.22,633.6c-9.82,3.68-39.48,14.85-45.63,17.7-7.4,3.44-82.84,22.33-82.84,22.33L2391.1,708l-82.84-27.49s-31.07,0-38.47-1.71-50.49-20.46-50.49-20.46l-44.89,22.56L2080,771.46h500.18Z" transform="translate(659.77)"/>
    <path id="Tracé_168" data-name="Tracé 168" class="cls-6" d="M2747.23,768.39l87.12-83.37,45.48-22.23-34.47,31.12,4.31,15.01-34.94,45.58-47.87,11.67,43.56-17.23,22.43-39.28-14.44,3.42-30.01,31.97-10.53,2.22Z"/>
    <path id="Tracé_169" data-name="Tracé 169" class="cls-5" d="M3240,760.34l-30.65-1.35,26.46-5.58,4.19-3.99V686.5l-30.37,51.98-67,18.66,5.02-11.26-19.39,13.76-53.49,11.82H3240Z"/>
    <path id="Tracé_170" data-name="Tracé 170" class="cls-5" d="M3240,767.25l-111.74,4.21H3240Z"/>
    <path id="Tracé_171" data-name="Tracé 171" class="cls-5" d="M2978.11,687.91l62.18,28.49-55.63,55.06H2876l46.19-9.74,29.44-7.5,22.62-44.6-26.21,22.51Z"/>
    <path id="Tracé_172" data-name="Tracé 172" class="cls-6" d="M3240,635.94l-43.34,17.72-81.74,21.78-74.63,40.96-51.8,51.99,53.13-48.36,42.13-17.78-21.54,36.68-45.48,25.57,48.83-19.45,38.29-50.58,1.8,8.45-12.33,53.8,60.73-74.23,6.61,8.03-29.78,24.8,32.68-6.2,24.82-18.97-9.93-16.78,28.13-11.3-11.17,16.78,31.46-24.4,13.13-15.3Z"/>
    <path id="Tracé_173" data-name="Tracé 173" class="cls-5" d="M2883.42,663.76l48.9,19.05-52.18,41.69-15.63,21.66-31.54,22.13-7.23,3.17h-50.03l44.28-11.13,55.53-55.3,8.86-30.29-22.26,16.95Z"/>
    <path id="Tracé_174" data-name="Tracé 174" class="cls-6" d="M2970.61,684.48l-38.29-1.67-33.52,26.78,15.73-7.34-11.49,12.78-22.9,9.47-17.23,20.56-30.16,22.79,34.47-20.01,16.75-18.34,22.42-5.02,18.91-14.73,13.84-3.16-5.22,14-26.01,21.14-10.53,16.67-22.5,10.01,24.38-5.57,11.2-16.68,27.29-16.12Z"/>
    <path id="Tracé_175" data-name="Tracé 175" class="cls-7" d="M2580.22,756.61l-38.94-37.29L2448,689.42,2409.9,652l-80.53-13L2221.3,605.32s-59.34,16.82-69.94,20.56-118.66,24.3-118.66,24.3l-86.89,37.37-118.67-29.9s-44.5,0-55.09-1.87-72.34-22.26-72.34-22.26l-64.3,24.55-135.19,98.54Z" transform="translate(659.77)"/>
    <path id="Tracé_176" data-name="Tracé 176" class="cls-8" d="M2170.63,753.27l124.8-90.71,65.14-24.19-49.37,33.87,6.17,16.33-50.06,49.58-68.57,12.7,62.4-18.74,32.14-42.74-20.7,3.72-42.98,34.78-15.09,2.42Z"/>
    <path id="Tracé_177" data-name="Tracé 177" class="cls-3" d="M3107.31,692.8l-39.09-34.47-71.82,9.38-22.18,29.83,27.72-21.52-38.25,50.85-79.24,29.74,90.32-7.4Z"/>
    <path id="Tracé_178" data-name="Tracé 178" class="cls-3" d="M2988.32,643.4l-99.75-31.35-59.83,76.64,53.42-48.37,2.37,13.43-51.52,66.97-95.98,20.31,7.19-12.25-27.77,14.97-114.67-8.07,116.27,33.44L3240,756.61l-429.55-4.89,60.06-14.75,72.9-52.68Z"/>
    <path id="Tracé_179" data-name="Tracé 179" class="cls-1" d="M2988.32,643.4l-41.34-12.99,8.01,12.18-19.03,4-85.48,82.91L2688.1,770l73.46-10.8,108.95-22.23,72.9-52.68Z"/>
    <path id="Tracé_180" data-name="Tracé 180" class="cls-2" d="M3199.88,722.43l34.29,34.18-317.95,19.17,275.43-32.79-55.54-5.44,4.8-7.86Z"/>
    <path id="Tracé_181" data-name="Tracé 181" class="cls-8" d="M3107.31,692.8l83.66,27.21-50.75,6.05,14.41-8.47-33.6,4.84-29.3,23.43-93.91,2.69,74.81-8.52,22.65-20.01-16.77,1.81-100.62,26.05,82.33-35.04,21.72-9.16Z"/>
    <path id="Tracé_182" data-name="Tracé 182" class="cls-8" d="M3065.48,654.95l-77.16-11.55-37.89,17.01-11.72,23.7-30.31,16.4-42.72,31.6-28.5,9.81,37.21-4.78,47.1-34.8,28.25-17.01,21.35-21.27,2.95-.29L2964,694.61l-24,7.26-40.46,31.45,41.83-26.61,25.37-7.86L2988,662.56Z"/>
    <path id="Tracé_183" data-name="Tracé 183" class="cls-3" d="M2501.36,665.71l89.07,30.99-79.69,59.91-197.98-13.74,69.48-5.68,91.57-14.9,22.01-32.97-37.54,24.49Z"/>
    <path id="Tracé_184" data-name="Tracé 184" class="cls-1" d="M2545.33,689.82l45.1,6.88-55.68,42.45-51.5,10.9,3.57-7.77,54.39-24.78-37.01,6.54Z"/>
    <path id="Tracé_185" data-name="Tracé 185" class="cls-8" d="M2882.58,607.28l-68.15,21.16-117.09,23.7L2590.43,696.7l-74.21,56.57,76.12-52.61,60.34-19.35-30.86,39.91-65.14,27.82,69.95-21.17,54.85-55.03,37.03-14.51,32.85-1.57-10.22,40.27-74.74,43.54,78.65-34.83,46.83-48.02,5.71,32.32-81.14,53.71,86.37-44.53,11-14.89,5.49-38.7,8.08-2.97,10.43,16.88,19.89-30.24Z"/>
    <path id="Tracé_186" data-name="Tracé 186" class="cls-3" d="M2365.71,639.43l70.05,20.73-74.74,45.35-22.39,23.57-45.19,24.08-10.36,3.45h-71.65l63.42-12.11,79.55-60.17,12.68-32.95-31.88,18.44Z"/>
    <path id="Tracé_187" data-name="Tracé 187" class="cls-1" d="M2387.35,645.83l48.41,14.33-74.74,45.35-22.39,23.57-45.19,24.08-18.59-8.66,33.09-6.67,45.99-32.03,11.36-16.66Z"/>
    <path id="Tracé_188" data-name="Tracé 188" class="cls-8" d="M2490.62,661.97l-54.86-1.81-48.01,29.13,22.53-7.98-16.46,13.91-32.8,10.29-24.69,22.38-43.2,24.79,49.38-21.77,24-19.95,32.12-5.46,27.08-16.03,19.82-3.44-7.48,15.23-13.61,1.83-12.71,12.9-38.68,10.53,41.4-4.8,17.8-5.11,11.29-5.07Z"/>
    <path id="Tracé_189" data-name="Tracé 189" class="cls-3" d="M1947.46,736.42c-93.22-14.51-372.89,33-447.24-17.22V958H2579.76l.46-233C2494.89,686.15,2316.67,793.9,1947.46,736.42Z" transform="translate(659.77)"/>
    <path id="Tracé_190" data-name="Tracé 190" class="cls-9" d="M2580.22,726.61H2440.38c-105.5,17-261.78,45.8-492.92,9.81-88.09-13.71-342.64,28-433.13-9.81h-14.11L1635.41,775l64.3,12.06s61.74-10,72.34-10.94,55.09-.91,55.09-.91l118.67-14.69,86.89,18.36s108.07,10.09,118.67,11.93,69.93,10.1,69.93,10.1l108.07-16.52L2409.9,778l38.1-18.39,93.24-14.69,38.94-18.31Z" transform="translate(659.77)"/>
    <path id="Tracé_191" data-name="Tracé 191" class="cls-2" d="M1947.65,791.92c288,62.81,477.26,28.74,632.57,3.19v249.1h-1080v-258C1682.28,730,1795.11,758.66,1947.65,791.92Z" transform="translate(659.77)"/>
    <path id="Tracé_192" data-name="Tracé 192" class="cls-3" d="M2053.25,827.05c294.24,48.4,453.94,89.42,527,57.48v159.68h-1080V884.53C1676.11,812.15,1866.6,796.35,2053.25,827.05Z" transform="translate(659.77)"/>
    <path id="Tracé_193" data-name="Tracé 193" class="cls-7" d="M1960,823.86c-92.69-13.74-400.42,21.41-459.77,51.09v214h1080V884.53C2505.14,910.08,2340.15,880.2,1960,823.86Z" transform="translate(659.77)"/>
    <path id="Tracé_194" data-name="Tracé 194" class="cls-8" d="M2016.22,1054.85s136.32-75.2,351.77-92.61c72.84-5.88,162.52,7.45,162.52,7.45C2393.37,899.44,2152,961.18,2016.22,1054.85Z" transform="translate(659.77)"/>
    <path id="Tracé_195" data-name="Tracé 195" class="cls-2" d="M2016.22,1054.85c43.89-34.06,305.15-192.67,514.29-85.16C2315.19,890.92,2016.22,1054.85,2016.22,1054.85Z" transform="translate(659.77)"/>
    <path id="Tracé_196" data-name="Tracé 196" class="cls-2" d="M1618,1003c218.2,87.29,638.61,32.32,331.3-86.51C2114.91,1017.59,1771.05,1055,1618,1003Z" transform="translate(659.77)"/>
    <path id="Tracé_197" data-name="Tracé 197" class="cls-8" d="M1536.73,990c32.91-25.54,192.42-112.87,342.38-65C1710.9,907,1536.73,990,1536.73,990Z" transform="translate(659.77)"/>
    <path id="Tracé_198" data-name="Tracé 198" class="cls-2" d="M2362.74,787.66c20.33-15.78,118.85-69.72,211.47-40.12C2470.32,736.38,2362.74,787.66,2362.74,787.66Z" transform="translate(659.77)"/>
    <path id="Tracé_199" data-name="Tracé 199" class="cls-1" d="M2445.84,774c-27,17.34-156.75,72.48-273.92,21.2C2304.66,824.46,2445.84,774,2445.84,774Z" transform="translate(659.77)"/>
    <path id="Tracé_200" data-name="Tracé 200" class="cls-7" d="M1617.69,779.55c60.78-21.75,152.93-21.62,215.78,11.27C1741.79,765.73,1617.69,779.55,1617.69,779.55Z" transform="translate(659.77)"/>
    <path id="Tracé_201" data-name="Tracé 201" class="cls-2" d="M1836.81,742.46c51.92-11,129.53-1.87,181.34,29.91C1941.79,743.85,1836.81,742.46,1836.81,742.46Z" transform="translate(659.77)"/>
    <path id="Tracé_202" data-name="Tracé 202" class="cls-2" d="M2176.83,946.39c-7.52,0-13.61,1.7-13.61,3.79s6.09,3.79,13.61,3.79,13.61-1.69,13.61-3.79S2184.34,946.39,2176.83,946.39Zm-3.29,3.37c-2.8,0-5.08-.64-5.08-1.43s2.28-1.44,5.08-1.44,5.08.64,5.08,1.44S2176.35,949.76,2173.54,949.76Z" transform="translate(659.77)"/>
    <path id="Tracé_203" data-name="Tracé 203" class="cls-8" d="M2192.31,1012.43c-5.28,0-9.57,1.2-9.57,2.67s4.29,2.66,9.57,2.66,9.56-1.19,9.56-2.66S2197.59,1012.43,2192.31,1012.43Zm-2.31,2.37c-2,0-3.57-.45-3.57-1s1.6-1,3.57-1,3.57.45,3.57,1S2192,1014.8,2190,1014.8Z" transform="translate(659.77)"/>
    <path id="Tracé_204" data-name="Tracé 204" class="cls-8" d="M1918.85,911.41c-8.25,0-14.94,1.87-14.94,4.17s6.69,4.16,14.94,4.16,15-1.86,15-4.16S1927.11,911.41,1918.85,911.41Zm-3.61,3.71c-3.08,0-5.57-.71-5.57-1.58s2.49-1.57,5.57-1.57,5.58.7,5.58,1.57S1918.32,915.12,1915.24,915.12Z" transform="translate(659.77)"/>
    <path id="Tracé_205" data-name="Tracé 205" class="cls-2" d="M1629.15,1011.18c-8.26,0-15,1.86-15,4.16s6.69,4.17,15,4.17,14.95-1.87,14.95-4.17S1637.4,1011.18,1629.15,1011.18Zm-3.61,3.7c-3.08,0-5.58-.71-5.58-1.58s2.5-1.57,5.58-1.57,5.58.7,5.58,1.57S1628.62,1014.88,1625.54,1014.88Z" transform="translate(659.77)"/>
    <ellipse id="Ellipse_11" data-name="Ellipse 11" class="cls-2" cx="5.58" cy="1.58" rx="5.58" ry="1.58" transform="translate(2301.15 1022.26)"/>
    <path id="Tracé_206" data-name="Tracé 206" class="cls-8" d="M1849.53,906.12c-3.08,0-5.58-.7-5.58-1.57s2.5-1.58,5.58-1.58,5.58.71,5.58,1.58S1852.61,906.12,1849.53,906.12Z" transform="translate(659.77)"/>
    <ellipse id="Ellipse_12" data-name="Ellipse 12" class="cls-8" cx="5.58" cy="1.58" rx="5.58" ry="1.58" transform="translate(2517.83 910.71)"/>
    <ellipse id="Ellipse_13" data-name="Ellipse 13" class="cls-2" cx="5.58" cy="1.58" rx="5.58" ry="1.58" transform="translate(2844.17 954.81)"/>
    <ellipse id="Ellipse_14" data-name="Ellipse 14" class="cls-8" cx="5.58" cy="1.58" rx="5.58" ry="1.58" transform="translate(3096.12 982.05)"/>
    <path id="Tracé_207" data-name="Tracé 207" class="cls-8" d="M2453.41,989.78c-4.49,0-8.14-1-8.14-2.29s3.65-2.3,8.14-2.3,8.14,1,8.14,2.3S2457.91,989.78,2453.41,989.78Z" transform="translate(659.77)"/>
    <path id="Tracé_208" data-name="Tracé 208" class="cls-8" d="M1982.84,1076.54c-3.08,0-5.58-.7-5.58-1.57s2.5-1.58,5.58-1.58,5.58.71,5.58,1.58S1985.92,1076.54,1982.84,1076.54Z" transform="translate(659.77)"/>
    <path id="Tracé_209" data-name="Tracé 209" class="cls-2" d="M1995.32,1062.06c-5.27,0-9.53-1.21-9.53-2.7s4.26-2.69,9.53-2.69,9.54,1.21,9.54,2.69S2000.59,1062.06,1995.32,1062.06Z" transform="translate(659.77)"/>
    <path id="Tracé_210" data-name="Tracé 210" class="cls-2" d="M1582.71,988.16c-3.08,0-5.58-.7-5.58-1.57s2.5-1.58,5.58-1.58,5.57.71,5.57,1.58S1585.79,988.16,1582.71,988.16Z" transform="translate(659.77)"/>
    <g id="Cover">
      <path id="Tracé_211" data-name="Tracé 211" class="cls-7" d="M408,1076.21l-6.59-34.81S406.5,879.08,408,877.24s5.46-9.09,5.46-9.09l14.82-5.6s6.84,55.24,7.2,55.67-3.66,102.29-3.66,102.29,5.18,28.22,3.69,31.15S424.08,1080,424.08,1080H408.33Z" transform="translate(659.77)"/>
      <path id="Tracé_212" data-name="Tracé 212" class="cls-2" d="M418.9,782s-1.78,12.08-1.78,14.28-.18,32.06,0,32.79.59,18,.85,19.05.93,18,.93,18l5.21-2-1.49-46.23-.78-36.62Z" transform="translate(659.77)"/>
      <path id="Tracé_213" data-name="Tracé 213" class="cls-3" d="M418,716.63l-2.93,9.84-.71,20.16S416.59,765.85,417,767s1.86,15,1.86,15l5.21-1.41S425.92,745,425.92,743s-3.12-14.29-3.3-15-2.2-9.34-2.2-9.34l-.2-2Z" transform="translate(659.77)"/>
      <path id="Tracé_214" data-name="Tracé 214" class="cls-4" d="M419.19,624s-3.67,11.58-3.53,13.23.91,35.55.91,37.38.78,20,.85,22.17.12,5.86,0,9,0,8,0,8l3.92,1.12s1.32-10.68,2.13-14.23,1.35-51.54,1-53.92-2.75-15-2.93-16.12S419.19,624,419.19,624Z" transform="translate(659.77)"/>
      <path id="Tracé_215" data-name="Tracé 215" class="cls-2" d="M420.23,619.27s.84.92.81,1.14a10.449,10.449,0,0,0,0,1.77,6.291,6.291,0,0,1,.11,1.51,5.647,5.647,0,0,1-.16.82c0,.16-.57.6-.57.6s-.5-1.63-.5-1.7-.19-2.95-.12-3.32a3.118,3.118,0,0,1,.31-.78" transform="translate(659.77)"/>
    </g>
    <g id="Cover-2" data-name="Cover">
      <path id="Tracé_216" data-name="Tracé 216" class="cls-7" d="M1488.21,1077.25l-6.6-34.81s5.13-162.32,6.6-164.15,5.46-9.1,5.46-9.1l14.82-5.59s6.83,55.23,7.2,55.66-3.66,102.3-3.66,102.3,5.17,28.21,3.68,31.14-11.38,28.34-11.38,28.34h-15.75Z" transform="translate(659.77)"/>
      <path id="Tracé_217" data-name="Tracé 217" class="cls-2" d="M1499.14,783s-1.77,12.08-1.77,14.28-.18,32.06,0,32.8.59,17.95.85,19,.92,18,.92,18l5.22-2-1.49-46.23-.78-36.61Z" transform="translate(659.77)"/>
      <path id="Tracé_218" data-name="Tracé 218" class="cls-3" d="M1498.29,717.67l-2.94,9.84-.7,20.16s2.19,19.23,2.64,20.33,1.85,15,1.85,15l5.22-1.41s1.8-35.61,1.8-37.62-3.11-14.29-3.29-15-2.2-9.35-2.2-9.35l-.2-2Z" transform="translate(659.77)"/>
      <path id="Tracé_219" data-name="Tracé 219" class="cls-4" d="M1499.44,625.05s-3.67,11.58-3.54,13.24.92,35.54.92,37.37.78,20,.85,22.17.11,5.86,0,9,0,8,0,8l3.91,1.12s1.33-10.69,2.13-14.23,1.35-51.54,1-53.92-2.75-15-2.93-16.13S1499.44,625.05,1499.44,625.05Z" transform="translate(659.77)"/>
      <path id="Tracé_220" data-name="Tracé 220" class="cls-2" d="M1500.47,620.31s.85.92.82,1.15a8.619,8.619,0,0,0,0,1.76,6.882,6.882,0,0,1,.11,1.51,7.728,7.728,0,0,1-.16.83c0,.16-.57.59-.57.59s-.51-1.62-.51-1.69-.18-3-.11-3.32a3.081,3.081,0,0,1,.31-.79" transform="translate(659.77)"/>
    </g>
  </g>
</svg>
