<?xml version="1.0" encoding="UTF-8"?>
<svg width="436px" height="236px" viewBox="0 0 436 236" version="1.1" xmlns="http://www.w3.org/2000/svg" xmlns:xlink="http://www.w3.org/1999/xlink">
    <title>Fill 3</title>
    <g id="Page-1" stroke="none" stroke-width="1" fill="none" fill-rule="evenodd" fill-opacity="0.05">
        <g id="Web-1920-Dark" transform="translate(-935.000000, -943.000000)" fill="#FFFFFF">
            <g id="Main" transform="translate(0.000000, -204.879952)">
                <g id="Rectangle-+-Rectangle-+-Rectangle-+-Rectangle-+-Fill-15-Mask" transform="translate(0.000000, 204.879952)">
                    <path d="M942.996545,1097.79695 C936.2347,1113.62828 931.719277,1131.11036 940.900637,1143.76107 C957.126055,1166.08964 986.732176,1173.47835 1014.07682,1176.6703 C1038.68964,1179.54117 1065.59403,1179.72249 1085.83818,1165.37192 C1099.74192,1155.51653 1108.58086,1140.08561 1120.78755,1128.18283 C1139.59428,1109.84326 1166.76584,1100.51672 1192.81607,1103.45936 C1220.172,1106.54932 1244.82621,1122.13512 1272.07302,1126.06368 C1303.49284,1130.6004 1337.43377,1117.63616 1355.93947,1091.74923 C1374.44518,1065.8623 1375.25796,1027.80817 1355.947,1002.51808 C1336.83547,977.492414 1303.173,968.320742 1271.76823,967.621912 C1246.8431,967.07418 1221.82766,970.874304 1198.18566,978.810747 C1183.77393,983.645895 1169.33963,990.094019 1154.15652,989.474515 C1126.57105,988.341277 1105.74743,964.932361 1081.04807,952.542293 C1035.00204,929.435573 972.00061,951.507269 950.266376,998.3591 C946.623935,1006.22377 944.008752,1014.74572 944.181844,1023.41877 C944.385038,1033.54991 948.351084,1043.22776 949.626691,1053.28336 C949.716999,1054.00486 949.796019,1054.74146 949.867513,1055.47051 C951.297397,1069.93063 948.697266,1084.43985 942.996545,1097.79695 Z" id="Fill-3"></path>
                </g>
            </g>
        </g>
    </g>
</svg>