<?xml version="1.0" encoding="UTF-8"?>
<svg width="356px" height="236px" viewBox="0 0 356 236" version="1.1" xmlns="http://www.w3.org/2000/svg" xmlns:xlink="http://www.w3.org/1999/xlink">
    <title>Fill 2</title>
    <g id="Page-1" stroke="none" stroke-width="1" fill="none" fill-rule="evenodd" fill-opacity="0.05">
        <g id="Web-1920-Dark" transform="translate(-1564.000000, -771.000000)" fill="#FFFFFF">
            <g id="Main" transform="translate(0.000000, -204.879952)">
                <g id="Rectangle-+-Rectangle-+-Rectangle-+-Rectangle-+-Fill-15-Mask" transform="translate(0.000000, 204.879952)">
                    <path d="M1571.99655,926.133126 C1565.2347,941.964459 1560.71928,959.446542 1569.90064,972.097254 C1586.12606,994.425817 1615.73218,1001.81453 1643.07682,1005.00648 C1667.68964,1007.87735 1694.59403,1008.05867 1714.83818,993.7081 C1728.74192,983.852708 1737.58086,968.421786 1749.78755,956.51901 C1768.59428,938.179444 1795.76584,928.852897 1821.81607,931.795538 C1849.172,934.8855 1873.82621,950.471298 1901.07302,954.399856 C1932.49284,958.936585 1966.43377,945.972343 1984.93947,920.085413 C2003.44518,894.198483 2004.25796,856.144355 1984.947,830.854263 C1965.83547,805.828594 1932.173,796.656922 1900.76823,795.958092 C1875.8431,795.41036 1850.82766,799.210485 1827.18566,807.146927 C1812.77393,811.982075 1798.33963,818.430199 1783.15652,817.810695 C1755.57105,816.677458 1734.74743,793.268541 1710.04807,780.878473 C1664.00204,757.771753 1601.00061,779.843449 1579.26638,826.69528 C1575.62393,834.559951 1573.00875,843.0819 1573.18184,851.754947 C1573.38504,861.886094 1577.35108,871.563945 1578.62669,881.619542 C1578.717,882.341037 1578.79602,883.077642 1578.86751,883.806691 C1580.2974,898.266807 1577.69727,912.776029 1571.99655,926.133126 Z" id="Fill-2"></path>
                </g>
            </g>
        </g>
    </g>
</svg>