<?xml version="1.0" encoding="UTF-8"?>
<svg width="550px" height="434px" viewBox="0 0 550 434" version="1.1" xmlns="http://www.w3.org/2000/svg" xmlns:xlink="http://www.w3.org/1999/xlink">
    <title>Fill 1</title>
    <g id="Page-1" stroke="none" stroke-width="1" fill="none" fill-rule="evenodd" fill-opacity="0.05">
        <g id="Web-1920-Dark" transform="translate(-481.000000, -473.000000)" fill="#FFFFFF">
            <g id="Main" transform="translate(0.000000, -204.879952)">
                <g id="Rectangle-+-Rectangle-+-Rectangle-+-Rectangle-+-Fill-15-Mask" transform="translate(0.000000, 204.879952)">
                    <path d="M794.571121,473.722468 C725.956799,473.222472 657.273992,485.916117 593.335231,510.915912 C567.934048,520.84708 542.582671,533.203228 524.291329,553.484311 C505.987536,573.771644 496.038739,603.577648 505.477022,629.246187 C516.521555,659.23344 551.852858,686.976961 536.861179,715.182979 C530.417497,727.307879 516.614942,733.101581 505.956407,741.72651 C473.775349,767.757546 474.049283,820.888358 498.927501,854.013085 C523.811944,887.131563 566.334022,902.568936 607.517558,906.025157 C648.694867,909.475129 689.959338,902.718934 731.211357,900.187705 C827.125726,894.325253 935.553912,907.512645 1007.54261,843.619421 C1019.99417,832.563262 1031.33131,817.869633 1030.7959,801.194771 C1029.79355,769.72628 991.336902,756.070142 960.457033,750.607687 C933.119632,745.776477 905.782232,740.945267 878.451057,736.107807 C852.340135,731.495345 820.339625,720.995431 817.208058,694.570649 C813.622009,664.270898 850.403917,647.796034 879.247957,638.189863 C904.686494,629.721183 929.402841,619.077521 953.042128,606.408875 C973.506268,595.452715 995.956431,577.309115 992.146253,554.340554 C989.033363,535.521959 969.764574,524.597049 952.61255,516.372117 C896.842011,489.628587 838.556258,470.197497 794.571121,473.722468" id="Fill-1"></path>
                </g>
            </g>
        </g>
    </g>
</svg>