<?xml version="1.0" encoding="UTF-8"?>
<svg width="455px" height="404px" viewBox="0 0 455 404" version="1.1" xmlns="http://www.w3.org/2000/svg" xmlns:xlink="http://www.w3.org/1999/xlink">
    <title>Fill 4</title>
    <defs>
        <path d="M-120.486668,975.675763 C-126.726749,1006.70935 -127.125498,1039.47054 -117.254698,1069.54201 C-106.068725,1103.60241 -82.3326342,1132.38871 -54.651022,1155.05819 C17.5086517,1214.13367 115.335203,1233.74122 208.299809,1228.58651 C282.187397,1224.49224 359.369916,1203.57143 409.983124,1149.39082 C460.610323,1095.21021 473.307347,1001.42823 422.169469,947.732191 C401.791269,926.340856 374.123648,913.36279 352.346327,893.397076 C299.865293,845.291152 280.025755,756.923729 211.307919,738.69966 C190.24415,733.116564 167.935163,735.658804 146.500627,739.591551 C88.5070549,750.216991 42.4759688,782.54979 12.7586354,798.05605 C-54.9868111,833.387569 -105.369164,900.560294 -120.486668,975.675763 Z" id="path-1"></path>
    </defs>
    <g id="Page-1" stroke="none" stroke-width="1" fill="none" fill-rule="evenodd">
        <g id="Web-1920-Dark" transform="translate(0.000000, -735.000000)">
            <g id="Main" transform="translate(0.000000, -204.879952)">
                <g id="Fill-4" transform="translate(0.000000, 204.879952)">
                    <use fill="#000000" xlink:href="#path-1"></use>
                    <use fill-opacity="0.05" fill="#D8D8D8" xlink:href="#path-1"></use>
                </g>
            </g>
        </g>
    </g>
</svg>