<?xml version="1.0" encoding="UTF-8"?>
<svg width="371px" height="404px" viewBox="0 0 371 404" version="1.1" xmlns="http://www.w3.org/2000/svg" xmlns:xlink="http://www.w3.org/1999/xlink">
    <title>Fill 6</title>
    <g id="Page-1" stroke="none" stroke-width="1" fill="none" fill-rule="evenodd" fill-opacity="0.05">
        <g id="Web-1920-Dark" transform="translate(-1494.000000, -30.000000)" fill="#FFFFFF">
            <g id="Main" transform="translate(0.000000, -204.879952)">
                <g id="Rectangle-+-Rectangle-+-Rectangle-+-Rectangle-+-Fill-15-Mask" transform="translate(0.000000, 204.879952)">
                    <path d="M1558.59873,88.0873185 C1542.63985,108.336279 1538.58852,140.573545 1556.7765,158.832124 C1565.44644,167.541478 1577.54311,171.729332 1587.79462,178.494325 C1598.04612,185.259319 1607.13438,197.011769 1604.10305,208.948302 C1602.19486,216.478384 1595.97175,222.000828 1590.06381,227.0228 C1570.10518,244.004314 1550.14081,260.991582 1530.18217,277.973096 C1512.72768,292.820416 1493.77184,310.791369 1494.00678,333.755531 C1494.12139,344.880954 1498.92911,355.436875 1504.71672,364.928576 C1544.35894,429.972609 1638.72553,453.678849 1704.2114,415.044753 C1713.19651,409.740906 1722.14151,402.763068 1725.14992,392.747886 C1730.03787,376.514202 1717.67761,360.361054 1715.71212,343.517601 C1712.69798,317.556363 1734.85132,295.207723 1758.27106,283.800425 C1781.69653,272.393127 1808.25647,267.227341 1829.52735,252.155672 C1851.38845,236.669819 1865.9606,210.110316 1864.04095,183.326463 C1862.1213,156.542611 1842.06525,131.191143 1815.78036,126.197933 C1799.78709,123.160589 1783.38124,127.319679 1767.10718,127.670585 C1750.83313,128.02149 1732.29561,122.861457 1725.23588,108.129187 C1718.90962,94.9386003 1724.07263,79.0328117 1720.77197,64.7780037 C1716.0674,44.4312499 1694.55012,31.6088258 1673.78924,30.2339674 C1653.02836,28.8533564 1635.55094,40.4504884 1622.56035,46.2202916 C1599.0432,56.6669144 1574.55189,67.838358 1558.59873,88.0873185 Z" id="Fill-6"></path>
                </g>
            </g>
        </g>
    </g>
</svg>