<?xml version="1.0" encoding="UTF-8"?>
<svg width="330px" height="315px" viewBox="0 0 330 315" version="1.1" xmlns="http://www.w3.org/2000/svg" xmlns:xlink="http://www.w3.org/1999/xlink">
    <title>Fill 5</title>
    <g id="Page-1" stroke="none" stroke-width="1" fill="none" fill-rule="evenodd" fill-opacity="0.05">
        <g id="Web-1920-Dark" transform="translate(0.000000, -74.000000)" fill="#FFFFFF">
            <g id="Main" transform="translate(0.000000, -204.879952)">
                <g id="Rectangle-+-Rectangle-+-Rectangle-+-Rectangle-+-Fill-15-Mask" transform="translate(0.000000, 204.879952)">
                    <path d="M34.3845965,82.0852379 C14.7761615,85.3002807 -4.08365494,92.93685 -16.4408967,108.129107 C-32.6251571,128.029346 -30.5941516,163.347636 -7.54139985,174.499184 C10.6335816,183.288316 39.9438446,179.42622 44.2005636,199.221987 C45.9059368,207.138272 42.266912,215.273611 35.724053,220.015293 C20.6878982,230.900606 2.7747653,227.159833 -13.6209882,231.355565 C-44.9219723,239.366212 -62.6873956,280.23837 -47.2450397,308.718797 C-31.8026838,337.202593 12.0301077,344.424645 35.72741,322.387784 C40.5850381,317.871896 44.7343319,312.351728 50.6393546,309.359109 C66.7464032,301.19344 85.4047976,315.923998 93.968591,331.867779 C102.529027,347.814931 107.450439,366.983865 122.070322,377.606313 C133.363384,385.802313 148.10412,387.029017 162.025739,387.645739 C179.196968,388.404004 196.781111,388.609578 213.113081,383.230953 C229.441694,377.848958 244.541632,365.881854 249.389189,349.32809 C255.636629,327.988833 244.004507,304.236609 251.050921,283.150107 C262.239915,249.668503 311.732666,243.727077 325.892635,211.398035 C333.237825,194.628587 328.870324,175.031654 321.931335,158.083593 C312.061655,133.980882 295.427552,110.582515 270.780209,102.396625 C244.632272,93.7085951 216.496971,103.930005 190.181182,112.088934 C163.865394,120.247864 132.997467,125.724221 110.616122,109.611936 C100.474523,102.312373 93.4784641,91.40347 83.9142745,83.3591228 C76.7470072,77.3233349 66.7833306,73.1242328 59.2165762,75.5136095 C51.0287705,78.1018201 42.85775,80.6967708 34.3845965,82.0852379 Z" id="Fill-5"></path>
                </g>
            </g>
        </g>
    </g>
</svg>