<?xml version="1.0" encoding="UTF-8"?>
<svg width="1920px" height="1293px" viewBox="0 0 1920 1293" version="1.1" xmlns="http://www.w3.org/2000/svg" xmlns:xlink="http://www.w3.org/1999/xlink">
    <mask id="rectMask">
        <g id="Page-1" stroke="none" stroke-width="1" fill="none" fill-rule="evenodd">
            <g id="Main" fill="#000000" transform="translate(0.000000, -204.879952)">
                <g id="Rectangle" transform="translate(0.000000, 204.879952)">
                    <path d="M0,0 L1920.11475,0 L2002.55375,996.851313 C2187.94367,1084.08503 2100.40516,1167.3241 1739.93822,1246.56852 C1544.2419,1289.59006 1409.08246,1316.72431 1123.84634,1263.80856 C892.842376,1220.95372 519.066411,1101.00159 285.227111,1088.73524 C181.320502,1083.28468 86.2447983,1099.74108 0,1138.10444 L0,0 Z"></path>
                </g>
            </g>
        </g>
    </mask>
    <path id="Path" d="M0,0 L1920.11475,0 L2002.55375,996.851313 C2187.94367,1084.08503 2100.40516,1167.3241 1739.93822,1246.56852 C1544.2419,1289.59006 1409.08246,1316.72431 1123.84634,1263.80856 C892.842376,1220.95372 519.066411,1101.00159 285.227111,1088.73524 C181.320502,1083.28468 86.2447983,1099.74108 0,1138.10444 L0,0 Z"></path>
</svg>