<?xml version="1.0" encoding="UTF-8"?>
<svg width="1920px" height="4270px" viewBox="0 0 1920 4270" version="1.1" xmlns="http://www.w3.org/2000/svg" xmlns:xlink="http://www.w3.org/1999/xlink">
    <title>Rectangle</title>
    <defs>
        <rect id="path-1" x="0" y="0" width="1920" height="4270"></rect>
        <path d="M1.13686838e-13,0 L1920.11475,0 L2002.55375,996.851313 C2187.94367,1084.08503 2100.40516,1167.3241 1739.93822,1246.56852 C1544.2419,1289.59006 1409.08246,1316.72431 1123.84634,1263.80856 C892.842376,1220.95372 519.066411,1101.00159 285.227111,1088.73524 C181.320502,1083.28468 86.2447983,1099.74108 1.13686838e-13,1138.10444 L1.13686838e-13,0 Z" id="path-3"></path>
        <rect id="path-5" x="0" y="0" width="1367" height="566.189441" rx="196"></rect>
        <rect id="path-6" x="137" y="57.2212733" width="1094" height="452.750776" rx="156.8"></rect>
        <rect id="path-7" x="274" y="114.442547" width="820" height="339.312112" rx="117.6"></rect>
        <rect id="path-8" x="410" y="169.656056" width="547" height="226.877329" rx="78.4"></rect>
        <path d="M-120.486668,975.675763 C-126.726749,1006.70935 -127.125498,1039.47054 -117.254698,1069.54201 C-106.068725,1103.60241 -82.3326342,1132.38871 -54.651022,1155.05819 C17.5086517,1214.13367 115.335203,1233.74122 208.299809,1228.58651 C282.187397,1224.49224 359.369916,1203.57143 409.983124,1149.39082 C460.610323,1095.21021 473.307347,1001.42823 422.169469,947.732191 C401.791269,926.340856 374.123648,913.36279 352.346327,893.397076 C299.865293,845.291152 280.025755,756.923729 211.307919,738.69966 C190.24415,733.116564 167.935163,735.658804 146.500627,739.591551 C88.5070549,750.216991 42.4759688,782.54979 12.7586354,798.05605 C-54.9868111,833.387569 -105.369164,900.560294 -120.486668,975.675763 Z" id="path-9"></path>
    </defs>
    <g id="Page-1" stroke="none" stroke-width="1" fill="none" fill-rule="evenodd">
        <g id="Main" transform="translate(0.000000, -204.879952)">
            <g id="Rectangle" transform="translate(0.000000, 204.879952)">
                <mask id="mask-2" fill="white">
                    <use xlink:href="#path-1"></use>
                </mask>
                <rect stroke="#EDEDED" x="0.5" y="0.5" width="1919" height="4269"></rect>
                <path d="M0,0 L1920.11475,0 L2002.55375,996.851313 C2187.94367,1084.08503 2100.40516,1167.3241 1739.93822,1246.56852 C1544.2419,1289.59006 1409.08246,1316.72431 1123.84634,1263.80856 C892.842376,1220.95372 519.066411,1101.00159 285.227111,1088.73524 C181.320502,1083.28468 86.2447983,1099.74108 0,1138.10444 L0,0 Z" fill="#000000" mask="url(#mask-2)"></path>
                <g id="Rectangle-+-Rectangle-+-Rectangle-+-Rectangle-+-Fill-15-Mask" mask="url(#mask-2)">
                    <mask id="mask-4" fill="white">
                        <use xlink:href="#path-3"></use>
                    </mask>
                    <use id="Mask" fill="#000000" xlink:href="#path-3"></use>
                    <g id="Rects" mask="url(#mask-4)">
                        <g transform="translate(276.000000, 296.145186)" id="Rectangle">
                            <g>
                                <use fill="#000000" xlink:href="#path-5"></use>
                                <use fill-opacity="0.03" fill="#D8D8D8" xlink:href="#path-5"></use>
                            </g>
                            <g>
                                <use fill="#000000" xlink:href="#path-6"></use>
                                <use fill-opacity="0.05" fill="#D8D8D8" xlink:href="#path-6"></use>
                            </g>
                            <g>
                                <use fill="#000000" xlink:href="#path-7"></use>
                                <use fill-opacity="0.1" fill="#D8D8D8" xlink:href="#path-7"></use>
                            </g>
                            <g>
                                <use fill="#000000" xlink:href="#path-8"></use>
                                <use fill-opacity="0.15" fill="#D8D8D8" xlink:href="#path-8"></use>
                            </g>
                        </g>
                    </g>
                    <path d="M1571.99655,926.133126 C1565.2347,941.964459 1560.71928,959.446542 1569.90064,972.097254 C1586.12606,994.425817 1615.73218,1001.81453 1643.07682,1005.00648 C1667.68964,1007.87735 1694.59403,1008.05867 1714.83818,993.7081 C1728.74192,983.852708 1737.58086,968.421786 1749.78755,956.51901 C1768.59428,938.179444 1795.76584,928.852897 1821.81607,931.795538 C1849.172,934.8855 1873.82621,950.471298 1901.07302,954.399856 C1932.49284,958.936585 1966.43377,945.972343 1984.93947,920.085413 C2003.44518,894.198483 2004.25796,856.144355 1984.947,830.854263 C1965.83547,805.828594 1932.173,796.656922 1900.76823,795.958092 C1875.8431,795.41036 1850.82766,799.210485 1827.18566,807.146927 C1812.77393,811.982075 1798.33963,818.430199 1783.15652,817.810695 C1755.57105,816.677458 1734.74743,793.268541 1710.04807,780.878473 C1664.00204,757.771753 1601.00061,779.843449 1579.26638,826.69528 C1575.62393,834.559951 1573.00875,843.0819 1573.18184,851.754947 C1573.38504,861.886094 1577.35108,871.563945 1578.62669,881.619542 C1578.717,882.341037 1578.79602,883.077642 1578.86751,883.806691 C1580.2974,898.266807 1577.69727,912.776029 1571.99655,926.133126 Z" id="Fill-16" fill-opacity="0.05" fill="#FFFFFF" mask="url(#mask-4)"></path>
                    <path d="M942.996545,1097.79695 C936.2347,1113.62828 931.719277,1131.11036 940.900637,1143.76107 C957.126055,1166.08964 986.732176,1173.47835 1014.07682,1176.6703 C1038.68964,1179.54117 1065.59403,1179.72249 1085.83818,1165.37192 C1099.74192,1155.51653 1108.58086,1140.08561 1120.78755,1128.18283 C1139.59428,1109.84326 1166.76584,1100.51672 1192.81607,1103.45936 C1220.172,1106.54932 1244.82621,1122.13512 1272.07302,1126.06368 C1303.49284,1130.6004 1337.43377,1117.63616 1355.93947,1091.74923 C1374.44518,1065.8623 1375.25796,1027.80817 1355.947,1002.51808 C1336.83547,977.492414 1303.173,968.320742 1271.76823,967.621912 C1246.8431,967.07418 1221.82766,970.874304 1198.18566,978.810747 C1183.77393,983.645895 1169.33963,990.094019 1154.15652,989.474515 C1126.57105,988.341277 1105.74743,964.932361 1081.04807,952.542293 C1035.00204,929.435573 972.00061,951.507269 950.266376,998.3591 C946.623935,1006.22377 944.008752,1014.74572 944.181844,1023.41877 C944.385038,1033.54991 948.351084,1043.22776 949.626691,1053.28336 C949.716999,1054.00486 949.796019,1054.74146 949.867513,1055.47051 C951.297397,1069.93063 948.697266,1084.43985 942.996545,1097.79695 Z" id="Fill-16-Copy" fill-opacity="0.05" fill="#FFFFFF" mask="url(#mask-4)"></path>
                    <g id="Fill-15" mask="url(#mask-4)">
                        <use fill="#000000" xlink:href="#path-9"></use>
                        <use fill-opacity="0.05" fill="#D8D8D8" xlink:href="#path-9"></use>
                    </g>
                    <path d="M34.3845965,82.0852379 C14.7761615,85.3002807 -4.08365494,92.93685 -16.4408967,108.129107 C-32.6251571,128.029346 -30.5941516,163.347636 -7.54139985,174.499184 C10.6335816,183.288316 39.9438446,179.42622 44.2005636,199.221987 C45.9059368,207.138272 42.266912,215.273611 35.724053,220.015293 C20.6878982,230.900606 2.7747653,227.159833 -13.6209882,231.355565 C-44.9219723,239.366212 -62.6873956,280.23837 -47.2450397,308.718797 C-31.8026838,337.202593 12.0301077,344.424645 35.72741,322.387784 C40.5850381,317.871896 44.7343319,312.351728 50.6393546,309.359109 C66.7464032,301.19344 85.4047976,315.923998 93.968591,331.867779 C102.529027,347.814931 107.450439,366.983865 122.070322,377.606313 C133.363384,385.802313 148.10412,387.029017 162.025739,387.645739 C179.196968,388.404004 196.781111,388.609578 213.113081,383.230953 C229.441694,377.848958 244.541632,365.881854 249.389189,349.32809 C255.636629,327.988833 244.004507,304.236609 251.050921,283.150107 C262.239915,249.668503 311.732666,243.727077 325.892635,211.398035 C333.237825,194.628587 328.870324,175.031654 321.931335,158.083593 C312.061655,133.980882 295.427552,110.582515 270.780209,102.396625 C244.632272,93.7085951 216.496971,103.930005 190.181182,112.088934 C163.865394,120.247864 132.997467,125.724221 110.616122,109.611936 C100.474523,102.312373 93.4784641,91.40347 83.9142745,83.3591228 C76.7470072,77.3233349 66.7833306,73.1242328 59.2165762,75.5136095 C51.0287705,78.1018201 42.85775,80.6967708 34.3845965,82.0852379 Z" id="Fill-13" fill-opacity="0.05" fill="#FFFFFF" mask="url(#mask-4)"></path>
                    <path d="M1558.59873,88.0873185 C1542.63985,108.336279 1538.58852,140.573545 1556.7765,158.832124 C1565.44644,167.541478 1577.54311,171.729332 1587.79462,178.494325 C1598.04612,185.259319 1607.13438,197.011769 1604.10305,208.948302 C1602.19486,216.478384 1595.97175,222.000828 1590.06381,227.0228 C1570.10518,244.004314 1550.14081,260.991582 1530.18217,277.973096 C1512.72768,292.820416 1493.77184,310.791369 1494.00678,333.755531 C1494.12139,344.880954 1498.92911,355.436875 1504.71672,364.928576 C1544.35894,429.972609 1638.72553,453.678849 1704.2114,415.044753 C1713.19651,409.740906 1722.14151,402.763068 1725.14992,392.747886 C1730.03787,376.514202 1717.67761,360.361054 1715.71212,343.517601 C1712.69798,317.556363 1734.85132,295.207723 1758.27106,283.800425 C1781.69653,272.393127 1808.25647,267.227341 1829.52735,252.155672 C1851.38845,236.669819 1865.9606,210.110316 1864.04095,183.326463 C1862.1213,156.542611 1842.06525,131.191143 1815.78036,126.197933 C1799.78709,123.160589 1783.38124,127.319679 1767.10718,127.670585 C1750.83313,128.02149 1732.29561,122.861457 1725.23588,108.129187 C1718.90962,94.9386003 1724.07263,79.0328117 1720.77197,64.7780037 C1716.0674,44.4312499 1694.55012,31.6088258 1673.78924,30.2339674 C1653.02836,28.8533564 1635.55094,40.4504884 1622.56035,46.2202916 C1599.0432,56.6669144 1574.55189,67.838358 1558.59873,88.0873185 Z" id="Fill-6" fill-opacity="0.05" fill="#FFFFFF" mask="url(#mask-4)"></path>
                </g>
            </g>
        </g>
    </g>
</svg>